<svg width="17" height="17" viewBox="0 0 17 17" fill="none" xmlns="http://www.w3.org/2000/svg">
<circle cx="8.5" cy="8.5" r="8.5" fill="#FF1515"/>
<path d="M11.9041 8.26649L9.73729 6.09597C9.67543 6.03401 9.59299 6 9.50509 6C9.41709 6 9.3347 6.03406 9.27285 6.09597L9.07612 6.29308C9.01432 6.35494 8.98027 6.43756 8.98027 6.52566C8.98027 6.61371 9.01432 6.69912 9.07612 6.76098L10.3402 8.02999H6.32414C6.14307 8.02999 6 8.17199 6 8.35341V8.63208C6 8.8135 6.14307 8.96981 6.32414 8.96981H10.3545L9.07617 10.2459C9.01437 10.3079 8.98032 10.3882 8.98032 10.4763C8.98032 10.5643 9.01437 10.6459 9.07617 10.7078L9.2729 10.9043C9.33475 10.9662 9.41714 11 9.50514 11C9.59304 11 9.67548 10.9658 9.73733 10.9038L11.9041 8.73337C11.9661 8.67121 12.0002 8.58825 12 8.50005C12.0002 8.41156 11.9661 8.32854 11.9041 8.26649Z" fill="white"/>
</svg>
