<svg width="17" height="17" viewBox="0 0 17 17" fill="none" xmlns="http://www.w3.org/2000/svg">
<circle cx="8.5" cy="8.5" r="8.5" fill="#FF1515"/>
<path d="M6.0959 8.73351L8.26271 10.904C8.32457 10.966 8.40701 11 8.49491 11C8.58291 11 8.6653 10.9659 8.72715 10.904L8.92388 10.7069C8.98568 10.6451 9.01973 10.5624 9.01973 10.4743C9.01973 10.3863 8.98568 10.3009 8.92388 10.239L7.65979 8.97001L11.6759 8.97001C11.8569 8.97001 12 8.82801 12 8.64659L12 8.36792C12 8.1865 11.8569 8.03019 11.6759 8.03019L7.64545 8.03019L8.92383 6.75409C8.98564 6.69214 9.01968 6.61176 9.01968 6.52366C9.01968 6.43566 8.98564 6.35411 8.92383 6.2922L8.7271 6.09572C8.66525 6.03376 8.58286 6 8.49486 6C8.40696 6 8.32452 6.0342 8.26267 6.09616L6.09585 8.26663C6.03385 8.32879 5.99976 8.41175 6 8.49995C5.99981 8.58844 6.03385 8.67146 6.0959 8.73351Z" fill="white"/>
</svg>
