<svg width="20" height="20" viewBox="0 0 20 20" fill="none" xmlns="http://www.w3.org/2000/svg">
<path d="M15.2051 13.2304C14.5517 12.5853 13.736 12.5853 13.0867 13.2304C12.5915 13.7215 12.0962 14.2126 11.6093 14.712C11.4761 14.8493 11.3637 14.8785 11.2014 14.7869C10.881 14.6121 10.5397 14.4706 10.2317 14.2792C8.79591 13.3761 7.59315 12.2149 6.52772 10.9081C5.99918 10.2589 5.52889 9.56384 5.20011 8.78142C5.13352 8.62327 5.146 8.51922 5.27502 8.39021C5.77028 7.9116 6.25304 7.42051 6.73998 6.92941C7.41835 6.24687 7.41835 5.44781 6.73582 4.76111C6.34877 4.3699 5.96172 3.98701 5.57467 3.5958C5.17514 3.19627 4.77977 2.79257 4.37607 2.3972C3.72267 1.76044 2.90695 1.76044 2.25771 2.40136C1.75829 2.89246 1.27968 3.39604 0.771943 3.87881C0.301659 4.32412 0.0644357 4.86932 0.014494 5.50607C-0.0645803 6.54236 0.18929 7.52039 0.547206 8.47344C1.27968 10.4461 2.39505 12.1983 3.74764 13.8047C5.57467 15.9772 7.75546 17.696 10.3066 18.9362C11.4553 19.4939 12.6456 19.9226 13.9399 19.9933C14.8305 20.0433 15.6046 19.8185 16.2247 19.1235C16.6492 18.6491 17.1278 18.2162 17.5773 17.7626C18.2432 17.0884 18.2474 16.2727 17.5856 15.6068C16.7949 14.8119 16 14.0211 15.2051 13.2304Z" fill="#DF0C12"/>
<path d="M14.2237 9.15833C14.3568 9.56725 14.7536 9.85479 15.1775 9.78242C15.6018 9.70998 15.8914 9.30531 15.7715 8.8919C15.4496 7.78217 14.8538 6.77714 14.0273 5.94722C13.1438 5.06376 12.0673 4.45004 10.8798 4.14594C10.4626 4.03911 10.0668 4.34094 10.007 4.7674C9.94722 5.19383 10.2469 5.58226 10.6603 5.70286C11.5127 5.95154 12.2869 6.40837 12.9286 7.0501C13.5261 7.64757 13.9658 8.36637 14.2237 9.15833Z" fill="#DF0C12"/>
<path d="M16.8116 3.23789C15.2238 1.65006 13.2587 0.586318 11.0869 0.133369C10.6655 0.0454841 10.2708 0.345435 10.211 0.771732C10.1512 1.19825 10.4495 1.58934 10.8701 1.68204C12.7053 2.08652 14.3667 2.9982 15.7129 4.34077C16.9806 5.60846 17.8678 7.16781 18.3027 8.88601C18.4082 9.30266 18.8072 9.58845 19.2308 9.51612C19.6552 9.44368 19.9428 9.03968 19.8412 8.62139C19.3463 6.5844 18.3081 4.73806 16.8116 3.23789Z" fill="#DF0C12"/>
</svg>
