<svg width="92" height="93" viewBox="0 0 92 93" fill="none" xmlns="http://www.w3.org/2000/svg">
<mask id="path-1-outside-1_24_1369" maskUnits="userSpaceOnUse" x="0" y="-0.000244141" width="92" height="93" fill="black">
<rect fill="white" y="-0.000244141" width="92" height="93"/>
<path d="M31.8762 34.858H59.0788C59.3673 34.858 59.6441 34.7433 59.8482 34.5393C60.0522 34.3352 60.1669 34.0584 60.1669 33.7698C60.1669 33.4811 60.0522 33.2044 59.8482 33.0003C59.6441 32.7962 59.3673 32.6815 59.0788 32.6815H31.8762C31.5876 32.6815 31.3108 32.7962 31.1068 33.0003C30.9027 33.2044 30.7881 33.4811 30.7881 33.7698C30.7881 34.0584 30.9027 34.3352 31.1068 34.5393C31.3108 34.7433 31.5876 34.858 31.8762 34.858Z"/>
<path d="M20.8889 33.5683L18.4713 35.8798L17.4907 34.8992C17.3902 34.7959 17.2701 34.7136 17.1375 34.6571C17.0049 34.6006 16.8624 34.571 16.7183 34.57C16.5742 34.569 16.4313 34.5967 16.2979 34.6514C16.1646 34.7061 16.0434 34.7868 15.9415 34.8887C15.8396 34.9907 15.759 35.1118 15.7043 35.2452C15.6496 35.3786 15.6219 35.5215 15.6229 35.6656C15.6239 35.8098 15.6535 35.9523 15.71 36.0849C15.7665 36.2175 15.8488 36.3376 15.9521 36.4381L17.6849 38.1713C17.886 38.3724 18.1578 38.4867 18.4421 38.4899C18.7265 38.4931 19.0008 38.3849 19.2063 38.1883L22.3928 35.1413C22.4971 35.0428 22.5808 34.9246 22.6393 34.7936C22.6977 34.6626 22.7297 34.5213 22.7333 34.3779C22.737 34.2345 22.7122 34.0918 22.6605 33.9579C22.6088 33.8241 22.5311 33.7019 22.432 33.5982C22.3329 33.4945 22.2142 33.4114 22.0829 33.3538C21.9515 33.2961 21.8101 33.265 21.6667 33.2622C21.5232 33.2594 21.3807 33.2851 21.2472 33.3376C21.1137 33.3901 20.9919 33.4685 20.8889 33.5683Z"/>
<path d="M19.1816 28.4919C17.721 28.4919 16.2932 28.925 15.0787 29.7366C13.8643 30.5482 12.9177 31.7017 12.3588 33.0513C11.7998 34.4009 11.6536 35.8859 11.9386 37.3186C12.2235 38.7513 12.9269 40.0674 13.9597 41.1003C14.9926 42.1332 16.3084 42.8366 17.741 43.1216C19.1736 43.4065 20.6584 43.2602 22.0078 42.7012C23.3573 42.1422 24.5106 41.1955 25.3221 39.9809C26.1335 38.7662 26.5666 37.3383 26.5666 35.8775C26.5644 33.9193 25.7856 32.042 24.4011 30.6574C23.0166 29.2728 21.1395 28.494 19.1816 28.4919ZM19.1816 41.0868C18.1514 41.0868 17.1444 40.7813 16.2878 40.2089C15.4312 39.6365 14.7636 38.8229 14.3694 37.871C13.9751 36.9191 13.872 35.8717 14.073 34.8612C14.2739 33.8507 14.77 32.9225 15.4985 32.1939C16.2269 31.4654 17.155 30.9692 18.1654 30.7682C19.1758 30.5672 20.2231 30.6704 21.1749 31.0647C22.1267 31.459 22.9402 32.1266 23.5125 32.9833C24.0849 33.84 24.3904 34.8472 24.3904 35.8775C24.389 37.2587 23.8398 38.583 22.8633 39.5598C21.8868 40.5366 20.5627 41.086 19.1816 41.0875V41.0868Z"/>
<path d="M31.8762 52.9951H59.0788C59.3673 52.9951 59.6441 52.8805 59.8482 52.6764C60.0522 52.4723 60.1669 52.1955 60.1669 51.9069C60.1669 51.6183 60.0522 51.3415 59.8482 51.1374C59.6441 50.9333 59.3673 50.8187 59.0788 50.8187H31.8762C31.5876 50.8187 31.3108 50.9333 31.1068 51.1374C30.9027 51.3415 30.7881 51.6183 30.7881 51.9069C30.7881 52.1955 30.9027 52.4723 31.1068 52.6764C31.3108 52.8805 31.5876 52.9951 31.8762 52.9951Z"/>
<path d="M20.8889 51.7054L18.4713 54.017L17.4907 53.0363C17.3902 52.933 17.2701 52.8507 17.1375 52.7942C17.0049 52.7377 16.8624 52.7081 16.7183 52.7071C16.5742 52.7061 16.4313 52.7338 16.2979 52.7885C16.1646 52.8433 16.0434 52.9239 15.9415 53.0259C15.8396 53.1278 15.759 53.249 15.7043 53.3823C15.6496 53.5157 15.6219 53.6586 15.6229 53.8028C15.6239 53.9469 15.6535 54.0894 15.71 54.222C15.7665 54.3546 15.8488 54.4747 15.9521 54.5752L17.6849 56.3084C17.886 56.5095 18.1578 56.6239 18.4421 56.6271C18.7265 56.6302 19.0008 56.522 19.2063 56.3255L22.3928 53.2784C22.4971 53.1799 22.5808 53.0617 22.6393 52.9307C22.6977 52.7997 22.7297 52.6584 22.7333 52.515C22.737 52.3716 22.7122 52.2289 22.6605 52.0951C22.6088 51.9613 22.5311 51.839 22.432 51.7353C22.3329 51.6316 22.2142 51.5486 22.0829 51.4909C21.9515 51.4332 21.8101 51.4021 21.6667 51.3993C21.5232 51.3966 21.3807 51.4222 21.2472 51.4747C21.1137 51.5272 20.9919 51.6056 20.8889 51.7054Z"/>
<path d="M19.1816 46.629C17.721 46.629 16.2932 47.0622 15.0787 47.8737C13.8643 48.6853 12.9177 49.8388 12.3588 51.1884C11.7998 52.538 11.6536 54.023 11.9386 55.4557C12.2235 56.8885 12.9269 58.2045 13.9597 59.2374C14.9926 60.2703 16.3084 60.9737 17.741 61.2587C19.1736 61.5436 20.6584 61.3974 22.0078 60.8383C23.3573 60.2793 24.5106 59.3326 25.3221 58.118C26.1335 56.9034 26.5666 55.4754 26.5666 54.0146C26.5644 52.0565 25.7856 50.1792 24.4011 48.7946C23.0166 47.41 21.1395 46.6311 19.1816 46.629ZM19.1816 59.2239C18.1514 59.2239 17.1444 58.9184 16.2878 58.346C15.4312 57.7736 14.7636 56.96 14.3694 56.0081C13.9751 55.0562 13.872 54.0088 14.073 52.9983C14.2739 51.9878 14.77 51.0596 15.4985 50.331C16.2269 49.6025 17.155 49.1064 18.1654 48.9054C19.1758 48.7043 20.2231 48.8075 21.1749 49.2018C22.1267 49.5961 22.9402 50.2638 23.5125 51.1204C24.0849 51.9771 24.3904 52.9843 24.3904 54.0146C24.389 55.3959 23.8398 56.7202 22.8633 57.6969C21.8868 58.6737 20.5627 59.2231 19.1816 59.2247V59.2239Z"/>
<path d="M20.8889 69.8425L18.4713 72.1541L17.4907 71.1734C17.3902 71.0701 17.2701 70.9878 17.1375 70.9313C17.0049 70.8748 16.8624 70.8452 16.7183 70.8442C16.5742 70.8433 16.4313 70.8709 16.2979 70.9257C16.1646 70.9804 16.0434 71.061 15.9415 71.163C15.8396 71.2649 15.759 71.3861 15.7043 71.5195C15.6496 71.6528 15.6219 71.7957 15.6229 71.9399C15.6239 72.084 15.6535 72.2265 15.71 72.3591C15.7665 72.4918 15.8488 72.6118 15.9521 72.7123L17.6849 74.4455C17.886 74.6466 18.1578 74.761 18.4421 74.7642C18.7265 74.7674 19.0008 74.6591 19.2063 74.4626L22.3928 71.4155C22.4971 71.317 22.5808 71.1989 22.6393 71.0678C22.6977 70.9368 22.7297 70.7955 22.7333 70.6521C22.737 70.5087 22.7122 70.366 22.6605 70.2322C22.6088 70.0984 22.5311 69.9761 22.432 69.8724C22.3329 69.7687 22.2142 69.6857 22.0829 69.628C21.9515 69.5704 21.8101 69.5392 21.6667 69.5365C21.5232 69.5337 21.3807 69.5593 21.2472 69.6118C21.1137 69.6643 20.9919 69.7427 20.8889 69.8425Z"/>
<path d="M19.1816 64.7661C17.721 64.7661 16.2932 65.1993 15.0787 66.0108C13.8643 66.8224 12.9177 67.9759 12.3588 69.3255C11.7998 70.6751 11.6536 72.1602 11.9386 73.5929C12.2235 75.0256 12.9269 76.3416 13.9597 77.3745C14.9926 78.4074 16.3084 79.1108 17.741 79.3958C19.1736 79.6808 20.6584 79.5345 22.0078 78.9754C23.3573 78.4164 24.5106 77.4697 25.3221 76.2551C26.1335 75.0405 26.5666 73.6125 26.5666 72.1517C26.5644 70.1936 25.7856 68.3163 24.4011 66.9317C23.0166 65.5471 21.1395 64.7683 19.1816 64.7661ZM19.1816 77.3611C18.1514 77.3611 17.1444 77.0555 16.2878 76.4831C15.4312 75.9107 14.7636 75.0971 14.3694 74.1452C13.9751 73.1934 13.872 72.1459 14.073 71.1354C14.2739 70.1249 14.77 69.1967 15.4985 68.4682C16.2269 67.7396 17.155 67.2435 18.1654 67.0425C19.1758 66.8415 20.2231 66.9446 21.1749 67.3389C22.1267 67.7332 22.9402 68.4009 23.5125 69.2576C24.0849 70.1142 24.3904 71.1214 24.3904 72.1517C24.389 73.533 23.8398 74.8573 22.8633 75.8341C21.8868 76.8108 20.5627 77.3603 19.1816 77.3618V77.3611Z"/>
<path d="M31.8762 38.4854H46.3842C46.6728 38.4854 46.9496 38.3708 47.1536 38.1667C47.3577 37.9626 47.4723 37.6858 47.4723 37.3972C47.4723 37.1086 47.3577 36.8318 47.1536 36.6277C46.9496 36.4236 46.6728 36.309 46.3842 36.309H31.8762C31.5876 36.309 31.3108 36.4236 31.1068 36.6277C30.9027 36.8318 30.7881 37.1086 30.7881 37.3972C30.7881 37.6858 30.9027 37.9626 31.1068 38.1667C31.3108 38.3708 31.5876 38.4854 31.8762 38.4854Z"/>
<path d="M31.8762 56.6225H46.3842C46.6728 56.6225 46.9496 56.5079 47.1536 56.3038C47.3577 56.0997 47.4723 55.8229 47.4723 55.5343C47.4723 55.2457 47.3577 54.9689 47.1536 54.7648C46.9496 54.5607 46.6728 54.4461 46.3842 54.4461H31.8762C31.5876 54.4461 31.3108 54.5607 31.1068 54.7648C30.9027 54.9689 30.7881 55.2457 30.7881 55.5343C30.7881 55.8229 30.9027 56.0997 31.1068 56.3038C31.3108 56.5079 31.5876 56.6225 31.8762 56.6225Z"/>
<path d="M10.2592 17.1017C9.97059 17.1017 9.69383 17.2164 9.48977 17.4205C9.28571 17.6246 9.17107 17.9014 9.17107 18.19V19.3326C9.17107 19.6212 9.28571 19.898 9.48977 20.1021C9.69383 20.3062 9.97059 20.4208 10.2592 20.4208C10.5478 20.4208 10.8245 20.3062 11.0286 20.1021C11.2326 19.898 11.3473 19.6212 11.3473 19.3326V18.19C11.3473 17.9014 11.2326 17.6246 11.0286 17.4205C10.8245 17.2164 10.5478 17.1017 10.2592 17.1017Z"/>
<path d="M10.2592 21.6888C9.97059 21.6888 9.69383 21.8035 9.48977 22.0075C9.28571 22.2116 9.17107 22.4884 9.17107 22.777V33.2966C9.17107 33.5852 9.28571 33.862 9.48977 34.0661C9.69383 34.2701 9.97059 34.3848 10.2592 34.3848C10.5478 34.3848 10.8245 34.2701 11.0286 34.0661C11.2326 33.862 11.3473 33.5852 11.3473 33.2966V22.777C11.3473 22.6341 11.3191 22.4926 11.2644 22.3606C11.2098 22.2286 11.1296 22.1086 11.0286 22.0075C10.9275 21.9065 10.8076 21.8263 10.6756 21.7716C10.5436 21.717 10.4021 21.6888 10.2592 21.6888Z"/>
<path d="M82.4859 48.5878C81.7579 48.4351 81.0069 48.4283 80.2762 48.5677C79.5456 48.7072 78.8499 48.9902 78.2294 49.4003L67.0219 56.7615V15.9274C67.0219 12.3272 64.0635 9.46602 60.4635 9.46602H53.602V6.08798C53.602 5.79937 53.4873 5.52257 53.2833 5.31849C53.0792 5.11441 52.8024 4.99976 52.5139 4.99976C52.2253 4.99976 51.9485 5.11441 51.7445 5.31849C51.5404 5.52257 51.4258 5.79937 51.4258 6.08798V9.46602H42.1769V6.08798C42.1769 5.79937 42.0622 5.52257 41.8582 5.31849C41.6541 5.11441 41.3774 4.99976 41.0888 4.99976C40.8002 4.99976 40.5234 5.11441 40.3194 5.31849C40.1153 5.52257 40.0007 5.79937 40.0007 6.08798V9.46602H30.9331V6.08798C30.9331 5.79937 30.8185 5.52257 30.6144 5.31849C30.4104 5.11441 30.1336 4.99976 29.845 4.99976C29.5565 4.99976 29.2797 5.11441 29.0756 5.31849C28.8716 5.52257 28.7569 5.79937 28.7569 6.08798V9.46602H19.5081V6.08798C19.5081 5.79937 19.3934 5.52257 19.1894 5.31849C18.9853 5.11441 18.7085 4.99976 18.4199 4.99976C18.1314 4.99976 17.8546 5.11441 17.6505 5.31849C17.4465 5.52257 17.3318 5.79937 17.3318 6.08798V9.46602H11.4989C10.647 9.45994 9.80227 9.62263 9.01354 9.94472C8.22482 10.2668 7.50767 10.7419 6.90348 11.3426C6.29929 11.9433 5.82002 12.6577 5.49332 13.4446C5.16661 14.2315 4.99895 15.0753 5 15.9274V81.4024C5 85.0028 7.89889 87.9998 11.4989 87.9998H60.4635C64.0635 87.9998 67.0219 85.0028 67.0219 81.4024V70.3088L84.4472 58.8643C85.383 58.2494 86.1155 57.3708 86.5521 56.3395C86.9886 55.3082 87.1095 54.1707 86.8996 53.0707C86.6897 51.9707 86.1583 50.9576 85.3726 50.1597C84.587 49.3617 83.5824 48.8147 82.4859 48.5878ZM52.4524 16.2809C52.8329 16.2809 53.2049 16.3937 53.5214 16.6052C53.8378 16.8166 54.0844 17.1172 54.23 17.4688C54.3757 17.8204 54.4138 18.2073 54.3395 18.5806C54.2653 18.9539 54.082 19.2968 53.8129 19.5659C53.5438 19.8351 53.201 20.0183 52.8278 20.0926C52.4545 20.1668 52.0676 20.1287 51.7161 19.9831C51.3645 19.8374 51.064 19.5908 50.8525 19.2743C50.6411 18.9579 50.5283 18.5858 50.5283 18.2052C50.5288 17.695 50.7317 17.2058 51.0924 16.8451C51.4531 16.4843 51.9422 16.2814 52.4524 16.2809ZM41.1138 16.2809C41.4943 16.2809 41.8663 16.3938 42.1827 16.6053C42.4991 16.8167 42.7457 17.1173 42.8913 17.4689C43.0369 17.8206 43.075 18.2075 43.0008 18.5807C42.9265 18.954 42.7432 19.2969 42.4741 19.566C42.205 19.8351 41.8622 20.0184 41.4889 20.0926C41.1157 20.1668 40.7288 20.1287 40.3772 19.9831C40.0257 19.8374 39.7252 19.5908 39.5137 19.2743C39.3023 18.9579 39.1895 18.5858 39.1895 18.2052C39.1901 17.695 39.393 17.2058 39.7538 16.8451C40.1145 16.4843 40.6036 16.2814 41.1138 16.2809ZM29.7749 16.2809C30.1554 16.281 30.5273 16.3939 30.8437 16.6054C31.16 16.817 31.4066 17.1175 31.5521 17.4692C31.6977 17.8208 31.7357 18.2077 31.6614 18.581C31.5871 18.9542 31.4038 19.2971 31.1347 19.5661C30.8656 19.8352 30.5227 20.0184 30.1495 20.0926C29.7763 20.1668 29.3894 20.1287 29.0379 19.983C28.6863 19.8374 28.3858 19.5907 28.1744 19.2743C27.963 18.9578 27.8502 18.5858 27.8502 18.2052C27.8508 17.6949 28.0537 17.2057 28.4146 16.8449C28.7754 16.4842 29.2646 16.2813 29.7749 16.2809ZM18.4363 16.2809C18.8168 16.2809 19.1888 16.3938 19.5052 16.6053C19.8216 16.8167 20.0682 17.1173 20.2138 17.4689C20.3594 17.8206 20.3975 18.2075 20.3232 18.5807C20.249 18.954 20.0657 19.2969 19.7966 19.566C19.5275 19.8351 19.1846 20.0184 18.8114 20.0926C18.4382 20.1668 18.0513 20.1287 17.6997 19.9831C17.3481 19.8374 17.0476 19.5908 16.8362 19.2743C16.6248 18.9579 16.512 18.5858 16.512 18.2052C16.5125 17.695 16.7155 17.2058 17.0762 16.8451C17.437 16.4843 17.9261 16.2814 18.4363 16.2809ZM64.8457 81.4024C64.8403 82.5666 64.3781 83.6822 63.5585 84.509C62.7389 85.3358 61.6276 85.8078 60.4635 85.8233H11.4989C9.09853 85.8233 7.17621 83.8026 7.17621 81.4024V15.9274C7.17485 15.3611 7.28602 14.8001 7.50325 14.2771C7.72048 13.7542 8.03944 13.2796 8.44162 12.8809C8.84379 12.4822 9.32116 12.1675 9.846 11.9549C10.3708 11.7423 10.9327 11.6361 11.4989 11.6425H17.3318V14.252C15.6997 14.7301 14.3278 16.3208 14.3278 18.2059C14.3278 18.7443 14.4338 19.2775 14.6398 19.7749C14.8458 20.2723 15.1478 20.7243 15.5285 21.105C15.9091 21.4857 16.3611 21.7877 16.8584 21.9937C17.3558 22.1998 17.8889 22.3058 18.4272 22.3058C18.9655 22.3058 19.4986 22.1998 19.996 21.9937C20.4934 21.7877 20.9453 21.4857 21.3259 21.105C21.7066 20.7243 22.0086 20.2723 22.2146 19.7749C22.4206 19.2775 22.5266 18.7443 22.5266 18.2059C22.5395 17.3039 22.2489 16.4236 21.7015 15.7066C21.1541 14.9895 20.3816 14.4772 19.5081 14.252V11.6425H28.7569V14.252C27.8804 14.4759 27.1041 14.9869 26.5519 15.7036C25.9997 16.4202 25.7034 17.3012 25.7102 18.2059C25.7102 19.2947 26.1427 20.3389 26.9125 21.1087C27.6823 21.8786 28.7263 22.3111 29.8149 22.3111C30.9036 22.3111 31.9476 21.8786 32.7174 21.1087C33.4872 20.3389 33.9196 19.2947 33.9196 18.2059C33.9042 17.3156 33.6067 16.4532 33.07 15.7427C32.5334 15.0322 31.7852 14.5103 30.9331 14.252V11.6425H40.0007V14.252C38.3685 14.7301 37.0009 16.3208 37.0009 18.2059C37.0009 19.2931 37.4328 20.3357 38.2014 21.1044C38.97 21.8731 40.0125 22.3049 41.0995 22.3049C42.1865 22.3049 43.2289 21.8731 43.9976 21.1044C44.7662 20.3357 45.198 19.2931 45.198 18.2059C45.2103 17.3036 44.9191 16.4234 44.3713 15.7064C43.8234 14.9894 43.0506 14.4772 42.1769 14.252V11.6425H51.4258V14.252C50.5495 14.4759 49.7737 14.9871 49.2221 15.7038C48.6705 16.4206 48.375 17.3015 48.3829 18.2059C48.3829 19.2945 48.8153 20.3386 49.5849 21.1083C50.3546 21.8781 51.3985 22.3106 52.487 22.3106C53.5755 22.3106 54.6194 21.8781 55.3891 21.1083C56.1588 20.3386 56.5912 19.2945 56.5912 18.2059C56.5912 16.3215 55.2341 14.7309 53.602 14.252V11.6425H60.4635C62.8634 11.6425 64.8457 13.5273 64.8457 15.9274V58.1907L60.7586 60.875C60.6331 60.9575 60.526 61.0651 60.4441 61.1911C60.3622 61.317 60.3072 61.4586 60.2827 61.6068C60.2582 61.755 60.2646 61.9067 60.3016 62.0523C60.3386 62.198 60.4053 62.3343 60.4976 62.4529C60.6657 62.6685 60.9087 62.813 61.1784 62.8576C61.4481 62.9022 61.7247 62.8436 61.9532 62.6936L78.1329 52.0672L79.449 54.0706L52.0365 72.0754L50.7201 70.0718L55.8705 66.6897C55.9899 66.6113 56.0928 66.5101 56.1731 66.3919C56.2534 66.2737 56.3097 66.1408 56.3387 66.0009C56.3677 65.861 56.3689 65.7167 56.3421 65.5763C56.3153 65.4359 56.2612 65.3022 56.1828 65.1827C56.1043 65.0633 56.0031 64.9604 55.885 64.8801C55.7668 64.7997 55.6339 64.7434 55.494 64.7144C55.3541 64.6854 55.2098 64.6843 55.0695 64.711C54.9291 64.7378 54.7954 64.792 54.6759 64.8704L48.6208 68.847C48.6097 68.8544 48.5996 68.8636 48.5883 68.8714C48.5608 68.891 48.5339 68.9106 48.5075 68.9327C48.4988 68.94 48.4911 68.9483 48.483 68.956H31.8762C31.5876 68.956 31.3108 69.0706 31.1068 69.2747C30.9027 69.4788 30.7881 69.7556 30.7881 70.0442C30.7881 70.3328 30.9027 70.6096 31.1068 70.8137C31.3108 71.0178 31.5876 71.1324 31.8762 71.1324H47.2565L46.4859 72.5885C46.4524 72.5854 46.4187 72.5834 46.3842 72.5834H31.8762C31.5876 72.5834 31.3108 72.698 31.1068 72.9021C30.9027 73.1062 30.7881 73.383 30.7881 73.6716C30.7881 73.9602 30.9027 74.237 31.1068 74.4411C31.3108 74.6452 31.5876 74.7598 31.8762 74.7598H45.3369L44.0789 77.1367C43.9911 77.3025 43.9477 77.4882 43.9529 77.6757C43.958 77.8632 44.0115 78.0462 44.1083 78.2069C44.205 78.3677 44.3416 78.5007 44.5049 78.593C44.6681 78.6854 44.8525 78.734 45.04 78.734C45.0496 78.734 45.0593 78.734 45.0687 78.734L54.2644 78.493C54.2867 78.493 54.3087 78.4886 54.3308 78.4868C54.3529 78.485 54.3781 78.4838 54.4017 78.4801C54.4306 78.4758 54.4585 78.4683 54.4864 78.462C54.5071 78.4571 54.5279 78.4536 54.5486 78.4475C54.5961 78.4332 54.6426 78.4157 54.6877 78.3951C54.6988 78.3902 54.7091 78.3833 54.72 78.3769C54.7552 78.3598 54.7895 78.3408 54.8226 78.32C54.8263 78.3176 54.8301 78.3163 54.8333 78.314L64.8457 71.7382V81.4024ZM52.2529 76.3681L46.8728 76.509L49.3141 71.8953L52.2529 76.3681ZM54.5479 75.8978L53.2311 73.8947L80.6435 55.8909L81.9598 57.8941L54.5479 75.8978ZM83.7477 56.6507L79.9836 50.9213C80.4474 50.7262 80.9476 50.6331 81.4505 50.6483C81.9534 50.6634 82.4472 50.7865 82.8984 51.0091C83.1598 51.1349 83.4023 51.2966 83.6189 51.4896C83.9856 51.8081 84.2819 52.1995 84.4889 52.639C84.6959 53.0784 84.8091 53.5561 84.8212 54.0417C84.8333 54.5273 84.7441 55.0101 84.5593 55.4593C84.3744 55.9085 84.098 56.3142 83.7477 56.6507Z"/>
</mask>
<path d="M31.8762 34.858H59.0788C59.3673 34.858 59.6441 34.7433 59.8482 34.5393C60.0522 34.3352 60.1669 34.0584 60.1669 33.7698C60.1669 33.4811 60.0522 33.2044 59.8482 33.0003C59.6441 32.7962 59.3673 32.6815 59.0788 32.6815H31.8762C31.5876 32.6815 31.3108 32.7962 31.1068 33.0003C30.9027 33.2044 30.7881 33.4811 30.7881 33.7698C30.7881 34.0584 30.9027 34.3352 31.1068 34.5393C31.3108 34.7433 31.5876 34.858 31.8762 34.858Z" fill="#FF1515"/>
<path d="M20.8889 33.5683L18.4713 35.8798L17.4907 34.8992C17.3902 34.7959 17.2701 34.7136 17.1375 34.6571C17.0049 34.6006 16.8624 34.571 16.7183 34.57C16.5742 34.569 16.4313 34.5967 16.2979 34.6514C16.1646 34.7061 16.0434 34.7868 15.9415 34.8887C15.8396 34.9907 15.759 35.1118 15.7043 35.2452C15.6496 35.3786 15.6219 35.5215 15.6229 35.6656C15.6239 35.8098 15.6535 35.9523 15.71 36.0849C15.7665 36.2175 15.8488 36.3376 15.9521 36.4381L17.6849 38.1713C17.886 38.3724 18.1578 38.4867 18.4421 38.4899C18.7265 38.4931 19.0008 38.3849 19.2063 38.1883L22.3928 35.1413C22.4971 35.0428 22.5808 34.9246 22.6393 34.7936C22.6977 34.6626 22.7297 34.5213 22.7333 34.3779C22.737 34.2345 22.7122 34.0918 22.6605 33.9579C22.6088 33.8241 22.5311 33.7019 22.432 33.5982C22.3329 33.4945 22.2142 33.4114 22.0829 33.3538C21.9515 33.2961 21.8101 33.265 21.6667 33.2622C21.5232 33.2594 21.3807 33.2851 21.2472 33.3376C21.1137 33.3901 20.9919 33.4685 20.8889 33.5683Z" fill="#FF1515"/>
<path d="M19.1816 28.4919C17.721 28.4919 16.2932 28.925 15.0787 29.7366C13.8643 30.5482 12.9177 31.7017 12.3588 33.0513C11.7998 34.4009 11.6536 35.8859 11.9386 37.3186C12.2235 38.7513 12.9269 40.0674 13.9597 41.1003C14.9926 42.1332 16.3084 42.8366 17.741 43.1216C19.1736 43.4065 20.6584 43.2602 22.0078 42.7012C23.3573 42.1422 24.5106 41.1955 25.3221 39.9809C26.1335 38.7662 26.5666 37.3383 26.5666 35.8775C26.5644 33.9193 25.7856 32.042 24.4011 30.6574C23.0166 29.2728 21.1395 28.494 19.1816 28.4919ZM19.1816 41.0868C18.1514 41.0868 17.1444 40.7813 16.2878 40.2089C15.4312 39.6365 14.7636 38.8229 14.3694 37.871C13.9751 36.9191 13.872 35.8717 14.073 34.8612C14.2739 33.8507 14.77 32.9225 15.4985 32.1939C16.2269 31.4654 17.155 30.9692 18.1654 30.7682C19.1758 30.5672 20.2231 30.6704 21.1749 31.0647C22.1267 31.459 22.9402 32.1266 23.5125 32.9833C24.0849 33.84 24.3904 34.8472 24.3904 35.8775C24.389 37.2587 23.8398 38.583 22.8633 39.5598C21.8868 40.5366 20.5627 41.086 19.1816 41.0875V41.0868Z" fill="#FF1515"/>
<path d="M31.8762 52.9951H59.0788C59.3673 52.9951 59.6441 52.8805 59.8482 52.6764C60.0522 52.4723 60.1669 52.1955 60.1669 51.9069C60.1669 51.6183 60.0522 51.3415 59.8482 51.1374C59.6441 50.9333 59.3673 50.8187 59.0788 50.8187H31.8762C31.5876 50.8187 31.3108 50.9333 31.1068 51.1374C30.9027 51.3415 30.7881 51.6183 30.7881 51.9069C30.7881 52.1955 30.9027 52.4723 31.1068 52.6764C31.3108 52.8805 31.5876 52.9951 31.8762 52.9951Z" fill="#FF1515"/>
<path d="M20.8889 51.7054L18.4713 54.017L17.4907 53.0363C17.3902 52.933 17.2701 52.8507 17.1375 52.7942C17.0049 52.7377 16.8624 52.7081 16.7183 52.7071C16.5742 52.7061 16.4313 52.7338 16.2979 52.7885C16.1646 52.8433 16.0434 52.9239 15.9415 53.0259C15.8396 53.1278 15.759 53.249 15.7043 53.3823C15.6496 53.5157 15.6219 53.6586 15.6229 53.8028C15.6239 53.9469 15.6535 54.0894 15.71 54.222C15.7665 54.3546 15.8488 54.4747 15.9521 54.5752L17.6849 56.3084C17.886 56.5095 18.1578 56.6239 18.4421 56.6271C18.7265 56.6302 19.0008 56.522 19.2063 56.3255L22.3928 53.2784C22.4971 53.1799 22.5808 53.0617 22.6393 52.9307C22.6977 52.7997 22.7297 52.6584 22.7333 52.515C22.737 52.3716 22.7122 52.2289 22.6605 52.0951C22.6088 51.9613 22.5311 51.839 22.432 51.7353C22.3329 51.6316 22.2142 51.5486 22.0829 51.4909C21.9515 51.4332 21.8101 51.4021 21.6667 51.3993C21.5232 51.3966 21.3807 51.4222 21.2472 51.4747C21.1137 51.5272 20.9919 51.6056 20.8889 51.7054Z" fill="#FF1515"/>
<path d="M19.1816 46.629C17.721 46.629 16.2932 47.0622 15.0787 47.8737C13.8643 48.6853 12.9177 49.8388 12.3588 51.1884C11.7998 52.538 11.6536 54.023 11.9386 55.4557C12.2235 56.8885 12.9269 58.2045 13.9597 59.2374C14.9926 60.2703 16.3084 60.9737 17.741 61.2587C19.1736 61.5436 20.6584 61.3974 22.0078 60.8383C23.3573 60.2793 24.5106 59.3326 25.3221 58.118C26.1335 56.9034 26.5666 55.4754 26.5666 54.0146C26.5644 52.0565 25.7856 50.1792 24.4011 48.7946C23.0166 47.41 21.1395 46.6311 19.1816 46.629ZM19.1816 59.2239C18.1514 59.2239 17.1444 58.9184 16.2878 58.346C15.4312 57.7736 14.7636 56.96 14.3694 56.0081C13.9751 55.0562 13.872 54.0088 14.073 52.9983C14.2739 51.9878 14.77 51.0596 15.4985 50.331C16.2269 49.6025 17.155 49.1064 18.1654 48.9054C19.1758 48.7043 20.2231 48.8075 21.1749 49.2018C22.1267 49.5961 22.9402 50.2638 23.5125 51.1204C24.0849 51.9771 24.3904 52.9843 24.3904 54.0146C24.389 55.3959 23.8398 56.7202 22.8633 57.6969C21.8868 58.6737 20.5627 59.2231 19.1816 59.2247V59.2239Z" fill="#FF1515"/>
<path d="M20.8889 69.8425L18.4713 72.1541L17.4907 71.1734C17.3902 71.0701 17.2701 70.9878 17.1375 70.9313C17.0049 70.8748 16.8624 70.8452 16.7183 70.8442C16.5742 70.8433 16.4313 70.8709 16.2979 70.9257C16.1646 70.9804 16.0434 71.061 15.9415 71.163C15.8396 71.2649 15.759 71.3861 15.7043 71.5195C15.6496 71.6528 15.6219 71.7957 15.6229 71.9399C15.6239 72.084 15.6535 72.2265 15.71 72.3591C15.7665 72.4918 15.8488 72.6118 15.9521 72.7123L17.6849 74.4455C17.886 74.6466 18.1578 74.761 18.4421 74.7642C18.7265 74.7674 19.0008 74.6591 19.2063 74.4626L22.3928 71.4155C22.4971 71.317 22.5808 71.1989 22.6393 71.0678C22.6977 70.9368 22.7297 70.7955 22.7333 70.6521C22.737 70.5087 22.7122 70.366 22.6605 70.2322C22.6088 70.0984 22.5311 69.9761 22.432 69.8724C22.3329 69.7687 22.2142 69.6857 22.0829 69.628C21.9515 69.5704 21.8101 69.5392 21.6667 69.5365C21.5232 69.5337 21.3807 69.5593 21.2472 69.6118C21.1137 69.6643 20.9919 69.7427 20.8889 69.8425Z" fill="#FF1515"/>
<path d="M19.1816 64.7661C17.721 64.7661 16.2932 65.1993 15.0787 66.0108C13.8643 66.8224 12.9177 67.9759 12.3588 69.3255C11.7998 70.6751 11.6536 72.1602 11.9386 73.5929C12.2235 75.0256 12.9269 76.3416 13.9597 77.3745C14.9926 78.4074 16.3084 79.1108 17.741 79.3958C19.1736 79.6808 20.6584 79.5345 22.0078 78.9754C23.3573 78.4164 24.5106 77.4697 25.3221 76.2551C26.1335 75.0405 26.5666 73.6125 26.5666 72.1517C26.5644 70.1936 25.7856 68.3163 24.4011 66.9317C23.0166 65.5471 21.1395 64.7683 19.1816 64.7661ZM19.1816 77.3611C18.1514 77.3611 17.1444 77.0555 16.2878 76.4831C15.4312 75.9107 14.7636 75.0971 14.3694 74.1452C13.9751 73.1934 13.872 72.1459 14.073 71.1354C14.2739 70.1249 14.77 69.1967 15.4985 68.4682C16.2269 67.7396 17.155 67.2435 18.1654 67.0425C19.1758 66.8415 20.2231 66.9446 21.1749 67.3389C22.1267 67.7332 22.9402 68.4009 23.5125 69.2576C24.0849 70.1142 24.3904 71.1214 24.3904 72.1517C24.389 73.533 23.8398 74.8573 22.8633 75.8341C21.8868 76.8108 20.5627 77.3603 19.1816 77.3618V77.3611Z" fill="#FF1515"/>
<path d="M31.8762 38.4854H46.3842C46.6728 38.4854 46.9496 38.3708 47.1536 38.1667C47.3577 37.9626 47.4723 37.6858 47.4723 37.3972C47.4723 37.1086 47.3577 36.8318 47.1536 36.6277C46.9496 36.4236 46.6728 36.309 46.3842 36.309H31.8762C31.5876 36.309 31.3108 36.4236 31.1068 36.6277C30.9027 36.8318 30.7881 37.1086 30.7881 37.3972C30.7881 37.6858 30.9027 37.9626 31.1068 38.1667C31.3108 38.3708 31.5876 38.4854 31.8762 38.4854Z" fill="#FF1515"/>
<path d="M31.8762 56.6225H46.3842C46.6728 56.6225 46.9496 56.5079 47.1536 56.3038C47.3577 56.0997 47.4723 55.8229 47.4723 55.5343C47.4723 55.2457 47.3577 54.9689 47.1536 54.7648C46.9496 54.5607 46.6728 54.4461 46.3842 54.4461H31.8762C31.5876 54.4461 31.3108 54.5607 31.1068 54.7648C30.9027 54.9689 30.7881 55.2457 30.7881 55.5343C30.7881 55.8229 30.9027 56.0997 31.1068 56.3038C31.3108 56.5079 31.5876 56.6225 31.8762 56.6225Z" fill="#FF1515"/>
<path d="M10.2592 17.1017C9.97059 17.1017 9.69383 17.2164 9.48977 17.4205C9.28571 17.6246 9.17107 17.9014 9.17107 18.19V19.3326C9.17107 19.6212 9.28571 19.898 9.48977 20.1021C9.69383 20.3062 9.97059 20.4208 10.2592 20.4208C10.5478 20.4208 10.8245 20.3062 11.0286 20.1021C11.2326 19.898 11.3473 19.6212 11.3473 19.3326V18.19C11.3473 17.9014 11.2326 17.6246 11.0286 17.4205C10.8245 17.2164 10.5478 17.1017 10.2592 17.1017Z" fill="#FF1515"/>
<path d="M10.2592 21.6888C9.97059 21.6888 9.69383 21.8035 9.48977 22.0075C9.28571 22.2116 9.17107 22.4884 9.17107 22.777V33.2966C9.17107 33.5852 9.28571 33.862 9.48977 34.0661C9.69383 34.2701 9.97059 34.3848 10.2592 34.3848C10.5478 34.3848 10.8245 34.2701 11.0286 34.0661C11.2326 33.862 11.3473 33.5852 11.3473 33.2966V22.777C11.3473 22.6341 11.3191 22.4926 11.2644 22.3606C11.2098 22.2286 11.1296 22.1086 11.0286 22.0075C10.9275 21.9065 10.8076 21.8263 10.6756 21.7716C10.5436 21.717 10.4021 21.6888 10.2592 21.6888Z" fill="#FF1515"/>
<path d="M82.4859 48.5878C81.7579 48.4351 81.0069 48.4283 80.2762 48.5677C79.5456 48.7072 78.8499 48.9902 78.2294 49.4003L67.0219 56.7615V15.9274C67.0219 12.3272 64.0635 9.46602 60.4635 9.46602H53.602V6.08798C53.602 5.79937 53.4873 5.52257 53.2833 5.31849C53.0792 5.11441 52.8024 4.99976 52.5139 4.99976C52.2253 4.99976 51.9485 5.11441 51.7445 5.31849C51.5404 5.52257 51.4258 5.79937 51.4258 6.08798V9.46602H42.1769V6.08798C42.1769 5.79937 42.0622 5.52257 41.8582 5.31849C41.6541 5.11441 41.3774 4.99976 41.0888 4.99976C40.8002 4.99976 40.5234 5.11441 40.3194 5.31849C40.1153 5.52257 40.0007 5.79937 40.0007 6.08798V9.46602H30.9331V6.08798C30.9331 5.79937 30.8185 5.52257 30.6144 5.31849C30.4104 5.11441 30.1336 4.99976 29.845 4.99976C29.5565 4.99976 29.2797 5.11441 29.0756 5.31849C28.8716 5.52257 28.7569 5.79937 28.7569 6.08798V9.46602H19.5081V6.08798C19.5081 5.79937 19.3934 5.52257 19.1894 5.31849C18.9853 5.11441 18.7085 4.99976 18.4199 4.99976C18.1314 4.99976 17.8546 5.11441 17.6505 5.31849C17.4465 5.52257 17.3318 5.79937 17.3318 6.08798V9.46602H11.4989C10.647 9.45994 9.80227 9.62263 9.01354 9.94472C8.22482 10.2668 7.50767 10.7419 6.90348 11.3426C6.29929 11.9433 5.82002 12.6577 5.49332 13.4446C5.16661 14.2315 4.99895 15.0753 5 15.9274V81.4024C5 85.0028 7.89889 87.9998 11.4989 87.9998H60.4635C64.0635 87.9998 67.0219 85.0028 67.0219 81.4024V70.3088L84.4472 58.8643C85.383 58.2494 86.1155 57.3708 86.5521 56.3395C86.9886 55.3082 87.1095 54.1707 86.8996 53.0707C86.6897 51.9707 86.1583 50.9576 85.3726 50.1597C84.587 49.3617 83.5824 48.8147 82.4859 48.5878ZM52.4524 16.2809C52.8329 16.2809 53.2049 16.3937 53.5214 16.6052C53.8378 16.8166 54.0844 17.1172 54.23 17.4688C54.3757 17.8204 54.4138 18.2073 54.3395 18.5806C54.2653 18.9539 54.082 19.2968 53.8129 19.5659C53.5438 19.8351 53.201 20.0183 52.8278 20.0926C52.4545 20.1668 52.0676 20.1287 51.7161 19.9831C51.3645 19.8374 51.064 19.5908 50.8525 19.2743C50.6411 18.9579 50.5283 18.5858 50.5283 18.2052C50.5288 17.695 50.7317 17.2058 51.0924 16.8451C51.4531 16.4843 51.9422 16.2814 52.4524 16.2809ZM41.1138 16.2809C41.4943 16.2809 41.8663 16.3938 42.1827 16.6053C42.4991 16.8167 42.7457 17.1173 42.8913 17.4689C43.0369 17.8206 43.075 18.2075 43.0008 18.5807C42.9265 18.954 42.7432 19.2969 42.4741 19.566C42.205 19.8351 41.8622 20.0184 41.4889 20.0926C41.1157 20.1668 40.7288 20.1287 40.3772 19.9831C40.0257 19.8374 39.7252 19.5908 39.5137 19.2743C39.3023 18.9579 39.1895 18.5858 39.1895 18.2052C39.1901 17.695 39.393 17.2058 39.7538 16.8451C40.1145 16.4843 40.6036 16.2814 41.1138 16.2809ZM29.7749 16.2809C30.1554 16.281 30.5273 16.3939 30.8437 16.6054C31.16 16.817 31.4066 17.1175 31.5521 17.4692C31.6977 17.8208 31.7357 18.2077 31.6614 18.581C31.5871 18.9542 31.4038 19.2971 31.1347 19.5661C30.8656 19.8352 30.5227 20.0184 30.1495 20.0926C29.7763 20.1668 29.3894 20.1287 29.0379 19.983C28.6863 19.8374 28.3858 19.5907 28.1744 19.2743C27.963 18.9578 27.8502 18.5858 27.8502 18.2052C27.8508 17.6949 28.0537 17.2057 28.4146 16.8449C28.7754 16.4842 29.2646 16.2813 29.7749 16.2809ZM18.4363 16.2809C18.8168 16.2809 19.1888 16.3938 19.5052 16.6053C19.8216 16.8167 20.0682 17.1173 20.2138 17.4689C20.3594 17.8206 20.3975 18.2075 20.3232 18.5807C20.249 18.954 20.0657 19.2969 19.7966 19.566C19.5275 19.8351 19.1846 20.0184 18.8114 20.0926C18.4382 20.1668 18.0513 20.1287 17.6997 19.9831C17.3481 19.8374 17.0476 19.5908 16.8362 19.2743C16.6248 18.9579 16.512 18.5858 16.512 18.2052C16.5125 17.695 16.7155 17.2058 17.0762 16.8451C17.437 16.4843 17.9261 16.2814 18.4363 16.2809ZM64.8457 81.4024C64.8403 82.5666 64.3781 83.6822 63.5585 84.509C62.7389 85.3358 61.6276 85.8078 60.4635 85.8233H11.4989C9.09853 85.8233 7.17621 83.8026 7.17621 81.4024V15.9274C7.17485 15.3611 7.28602 14.8001 7.50325 14.2771C7.72048 13.7542 8.03944 13.2796 8.44162 12.8809C8.84379 12.4822 9.32116 12.1675 9.846 11.9549C10.3708 11.7423 10.9327 11.6361 11.4989 11.6425H17.3318V14.252C15.6997 14.7301 14.3278 16.3208 14.3278 18.2059C14.3278 18.7443 14.4338 19.2775 14.6398 19.7749C14.8458 20.2723 15.1478 20.7243 15.5285 21.105C15.9091 21.4857 16.3611 21.7877 16.8584 21.9937C17.3558 22.1998 17.8889 22.3058 18.4272 22.3058C18.9655 22.3058 19.4986 22.1998 19.996 21.9937C20.4934 21.7877 20.9453 21.4857 21.3259 21.105C21.7066 20.7243 22.0086 20.2723 22.2146 19.7749C22.4206 19.2775 22.5266 18.7443 22.5266 18.2059C22.5395 17.3039 22.2489 16.4236 21.7015 15.7066C21.1541 14.9895 20.3816 14.4772 19.5081 14.252V11.6425H28.7569V14.252C27.8804 14.4759 27.1041 14.9869 26.5519 15.7036C25.9997 16.4202 25.7034 17.3012 25.7102 18.2059C25.7102 19.2947 26.1427 20.3389 26.9125 21.1087C27.6823 21.8786 28.7263 22.3111 29.8149 22.3111C30.9036 22.3111 31.9476 21.8786 32.7174 21.1087C33.4872 20.3389 33.9196 19.2947 33.9196 18.2059C33.9042 17.3156 33.6067 16.4532 33.07 15.7427C32.5334 15.0322 31.7852 14.5103 30.9331 14.252V11.6425H40.0007V14.252C38.3685 14.7301 37.0009 16.3208 37.0009 18.2059C37.0009 19.2931 37.4328 20.3357 38.2014 21.1044C38.97 21.8731 40.0125 22.3049 41.0995 22.3049C42.1865 22.3049 43.2289 21.8731 43.9976 21.1044C44.7662 20.3357 45.198 19.2931 45.198 18.2059C45.2103 17.3036 44.9191 16.4234 44.3713 15.7064C43.8234 14.9894 43.0506 14.4772 42.1769 14.252V11.6425H51.4258V14.252C50.5495 14.4759 49.7737 14.9871 49.2221 15.7038C48.6705 16.4206 48.375 17.3015 48.3829 18.2059C48.3829 19.2945 48.8153 20.3386 49.5849 21.1083C50.3546 21.8781 51.3985 22.3106 52.487 22.3106C53.5755 22.3106 54.6194 21.8781 55.3891 21.1083C56.1588 20.3386 56.5912 19.2945 56.5912 18.2059C56.5912 16.3215 55.2341 14.7309 53.602 14.252V11.6425H60.4635C62.8634 11.6425 64.8457 13.5273 64.8457 15.9274V58.1907L60.7586 60.875C60.6331 60.9575 60.526 61.0651 60.4441 61.1911C60.3622 61.317 60.3072 61.4586 60.2827 61.6068C60.2582 61.755 60.2646 61.9067 60.3016 62.0523C60.3386 62.198 60.4053 62.3343 60.4976 62.4529C60.6657 62.6685 60.9087 62.813 61.1784 62.8576C61.4481 62.9022 61.7247 62.8436 61.9532 62.6936L78.1329 52.0672L79.449 54.0706L52.0365 72.0754L50.7201 70.0718L55.8705 66.6897C55.9899 66.6113 56.0928 66.5101 56.1731 66.3919C56.2534 66.2737 56.3097 66.1408 56.3387 66.0009C56.3677 65.861 56.3689 65.7167 56.3421 65.5763C56.3153 65.4359 56.2612 65.3022 56.1828 65.1827C56.1043 65.0633 56.0031 64.9604 55.885 64.8801C55.7668 64.7997 55.6339 64.7434 55.494 64.7144C55.3541 64.6854 55.2098 64.6843 55.0695 64.711C54.9291 64.7378 54.7954 64.792 54.6759 64.8704L48.6208 68.847C48.6097 68.8544 48.5996 68.8636 48.5883 68.8714C48.5608 68.891 48.5339 68.9106 48.5075 68.9327C48.4988 68.94 48.4911 68.9483 48.483 68.956H31.8762C31.5876 68.956 31.3108 69.0706 31.1068 69.2747C30.9027 69.4788 30.7881 69.7556 30.7881 70.0442C30.7881 70.3328 30.9027 70.6096 31.1068 70.8137C31.3108 71.0178 31.5876 71.1324 31.8762 71.1324H47.2565L46.4859 72.5885C46.4524 72.5854 46.4187 72.5834 46.3842 72.5834H31.8762C31.5876 72.5834 31.3108 72.698 31.1068 72.9021C30.9027 73.1062 30.7881 73.383 30.7881 73.6716C30.7881 73.9602 30.9027 74.237 31.1068 74.4411C31.3108 74.6452 31.5876 74.7598 31.8762 74.7598H45.3369L44.0789 77.1367C43.9911 77.3025 43.9477 77.4882 43.9529 77.6757C43.958 77.8632 44.0115 78.0462 44.1083 78.2069C44.205 78.3677 44.3416 78.5007 44.5049 78.593C44.6681 78.6854 44.8525 78.734 45.04 78.734C45.0496 78.734 45.0593 78.734 45.0687 78.734L54.2644 78.493C54.2867 78.493 54.3087 78.4886 54.3308 78.4868C54.3529 78.485 54.3781 78.4838 54.4017 78.4801C54.4306 78.4758 54.4585 78.4683 54.4864 78.462C54.5071 78.4571 54.5279 78.4536 54.5486 78.4475C54.5961 78.4332 54.6426 78.4157 54.6877 78.3951C54.6988 78.3902 54.7091 78.3833 54.72 78.3769C54.7552 78.3598 54.7895 78.3408 54.8226 78.32C54.8263 78.3176 54.8301 78.3163 54.8333 78.314L64.8457 71.7382V81.4024ZM52.2529 76.3681L46.8728 76.509L49.3141 71.8953L52.2529 76.3681ZM54.5479 75.8978L53.2311 73.8947L80.6435 55.8909L81.9598 57.8941L54.5479 75.8978ZM83.7477 56.6507L79.9836 50.9213C80.4474 50.7262 80.9476 50.6331 81.4505 50.6483C81.9534 50.6634 82.4472 50.7865 82.8984 51.0091C83.1598 51.1349 83.4023 51.2966 83.6189 51.4896C83.9856 51.8081 84.2819 52.1995 84.4889 52.639C84.6959 53.0784 84.8091 53.5561 84.8212 54.0417C84.8333 54.5273 84.7441 55.0101 84.5593 55.4593C84.3744 55.9085 84.098 56.3142 83.7477 56.6507Z" fill="#FF1515"/>
<path d="M31.8762 34.858H59.0788C59.3673 34.858 59.6441 34.7433 59.8482 34.5393C60.0522 34.3352 60.1669 34.0584 60.1669 33.7698C60.1669 33.4811 60.0522 33.2044 59.8482 33.0003C59.6441 32.7962 59.3673 32.6815 59.0788 32.6815H31.8762C31.5876 32.6815 31.3108 32.7962 31.1068 33.0003C30.9027 33.2044 30.7881 33.4811 30.7881 33.7698C30.7881 34.0584 30.9027 34.3352 31.1068 34.5393C31.3108 34.7433 31.5876 34.858 31.8762 34.858Z" stroke="#F9FBFD" stroke-width="10" mask="url(#path-1-outside-1_24_1369)"/>
<path d="M20.8889 33.5683L18.4713 35.8798L17.4907 34.8992C17.3902 34.7959 17.2701 34.7136 17.1375 34.6571C17.0049 34.6006 16.8624 34.571 16.7183 34.57C16.5742 34.569 16.4313 34.5967 16.2979 34.6514C16.1646 34.7061 16.0434 34.7868 15.9415 34.8887C15.8396 34.9907 15.759 35.1118 15.7043 35.2452C15.6496 35.3786 15.6219 35.5215 15.6229 35.6656C15.6239 35.8098 15.6535 35.9523 15.71 36.0849C15.7665 36.2175 15.8488 36.3376 15.9521 36.4381L17.6849 38.1713C17.886 38.3724 18.1578 38.4867 18.4421 38.4899C18.7265 38.4931 19.0008 38.3849 19.2063 38.1883L22.3928 35.1413C22.4971 35.0428 22.5808 34.9246 22.6393 34.7936C22.6977 34.6626 22.7297 34.5213 22.7333 34.3779C22.737 34.2345 22.7122 34.0918 22.6605 33.9579C22.6088 33.8241 22.5311 33.7019 22.432 33.5982C22.3329 33.4945 22.2142 33.4114 22.0829 33.3538C21.9515 33.2961 21.8101 33.265 21.6667 33.2622C21.5232 33.2594 21.3807 33.2851 21.2472 33.3376C21.1137 33.3901 20.9919 33.4685 20.8889 33.5683Z" stroke="#F9FBFD" stroke-width="10" mask="url(#path-1-outside-1_24_1369)"/>
<path d="M19.1816 28.4919C17.721 28.4919 16.2932 28.925 15.0787 29.7366C13.8643 30.5482 12.9177 31.7017 12.3588 33.0513C11.7998 34.4009 11.6536 35.8859 11.9386 37.3186C12.2235 38.7513 12.9269 40.0674 13.9597 41.1003C14.9926 42.1332 16.3084 42.8366 17.741 43.1216C19.1736 43.4065 20.6584 43.2602 22.0078 42.7012C23.3573 42.1422 24.5106 41.1955 25.3221 39.9809C26.1335 38.7662 26.5666 37.3383 26.5666 35.8775C26.5644 33.9193 25.7856 32.042 24.4011 30.6574C23.0166 29.2728 21.1395 28.494 19.1816 28.4919ZM19.1816 41.0868C18.1514 41.0868 17.1444 40.7813 16.2878 40.2089C15.4312 39.6365 14.7636 38.8229 14.3694 37.871C13.9751 36.9191 13.872 35.8717 14.073 34.8612C14.2739 33.8507 14.77 32.9225 15.4985 32.1939C16.2269 31.4654 17.155 30.9692 18.1654 30.7682C19.1758 30.5672 20.2231 30.6704 21.1749 31.0647C22.1267 31.459 22.9402 32.1266 23.5125 32.9833C24.0849 33.84 24.3904 34.8472 24.3904 35.8775C24.389 37.2587 23.8398 38.583 22.8633 39.5598C21.8868 40.5366 20.5627 41.086 19.1816 41.0875V41.0868Z" stroke="#F9FBFD" stroke-width="10" mask="url(#path-1-outside-1_24_1369)"/>
<path d="M31.8762 52.9951H59.0788C59.3673 52.9951 59.6441 52.8805 59.8482 52.6764C60.0522 52.4723 60.1669 52.1955 60.1669 51.9069C60.1669 51.6183 60.0522 51.3415 59.8482 51.1374C59.6441 50.9333 59.3673 50.8187 59.0788 50.8187H31.8762C31.5876 50.8187 31.3108 50.9333 31.1068 51.1374C30.9027 51.3415 30.7881 51.6183 30.7881 51.9069C30.7881 52.1955 30.9027 52.4723 31.1068 52.6764C31.3108 52.8805 31.5876 52.9951 31.8762 52.9951Z" stroke="#F9FBFD" stroke-width="10" mask="url(#path-1-outside-1_24_1369)"/>
<path d="M20.8889 51.7054L18.4713 54.017L17.4907 53.0363C17.3902 52.933 17.2701 52.8507 17.1375 52.7942C17.0049 52.7377 16.8624 52.7081 16.7183 52.7071C16.5742 52.7061 16.4313 52.7338 16.2979 52.7885C16.1646 52.8433 16.0434 52.9239 15.9415 53.0259C15.8396 53.1278 15.759 53.249 15.7043 53.3823C15.6496 53.5157 15.6219 53.6586 15.6229 53.8028C15.6239 53.9469 15.6535 54.0894 15.71 54.222C15.7665 54.3546 15.8488 54.4747 15.9521 54.5752L17.6849 56.3084C17.886 56.5095 18.1578 56.6239 18.4421 56.6271C18.7265 56.6302 19.0008 56.522 19.2063 56.3255L22.3928 53.2784C22.4971 53.1799 22.5808 53.0617 22.6393 52.9307C22.6977 52.7997 22.7297 52.6584 22.7333 52.515C22.737 52.3716 22.7122 52.2289 22.6605 52.0951C22.6088 51.9613 22.5311 51.839 22.432 51.7353C22.3329 51.6316 22.2142 51.5486 22.0829 51.4909C21.9515 51.4332 21.8101 51.4021 21.6667 51.3993C21.5232 51.3966 21.3807 51.4222 21.2472 51.4747C21.1137 51.5272 20.9919 51.6056 20.8889 51.7054Z" stroke="#F9FBFD" stroke-width="10" mask="url(#path-1-outside-1_24_1369)"/>
<path d="M19.1816 46.629C17.721 46.629 16.2932 47.0622 15.0787 47.8737C13.8643 48.6853 12.9177 49.8388 12.3588 51.1884C11.7998 52.538 11.6536 54.023 11.9386 55.4557C12.2235 56.8885 12.9269 58.2045 13.9597 59.2374C14.9926 60.2703 16.3084 60.9737 17.741 61.2587C19.1736 61.5436 20.6584 61.3974 22.0078 60.8383C23.3573 60.2793 24.5106 59.3326 25.3221 58.118C26.1335 56.9034 26.5666 55.4754 26.5666 54.0146C26.5644 52.0565 25.7856 50.1792 24.4011 48.7946C23.0166 47.41 21.1395 46.6311 19.1816 46.629ZM19.1816 59.2239C18.1514 59.2239 17.1444 58.9184 16.2878 58.346C15.4312 57.7736 14.7636 56.96 14.3694 56.0081C13.9751 55.0562 13.872 54.0088 14.073 52.9983C14.2739 51.9878 14.77 51.0596 15.4985 50.331C16.2269 49.6025 17.155 49.1064 18.1654 48.9054C19.1758 48.7043 20.2231 48.8075 21.1749 49.2018C22.1267 49.5961 22.9402 50.2638 23.5125 51.1204C24.0849 51.9771 24.3904 52.9843 24.3904 54.0146C24.389 55.3959 23.8398 56.7202 22.8633 57.6969C21.8868 58.6737 20.5627 59.2231 19.1816 59.2247V59.2239Z" stroke="#F9FBFD" stroke-width="10" mask="url(#path-1-outside-1_24_1369)"/>
<path d="M20.8889 69.8425L18.4713 72.1541L17.4907 71.1734C17.3902 71.0701 17.2701 70.9878 17.1375 70.9313C17.0049 70.8748 16.8624 70.8452 16.7183 70.8442C16.5742 70.8433 16.4313 70.8709 16.2979 70.9257C16.1646 70.9804 16.0434 71.061 15.9415 71.163C15.8396 71.2649 15.759 71.3861 15.7043 71.5195C15.6496 71.6528 15.6219 71.7957 15.6229 71.9399C15.6239 72.084 15.6535 72.2265 15.71 72.3591C15.7665 72.4918 15.8488 72.6118 15.9521 72.7123L17.6849 74.4455C17.886 74.6466 18.1578 74.761 18.4421 74.7642C18.7265 74.7674 19.0008 74.6591 19.2063 74.4626L22.3928 71.4155C22.4971 71.317 22.5808 71.1989 22.6393 71.0678C22.6977 70.9368 22.7297 70.7955 22.7333 70.6521C22.737 70.5087 22.7122 70.366 22.6605 70.2322C22.6088 70.0984 22.5311 69.9761 22.432 69.8724C22.3329 69.7687 22.2142 69.6857 22.0829 69.628C21.9515 69.5704 21.8101 69.5392 21.6667 69.5365C21.5232 69.5337 21.3807 69.5593 21.2472 69.6118C21.1137 69.6643 20.9919 69.7427 20.8889 69.8425Z" stroke="#F9FBFD" stroke-width="10" mask="url(#path-1-outside-1_24_1369)"/>
<path d="M19.1816 64.7661C17.721 64.7661 16.2932 65.1993 15.0787 66.0108C13.8643 66.8224 12.9177 67.9759 12.3588 69.3255C11.7998 70.6751 11.6536 72.1602 11.9386 73.5929C12.2235 75.0256 12.9269 76.3416 13.9597 77.3745C14.9926 78.4074 16.3084 79.1108 17.741 79.3958C19.1736 79.6808 20.6584 79.5345 22.0078 78.9754C23.3573 78.4164 24.5106 77.4697 25.3221 76.2551C26.1335 75.0405 26.5666 73.6125 26.5666 72.1517C26.5644 70.1936 25.7856 68.3163 24.4011 66.9317C23.0166 65.5471 21.1395 64.7683 19.1816 64.7661ZM19.1816 77.3611C18.1514 77.3611 17.1444 77.0555 16.2878 76.4831C15.4312 75.9107 14.7636 75.0971 14.3694 74.1452C13.9751 73.1934 13.872 72.1459 14.073 71.1354C14.2739 70.1249 14.77 69.1967 15.4985 68.4682C16.2269 67.7396 17.155 67.2435 18.1654 67.0425C19.1758 66.8415 20.2231 66.9446 21.1749 67.3389C22.1267 67.7332 22.9402 68.4009 23.5125 69.2576C24.0849 70.1142 24.3904 71.1214 24.3904 72.1517C24.389 73.533 23.8398 74.8573 22.8633 75.8341C21.8868 76.8108 20.5627 77.3603 19.1816 77.3618V77.3611Z" stroke="#F9FBFD" stroke-width="10" mask="url(#path-1-outside-1_24_1369)"/>
<path d="M31.8762 38.4854H46.3842C46.6728 38.4854 46.9496 38.3708 47.1536 38.1667C47.3577 37.9626 47.4723 37.6858 47.4723 37.3972C47.4723 37.1086 47.3577 36.8318 47.1536 36.6277C46.9496 36.4236 46.6728 36.309 46.3842 36.309H31.8762C31.5876 36.309 31.3108 36.4236 31.1068 36.6277C30.9027 36.8318 30.7881 37.1086 30.7881 37.3972C30.7881 37.6858 30.9027 37.9626 31.1068 38.1667C31.3108 38.3708 31.5876 38.4854 31.8762 38.4854Z" stroke="#F9FBFD" stroke-width="10" mask="url(#path-1-outside-1_24_1369)"/>
<path d="M31.8762 56.6225H46.3842C46.6728 56.6225 46.9496 56.5079 47.1536 56.3038C47.3577 56.0997 47.4723 55.8229 47.4723 55.5343C47.4723 55.2457 47.3577 54.9689 47.1536 54.7648C46.9496 54.5607 46.6728 54.4461 46.3842 54.4461H31.8762C31.5876 54.4461 31.3108 54.5607 31.1068 54.7648C30.9027 54.9689 30.7881 55.2457 30.7881 55.5343C30.7881 55.8229 30.9027 56.0997 31.1068 56.3038C31.3108 56.5079 31.5876 56.6225 31.8762 56.6225Z" stroke="#F9FBFD" stroke-width="10" mask="url(#path-1-outside-1_24_1369)"/>
<path d="M10.2592 17.1017C9.97059 17.1017 9.69383 17.2164 9.48977 17.4205C9.28571 17.6246 9.17107 17.9014 9.17107 18.19V19.3326C9.17107 19.6212 9.28571 19.898 9.48977 20.1021C9.69383 20.3062 9.97059 20.4208 10.2592 20.4208C10.5478 20.4208 10.8245 20.3062 11.0286 20.1021C11.2326 19.898 11.3473 19.6212 11.3473 19.3326V18.19C11.3473 17.9014 11.2326 17.6246 11.0286 17.4205C10.8245 17.2164 10.5478 17.1017 10.2592 17.1017Z" stroke="#F9FBFD" stroke-width="10" mask="url(#path-1-outside-1_24_1369)"/>
<path d="M10.2592 21.6888C9.97059 21.6888 9.69383 21.8035 9.48977 22.0075C9.28571 22.2116 9.17107 22.4884 9.17107 22.777V33.2966C9.17107 33.5852 9.28571 33.862 9.48977 34.0661C9.69383 34.2701 9.97059 34.3848 10.2592 34.3848C10.5478 34.3848 10.8245 34.2701 11.0286 34.0661C11.2326 33.862 11.3473 33.5852 11.3473 33.2966V22.777C11.3473 22.6341 11.3191 22.4926 11.2644 22.3606C11.2098 22.2286 11.1296 22.1086 11.0286 22.0075C10.9275 21.9065 10.8076 21.8263 10.6756 21.7716C10.5436 21.717 10.4021 21.6888 10.2592 21.6888Z" stroke="#F9FBFD" stroke-width="10" mask="url(#path-1-outside-1_24_1369)"/>
<path d="M82.4859 48.5878C81.7579 48.4351 81.0069 48.4283 80.2762 48.5677C79.5456 48.7072 78.8499 48.9902 78.2294 49.4003L67.0219 56.7615V15.9274C67.0219 12.3272 64.0635 9.46602 60.4635 9.46602H53.602V6.08798C53.602 5.79937 53.4873 5.52257 53.2833 5.31849C53.0792 5.11441 52.8024 4.99976 52.5139 4.99976C52.2253 4.99976 51.9485 5.11441 51.7445 5.31849C51.5404 5.52257 51.4258 5.79937 51.4258 6.08798V9.46602H42.1769V6.08798C42.1769 5.79937 42.0622 5.52257 41.8582 5.31849C41.6541 5.11441 41.3774 4.99976 41.0888 4.99976C40.8002 4.99976 40.5234 5.11441 40.3194 5.31849C40.1153 5.52257 40.0007 5.79937 40.0007 6.08798V9.46602H30.9331V6.08798C30.9331 5.79937 30.8185 5.52257 30.6144 5.31849C30.4104 5.11441 30.1336 4.99976 29.845 4.99976C29.5565 4.99976 29.2797 5.11441 29.0756 5.31849C28.8716 5.52257 28.7569 5.79937 28.7569 6.08798V9.46602H19.5081V6.08798C19.5081 5.79937 19.3934 5.52257 19.1894 5.31849C18.9853 5.11441 18.7085 4.99976 18.4199 4.99976C18.1314 4.99976 17.8546 5.11441 17.6505 5.31849C17.4465 5.52257 17.3318 5.79937 17.3318 6.08798V9.46602H11.4989C10.647 9.45994 9.80227 9.62263 9.01354 9.94472C8.22482 10.2668 7.50767 10.7419 6.90348 11.3426C6.29929 11.9433 5.82002 12.6577 5.49332 13.4446C5.16661 14.2315 4.99895 15.0753 5 15.9274V81.4024C5 85.0028 7.89889 87.9998 11.4989 87.9998H60.4635C64.0635 87.9998 67.0219 85.0028 67.0219 81.4024V70.3088L84.4472 58.8643C85.383 58.2494 86.1155 57.3708 86.5521 56.3395C86.9886 55.3082 87.1095 54.1707 86.8996 53.0707C86.6897 51.9707 86.1583 50.9576 85.3726 50.1597C84.587 49.3617 83.5824 48.8147 82.4859 48.5878ZM52.4524 16.2809C52.8329 16.2809 53.2049 16.3937 53.5214 16.6052C53.8378 16.8166 54.0844 17.1172 54.23 17.4688C54.3757 17.8204 54.4138 18.2073 54.3395 18.5806C54.2653 18.9539 54.082 19.2968 53.8129 19.5659C53.5438 19.8351 53.201 20.0183 52.8278 20.0926C52.4545 20.1668 52.0676 20.1287 51.7161 19.9831C51.3645 19.8374 51.064 19.5908 50.8525 19.2743C50.6411 18.9579 50.5283 18.5858 50.5283 18.2052C50.5288 17.695 50.7317 17.2058 51.0924 16.8451C51.4531 16.4843 51.9422 16.2814 52.4524 16.2809ZM41.1138 16.2809C41.4943 16.2809 41.8663 16.3938 42.1827 16.6053C42.4991 16.8167 42.7457 17.1173 42.8913 17.4689C43.0369 17.8206 43.075 18.2075 43.0008 18.5807C42.9265 18.954 42.7432 19.2969 42.4741 19.566C42.205 19.8351 41.8622 20.0184 41.4889 20.0926C41.1157 20.1668 40.7288 20.1287 40.3772 19.9831C40.0257 19.8374 39.7252 19.5908 39.5137 19.2743C39.3023 18.9579 39.1895 18.5858 39.1895 18.2052C39.1901 17.695 39.393 17.2058 39.7538 16.8451C40.1145 16.4843 40.6036 16.2814 41.1138 16.2809ZM29.7749 16.2809C30.1554 16.281 30.5273 16.3939 30.8437 16.6054C31.16 16.817 31.4066 17.1175 31.5521 17.4692C31.6977 17.8208 31.7357 18.2077 31.6614 18.581C31.5871 18.9542 31.4038 19.2971 31.1347 19.5661C30.8656 19.8352 30.5227 20.0184 30.1495 20.0926C29.7763 20.1668 29.3894 20.1287 29.0379 19.983C28.6863 19.8374 28.3858 19.5907 28.1744 19.2743C27.963 18.9578 27.8502 18.5858 27.8502 18.2052C27.8508 17.6949 28.0537 17.2057 28.4146 16.8449C28.7754 16.4842 29.2646 16.2813 29.7749 16.2809ZM18.4363 16.2809C18.8168 16.2809 19.1888 16.3938 19.5052 16.6053C19.8216 16.8167 20.0682 17.1173 20.2138 17.4689C20.3594 17.8206 20.3975 18.2075 20.3232 18.5807C20.249 18.954 20.0657 19.2969 19.7966 19.566C19.5275 19.8351 19.1846 20.0184 18.8114 20.0926C18.4382 20.1668 18.0513 20.1287 17.6997 19.9831C17.3481 19.8374 17.0476 19.5908 16.8362 19.2743C16.6248 18.9579 16.512 18.5858 16.512 18.2052C16.5125 17.695 16.7155 17.2058 17.0762 16.8451C17.437 16.4843 17.9261 16.2814 18.4363 16.2809ZM64.8457 81.4024C64.8403 82.5666 64.3781 83.6822 63.5585 84.509C62.7389 85.3358 61.6276 85.8078 60.4635 85.8233H11.4989C9.09853 85.8233 7.17621 83.8026 7.17621 81.4024V15.9274C7.17485 15.3611 7.28602 14.8001 7.50325 14.2771C7.72048 13.7542 8.03944 13.2796 8.44162 12.8809C8.84379 12.4822 9.32116 12.1675 9.846 11.9549C10.3708 11.7423 10.9327 11.6361 11.4989 11.6425H17.3318V14.252C15.6997 14.7301 14.3278 16.3208 14.3278 18.2059C14.3278 18.7443 14.4338 19.2775 14.6398 19.7749C14.8458 20.2723 15.1478 20.7243 15.5285 21.105C15.9091 21.4857 16.3611 21.7877 16.8584 21.9937C17.3558 22.1998 17.8889 22.3058 18.4272 22.3058C18.9655 22.3058 19.4986 22.1998 19.996 21.9937C20.4934 21.7877 20.9453 21.4857 21.3259 21.105C21.7066 20.7243 22.0086 20.2723 22.2146 19.7749C22.4206 19.2775 22.5266 18.7443 22.5266 18.2059C22.5395 17.3039 22.2489 16.4236 21.7015 15.7066C21.1541 14.9895 20.3816 14.4772 19.5081 14.252V11.6425H28.7569V14.252C27.8804 14.4759 27.1041 14.9869 26.5519 15.7036C25.9997 16.4202 25.7034 17.3012 25.7102 18.2059C25.7102 19.2947 26.1427 20.3389 26.9125 21.1087C27.6823 21.8786 28.7263 22.3111 29.8149 22.3111C30.9036 22.3111 31.9476 21.8786 32.7174 21.1087C33.4872 20.3389 33.9196 19.2947 33.9196 18.2059C33.9042 17.3156 33.6067 16.4532 33.07 15.7427C32.5334 15.0322 31.7852 14.5103 30.9331 14.252V11.6425H40.0007V14.252C38.3685 14.7301 37.0009 16.3208 37.0009 18.2059C37.0009 19.2931 37.4328 20.3357 38.2014 21.1044C38.97 21.8731 40.0125 22.3049 41.0995 22.3049C42.1865 22.3049 43.2289 21.8731 43.9976 21.1044C44.7662 20.3357 45.198 19.2931 45.198 18.2059C45.2103 17.3036 44.9191 16.4234 44.3713 15.7064C43.8234 14.9894 43.0506 14.4772 42.1769 14.252V11.6425H51.4258V14.252C50.5495 14.4759 49.7737 14.9871 49.2221 15.7038C48.6705 16.4206 48.375 17.3015 48.3829 18.2059C48.3829 19.2945 48.8153 20.3386 49.5849 21.1083C50.3546 21.8781 51.3985 22.3106 52.487 22.3106C53.5755 22.3106 54.6194 21.8781 55.3891 21.1083C56.1588 20.3386 56.5912 19.2945 56.5912 18.2059C56.5912 16.3215 55.2341 14.7309 53.602 14.252V11.6425H60.4635C62.8634 11.6425 64.8457 13.5273 64.8457 15.9274V58.1907L60.7586 60.875C60.6331 60.9575 60.526 61.0651 60.4441 61.1911C60.3622 61.317 60.3072 61.4586 60.2827 61.6068C60.2582 61.755 60.2646 61.9067 60.3016 62.0523C60.3386 62.198 60.4053 62.3343 60.4976 62.4529C60.6657 62.6685 60.9087 62.813 61.1784 62.8576C61.4481 62.9022 61.7247 62.8436 61.9532 62.6936L78.1329 52.0672L79.449 54.0706L52.0365 72.0754L50.7201 70.0718L55.8705 66.6897C55.9899 66.6113 56.0928 66.5101 56.1731 66.3919C56.2534 66.2737 56.3097 66.1408 56.3387 66.0009C56.3677 65.861 56.3689 65.7167 56.3421 65.5763C56.3153 65.4359 56.2612 65.3022 56.1828 65.1827C56.1043 65.0633 56.0031 64.9604 55.885 64.8801C55.7668 64.7997 55.6339 64.7434 55.494 64.7144C55.3541 64.6854 55.2098 64.6843 55.0695 64.711C54.9291 64.7378 54.7954 64.792 54.6759 64.8704L48.6208 68.847C48.6097 68.8544 48.5996 68.8636 48.5883 68.8714C48.5608 68.891 48.5339 68.9106 48.5075 68.9327C48.4988 68.94 48.4911 68.9483 48.483 68.956H31.8762C31.5876 68.956 31.3108 69.0706 31.1068 69.2747C30.9027 69.4788 30.7881 69.7556 30.7881 70.0442C30.7881 70.3328 30.9027 70.6096 31.1068 70.8137C31.3108 71.0178 31.5876 71.1324 31.8762 71.1324H47.2565L46.4859 72.5885C46.4524 72.5854 46.4187 72.5834 46.3842 72.5834H31.8762C31.5876 72.5834 31.3108 72.698 31.1068 72.9021C30.9027 73.1062 30.7881 73.383 30.7881 73.6716C30.7881 73.9602 30.9027 74.237 31.1068 74.4411C31.3108 74.6452 31.5876 74.7598 31.8762 74.7598H45.3369L44.0789 77.1367C43.9911 77.3025 43.9477 77.4882 43.9529 77.6757C43.958 77.8632 44.0115 78.0462 44.1083 78.2069C44.205 78.3677 44.3416 78.5007 44.5049 78.593C44.6681 78.6854 44.8525 78.734 45.04 78.734C45.0496 78.734 45.0593 78.734 45.0687 78.734L54.2644 78.493C54.2867 78.493 54.3087 78.4886 54.3308 78.4868C54.3529 78.485 54.3781 78.4838 54.4017 78.4801C54.4306 78.4758 54.4585 78.4683 54.4864 78.462C54.5071 78.4571 54.5279 78.4536 54.5486 78.4475C54.5961 78.4332 54.6426 78.4157 54.6877 78.3951C54.6988 78.3902 54.7091 78.3833 54.72 78.3769C54.7552 78.3598 54.7895 78.3408 54.8226 78.32C54.8263 78.3176 54.8301 78.3163 54.8333 78.314L64.8457 71.7382V81.4024ZM52.2529 76.3681L46.8728 76.509L49.3141 71.8953L52.2529 76.3681ZM54.5479 75.8978L53.2311 73.8947L80.6435 55.8909L81.9598 57.8941L54.5479 75.8978ZM83.7477 56.6507L79.9836 50.9213C80.4474 50.7262 80.9476 50.6331 81.4505 50.6483C81.9534 50.6634 82.4472 50.7865 82.8984 51.0091C83.1598 51.1349 83.4023 51.2966 83.6189 51.4896C83.9856 51.8081 84.2819 52.1995 84.4889 52.639C84.6959 53.0784 84.8091 53.5561 84.8212 54.0417C84.8333 54.5273 84.7441 55.0101 84.5593 55.4593C84.3744 55.9085 84.098 56.3142 83.7477 56.6507Z" stroke="#F9FBFD" stroke-width="10" mask="url(#path-1-outside-1_24_1369)"/>
</svg>
