<svg width="90" height="93" viewBox="0 0 90 93" fill="none" xmlns="http://www.w3.org/2000/svg">
<mask id="path-1-outside-1_24_1393" maskUnits="userSpaceOnUse" x="0" y="-0.000244141" width="90" height="93" fill="black">
<rect fill="white" y="-0.000244141" width="90" height="93"/>
<path d="M82.3546 53.6154H81.1187V42.4274C81.1187 40.6562 80.2416 39.0879 78.902 38.135V36.6117C78.902 34.402 77.1134 32.6044 74.9148 32.6044H73.992L77.5226 27.3974C78.7061 25.6521 78.2561 23.2644 76.5195 22.0749L52.5621 5.66615C51.721 5.08985 50.7071 4.87716 49.7064 5.06796C48.7062 5.25844 47.8395 5.8289 47.2663 6.67447L26.588 37.171H20.8338L22.222 23.0464C22.2377 22.8872 22.3406 22.7492 22.4841 22.6949C24.2728 22.0172 25.8228 20.7514 26.8487 19.131C26.9295 19.0034 27.0819 18.9304 27.2396 18.9465L36.2649 19.8426C36.9121 19.9057 37.4877 19.432 37.5516 18.7819C37.6155 18.1319 37.143 17.553 36.4962 17.4888L27.4709 16.5926C26.4233 16.4895 25.4242 16.9747 24.8629 17.8612C24.1087 19.0527 22.969 19.9832 21.654 20.4815C20.6641 20.8566 19.9844 21.7502 19.8799 22.8138L18.4688 37.1708H16.9683L19.1639 14.8315C19.2429 14.0274 19.957 13.4367 20.758 13.5173L38.9963 15.328C39.6431 15.3908 40.2191 14.9174 40.283 14.2673C40.3469 13.6173 39.8744 13.0384 39.2276 12.9742L20.9893 11.1634C18.8982 10.9561 17.0283 12.497 16.8217 14.5989L15.052 32.6044H12.0381C9.83968 32.6044 8.05091 34.402 8.05091 36.6117V37.6508C6.2523 38.4831 5 40.3104 5 42.4274V82.7432C5 85.6417 7.34621 87.9998 10.2303 87.9998H75.8886C78.7725 87.9998 81.1187 85.6417 81.1187 82.7432V71.5554H82.3546C83.8133 71.5554 85 70.3627 85 68.8968V56.2741C85.0002 54.808 83.8133 53.6154 82.3546 53.6154ZM74.9148 34.9699C75.8158 34.9697 76.5486 35.7063 76.5486 36.6119V37.2144C76.3321 37.1869 76.1123 37.1711 75.8886 37.1711H70.8956L72.3881 34.9699H74.9148ZM49.211 8.00636C49.4304 7.68295 49.7619 7.46475 50.1445 7.3918C50.2359 7.37446 50.3277 7.3657 50.4188 7.3657C50.7087 7.3657 50.9919 7.45292 51.2367 7.62054L75.1942 24.0293C75.8584 24.4843 76.0307 25.3976 75.5781 26.0652L68.0478 37.1707H66.2406L69.9325 31.7259C70.5313 30.8429 70.5806 29.7191 70.0609 28.793C69.3703 27.5626 69.0903 26.1138 69.2725 24.7134C69.408 23.6715 68.9519 22.6544 68.0822 22.0588L55.6627 13.5526C54.7928 12.9569 53.6841 12.9022 52.7689 13.4101C51.539 14.0926 50.0949 14.3606 48.7029 14.1647C47.6707 14.0192 46.6237 14.4877 46.0338 15.3574L31.2432 37.1708H29.436L49.211 8.00636ZM49.7293 28.0903C44.6047 28.0903 40.3981 32.1062 40.0554 37.1708H34.0908L47.9782 16.6894H47.9784C48.0573 16.5729 48.1881 16.5035 48.3225 16.5035C48.3404 16.5035 48.3583 16.5048 48.3762 16.5072C50.2695 16.7734 52.2332 16.4093 53.9062 15.4809C54.0378 15.4076 54.2068 15.4182 54.3372 15.5073L66.7568 24.0137C66.8868 24.1029 66.9583 24.2572 66.9389 24.407C66.691 26.3116 67.072 28.2819 68.0112 29.9552C68.0865 30.0896 68.0773 30.2617 67.988 30.3938L63.393 37.1707H59.4036C59.0606 32.1062 54.8541 28.0903 49.7293 28.0903ZM57.0437 37.171H42.415C42.7521 33.4118 45.9029 30.4558 49.7293 30.4558C53.5559 30.4556 56.7068 33.4118 57.0437 37.171ZM10.4044 36.6117C10.4044 35.7062 11.1371 34.9695 12.0381 34.9695H14.8195L14.6032 37.1708H10.4044V36.6117ZM7.35347 42.4274C7.35347 40.8332 8.644 39.5362 10.2303 39.5362H75.8886C77.4749 39.5362 78.7653 40.8332 78.7653 42.4274V45.7091H7.35347V42.4274ZM78.7653 82.7432C78.7653 84.3374 77.4749 85.6344 75.8886 85.6344H10.2303C8.644 85.6344 7.35347 84.3374 7.35347 82.7432V79.4614H13.6992C14.3492 79.4614 14.8758 78.932 14.8758 78.2789C14.8758 77.6257 14.349 77.0963 13.6992 77.0963H7.35347V48.0745H78.7653V53.6154H67.5767C64.0514 53.6154 60.9977 55.6806 59.5485 58.6701C59.5436 58.6802 59.5382 58.6899 59.5332 58.6999C59.5209 58.7254 59.5103 58.7518 59.4983 58.7774C59.3257 59.1459 59.1757 59.5273 59.0536 59.9209C59.0533 59.9221 59.053 59.923 59.0527 59.9242C58.7922 60.7654 58.6517 61.6591 58.6517 62.5854C58.6517 67.5315 62.6554 71.5554 67.5765 71.5554H78.7651V77.0963H21.2339C20.5839 77.0963 20.0573 77.6257 20.0573 78.2789C20.0573 78.932 20.5841 79.4614 21.2339 79.4614H78.7653V82.7432ZM82.6467 68.8966C82.6467 69.0584 82.5157 69.19 82.3546 69.19H67.577C65.0858 69.19 62.9138 67.7896 61.7997 65.7309C61.749 65.6374 61.7006 65.5424 61.6544 65.4463C61.5619 65.2539 61.4785 65.0562 61.4048 64.8539C61.1464 64.1462 61.0055 63.382 61.0055 62.5854C61.0055 61.7888 61.1466 61.0246 61.4048 60.3168C61.4787 60.1147 61.5621 59.917 61.6544 59.7245C61.7006 59.6283 61.749 59.5333 61.7997 59.4398C62.9138 57.3812 65.0858 55.9807 67.577 55.9807H82.3546C82.5156 55.9807 82.6467 56.1123 82.6467 56.2741V68.8966Z"/>
<path d="M67.8526 57.7869C65.22 57.7869 63.0783 59.9396 63.0783 62.5854C63.0783 65.2312 65.22 67.3836 67.8526 67.3836C70.4853 67.3836 72.627 65.2312 72.627 62.5854C72.627 59.9396 70.4853 57.7869 67.8526 57.7869ZM67.8526 65.0183C66.5178 65.0183 65.4317 63.9268 65.4317 62.5854C65.4317 61.2439 66.5178 60.1523 67.8526 60.1523C69.1875 60.1523 70.2735 61.2438 70.2735 62.5854C70.2735 63.927 69.1875 65.0183 67.8526 65.0183Z"/>
</mask>
<path d="M82.3546 53.6154H81.1187V42.4274C81.1187 40.6562 80.2416 39.0879 78.902 38.135V36.6117C78.902 34.402 77.1134 32.6044 74.9148 32.6044H73.992L77.5226 27.3974C78.7061 25.6521 78.2561 23.2644 76.5195 22.0749L52.5621 5.66615C51.721 5.08985 50.7071 4.87716 49.7064 5.06796C48.7062 5.25844 47.8395 5.8289 47.2663 6.67447L26.588 37.171H20.8338L22.222 23.0464C22.2377 22.8872 22.3406 22.7492 22.4841 22.6949C24.2728 22.0172 25.8228 20.7514 26.8487 19.131C26.9295 19.0034 27.0819 18.9304 27.2396 18.9465L36.2649 19.8426C36.9121 19.9057 37.4877 19.432 37.5516 18.7819C37.6155 18.1319 37.143 17.553 36.4962 17.4888L27.4709 16.5926C26.4233 16.4895 25.4242 16.9747 24.8629 17.8612C24.1087 19.0527 22.969 19.9832 21.654 20.4815C20.6641 20.8566 19.9844 21.7502 19.8799 22.8138L18.4688 37.1708H16.9683L19.1639 14.8315C19.2429 14.0274 19.957 13.4367 20.758 13.5173L38.9963 15.328C39.6431 15.3908 40.2191 14.9174 40.283 14.2673C40.3469 13.6173 39.8744 13.0384 39.2276 12.9742L20.9893 11.1634C18.8982 10.9561 17.0283 12.497 16.8217 14.5989L15.052 32.6044H12.0381C9.83968 32.6044 8.05091 34.402 8.05091 36.6117V37.6508C6.2523 38.4831 5 40.3104 5 42.4274V82.7432C5 85.6417 7.34621 87.9998 10.2303 87.9998H75.8886C78.7725 87.9998 81.1187 85.6417 81.1187 82.7432V71.5554H82.3546C83.8133 71.5554 85 70.3627 85 68.8968V56.2741C85.0002 54.808 83.8133 53.6154 82.3546 53.6154ZM74.9148 34.9699C75.8158 34.9697 76.5486 35.7063 76.5486 36.6119V37.2144C76.3321 37.1869 76.1123 37.1711 75.8886 37.1711H70.8956L72.3881 34.9699H74.9148ZM49.211 8.00636C49.4304 7.68295 49.7619 7.46475 50.1445 7.3918C50.2359 7.37446 50.3277 7.3657 50.4188 7.3657C50.7087 7.3657 50.9919 7.45292 51.2367 7.62054L75.1942 24.0293C75.8584 24.4843 76.0307 25.3976 75.5781 26.0652L68.0478 37.1707H66.2406L69.9325 31.7259C70.5313 30.8429 70.5806 29.7191 70.0609 28.793C69.3703 27.5626 69.0903 26.1138 69.2725 24.7134C69.408 23.6715 68.9519 22.6544 68.0822 22.0588L55.6627 13.5526C54.7928 12.9569 53.6841 12.9022 52.7689 13.4101C51.539 14.0926 50.0949 14.3606 48.7029 14.1647C47.6707 14.0192 46.6237 14.4877 46.0338 15.3574L31.2432 37.1708H29.436L49.211 8.00636ZM49.7293 28.0903C44.6047 28.0903 40.3981 32.1062 40.0554 37.1708H34.0908L47.9782 16.6894H47.9784C48.0573 16.5729 48.1881 16.5035 48.3225 16.5035C48.3404 16.5035 48.3583 16.5048 48.3762 16.5072C50.2695 16.7734 52.2332 16.4093 53.9062 15.4809C54.0378 15.4076 54.2068 15.4182 54.3372 15.5073L66.7568 24.0137C66.8868 24.1029 66.9583 24.2572 66.9389 24.407C66.691 26.3116 67.072 28.2819 68.0112 29.9552C68.0865 30.0896 68.0773 30.2617 67.988 30.3938L63.393 37.1707H59.4036C59.0606 32.1062 54.8541 28.0903 49.7293 28.0903ZM57.0437 37.171H42.415C42.7521 33.4118 45.9029 30.4558 49.7293 30.4558C53.5559 30.4556 56.7068 33.4118 57.0437 37.171ZM10.4044 36.6117C10.4044 35.7062 11.1371 34.9695 12.0381 34.9695H14.8195L14.6032 37.1708H10.4044V36.6117ZM7.35347 42.4274C7.35347 40.8332 8.644 39.5362 10.2303 39.5362H75.8886C77.4749 39.5362 78.7653 40.8332 78.7653 42.4274V45.7091H7.35347V42.4274ZM78.7653 82.7432C78.7653 84.3374 77.4749 85.6344 75.8886 85.6344H10.2303C8.644 85.6344 7.35347 84.3374 7.35347 82.7432V79.4614H13.6992C14.3492 79.4614 14.8758 78.932 14.8758 78.2789C14.8758 77.6257 14.349 77.0963 13.6992 77.0963H7.35347V48.0745H78.7653V53.6154H67.5767C64.0514 53.6154 60.9977 55.6806 59.5485 58.6701C59.5436 58.6802 59.5382 58.6899 59.5332 58.6999C59.5209 58.7254 59.5103 58.7518 59.4983 58.7774C59.3257 59.1459 59.1757 59.5273 59.0536 59.9209C59.0533 59.9221 59.053 59.923 59.0527 59.9242C58.7922 60.7654 58.6517 61.6591 58.6517 62.5854C58.6517 67.5315 62.6554 71.5554 67.5765 71.5554H78.7651V77.0963H21.2339C20.5839 77.0963 20.0573 77.6257 20.0573 78.2789C20.0573 78.932 20.5841 79.4614 21.2339 79.4614H78.7653V82.7432ZM82.6467 68.8966C82.6467 69.0584 82.5157 69.19 82.3546 69.19H67.577C65.0858 69.19 62.9138 67.7896 61.7997 65.7309C61.749 65.6374 61.7006 65.5424 61.6544 65.4463C61.5619 65.2539 61.4785 65.0562 61.4048 64.8539C61.1464 64.1462 61.0055 63.382 61.0055 62.5854C61.0055 61.7888 61.1466 61.0246 61.4048 60.3168C61.4787 60.1147 61.5621 59.917 61.6544 59.7245C61.7006 59.6283 61.749 59.5333 61.7997 59.4398C62.9138 57.3812 65.0858 55.9807 67.577 55.9807H82.3546C82.5156 55.9807 82.6467 56.1123 82.6467 56.2741V68.8966Z" fill="#FF1515"/>
<path d="M67.8526 57.7869C65.22 57.7869 63.0783 59.9396 63.0783 62.5854C63.0783 65.2312 65.22 67.3836 67.8526 67.3836C70.4853 67.3836 72.627 65.2312 72.627 62.5854C72.627 59.9396 70.4853 57.7869 67.8526 57.7869ZM67.8526 65.0183C66.5178 65.0183 65.4317 63.9268 65.4317 62.5854C65.4317 61.2439 66.5178 60.1523 67.8526 60.1523C69.1875 60.1523 70.2735 61.2438 70.2735 62.5854C70.2735 63.927 69.1875 65.0183 67.8526 65.0183Z" fill="#FF1515"/>
<path d="M82.3546 53.6154H81.1187V42.4274C81.1187 40.6562 80.2416 39.0879 78.902 38.135V36.6117C78.902 34.402 77.1134 32.6044 74.9148 32.6044H73.992L77.5226 27.3974C78.7061 25.6521 78.2561 23.2644 76.5195 22.0749L52.5621 5.66615C51.721 5.08985 50.7071 4.87716 49.7064 5.06796C48.7062 5.25844 47.8395 5.8289 47.2663 6.67447L26.588 37.171H20.8338L22.222 23.0464C22.2377 22.8872 22.3406 22.7492 22.4841 22.6949C24.2728 22.0172 25.8228 20.7514 26.8487 19.131C26.9295 19.0034 27.0819 18.9304 27.2396 18.9465L36.2649 19.8426C36.9121 19.9057 37.4877 19.432 37.5516 18.7819C37.6155 18.1319 37.143 17.553 36.4962 17.4888L27.4709 16.5926C26.4233 16.4895 25.4242 16.9747 24.8629 17.8612C24.1087 19.0527 22.969 19.9832 21.654 20.4815C20.6641 20.8566 19.9844 21.7502 19.8799 22.8138L18.4688 37.1708H16.9683L19.1639 14.8315C19.2429 14.0274 19.957 13.4367 20.758 13.5173L38.9963 15.328C39.6431 15.3908 40.2191 14.9174 40.283 14.2673C40.3469 13.6173 39.8744 13.0384 39.2276 12.9742L20.9893 11.1634C18.8982 10.9561 17.0283 12.497 16.8217 14.5989L15.052 32.6044H12.0381C9.83968 32.6044 8.05091 34.402 8.05091 36.6117V37.6508C6.2523 38.4831 5 40.3104 5 42.4274V82.7432C5 85.6417 7.34621 87.9998 10.2303 87.9998H75.8886C78.7725 87.9998 81.1187 85.6417 81.1187 82.7432V71.5554H82.3546C83.8133 71.5554 85 70.3627 85 68.8968V56.2741C85.0002 54.808 83.8133 53.6154 82.3546 53.6154ZM74.9148 34.9699C75.8158 34.9697 76.5486 35.7063 76.5486 36.6119V37.2144C76.3321 37.1869 76.1123 37.1711 75.8886 37.1711H70.8956L72.3881 34.9699H74.9148ZM49.211 8.00636C49.4304 7.68295 49.7619 7.46475 50.1445 7.3918C50.2359 7.37446 50.3277 7.3657 50.4188 7.3657C50.7087 7.3657 50.9919 7.45292 51.2367 7.62054L75.1942 24.0293C75.8584 24.4843 76.0307 25.3976 75.5781 26.0652L68.0478 37.1707H66.2406L69.9325 31.7259C70.5313 30.8429 70.5806 29.7191 70.0609 28.793C69.3703 27.5626 69.0903 26.1138 69.2725 24.7134C69.408 23.6715 68.9519 22.6544 68.0822 22.0588L55.6627 13.5526C54.7928 12.9569 53.6841 12.9022 52.7689 13.4101C51.539 14.0926 50.0949 14.3606 48.7029 14.1647C47.6707 14.0192 46.6237 14.4877 46.0338 15.3574L31.2432 37.1708H29.436L49.211 8.00636ZM49.7293 28.0903C44.6047 28.0903 40.3981 32.1062 40.0554 37.1708H34.0908L47.9782 16.6894H47.9784C48.0573 16.5729 48.1881 16.5035 48.3225 16.5035C48.3404 16.5035 48.3583 16.5048 48.3762 16.5072C50.2695 16.7734 52.2332 16.4093 53.9062 15.4809C54.0378 15.4076 54.2068 15.4182 54.3372 15.5073L66.7568 24.0137C66.8868 24.1029 66.9583 24.2572 66.9389 24.407C66.691 26.3116 67.072 28.2819 68.0112 29.9552C68.0865 30.0896 68.0773 30.2617 67.988 30.3938L63.393 37.1707H59.4036C59.0606 32.1062 54.8541 28.0903 49.7293 28.0903ZM57.0437 37.171H42.415C42.7521 33.4118 45.9029 30.4558 49.7293 30.4558C53.5559 30.4556 56.7068 33.4118 57.0437 37.171ZM10.4044 36.6117C10.4044 35.7062 11.1371 34.9695 12.0381 34.9695H14.8195L14.6032 37.1708H10.4044V36.6117ZM7.35347 42.4274C7.35347 40.8332 8.644 39.5362 10.2303 39.5362H75.8886C77.4749 39.5362 78.7653 40.8332 78.7653 42.4274V45.7091H7.35347V42.4274ZM78.7653 82.7432C78.7653 84.3374 77.4749 85.6344 75.8886 85.6344H10.2303C8.644 85.6344 7.35347 84.3374 7.35347 82.7432V79.4614H13.6992C14.3492 79.4614 14.8758 78.932 14.8758 78.2789C14.8758 77.6257 14.349 77.0963 13.6992 77.0963H7.35347V48.0745H78.7653V53.6154H67.5767C64.0514 53.6154 60.9977 55.6806 59.5485 58.6701C59.5436 58.6802 59.5382 58.6899 59.5332 58.6999C59.5209 58.7254 59.5103 58.7518 59.4983 58.7774C59.3257 59.1459 59.1757 59.5273 59.0536 59.9209C59.0533 59.9221 59.053 59.923 59.0527 59.9242C58.7922 60.7654 58.6517 61.6591 58.6517 62.5854C58.6517 67.5315 62.6554 71.5554 67.5765 71.5554H78.7651V77.0963H21.2339C20.5839 77.0963 20.0573 77.6257 20.0573 78.2789C20.0573 78.932 20.5841 79.4614 21.2339 79.4614H78.7653V82.7432ZM82.6467 68.8966C82.6467 69.0584 82.5157 69.19 82.3546 69.19H67.577C65.0858 69.19 62.9138 67.7896 61.7997 65.7309C61.749 65.6374 61.7006 65.5424 61.6544 65.4463C61.5619 65.2539 61.4785 65.0562 61.4048 64.8539C61.1464 64.1462 61.0055 63.382 61.0055 62.5854C61.0055 61.7888 61.1466 61.0246 61.4048 60.3168C61.4787 60.1147 61.5621 59.917 61.6544 59.7245C61.7006 59.6283 61.749 59.5333 61.7997 59.4398C62.9138 57.3812 65.0858 55.9807 67.577 55.9807H82.3546C82.5156 55.9807 82.6467 56.1123 82.6467 56.2741V68.8966Z" stroke="#F9FBFD" stroke-width="10" mask="url(#path-1-outside-1_24_1393)"/>
<path d="M67.8526 57.7869C65.22 57.7869 63.0783 59.9396 63.0783 62.5854C63.0783 65.2312 65.22 67.3836 67.8526 67.3836C70.4853 67.3836 72.627 65.2312 72.627 62.5854C72.627 59.9396 70.4853 57.7869 67.8526 57.7869ZM67.8526 65.0183C66.5178 65.0183 65.4317 63.9268 65.4317 62.5854C65.4317 61.2439 66.5178 60.1523 67.8526 60.1523C69.1875 60.1523 70.2735 61.2438 70.2735 62.5854C70.2735 63.927 69.1875 65.0183 67.8526 65.0183Z" stroke="#F9FBFD" stroke-width="10" mask="url(#path-1-outside-1_24_1393)"/>
</svg>
