<svg width="69" height="98" viewBox="0 0 69 98" fill="none" xmlns="http://www.w3.org/2000/svg">
<mask id="path-1-outside-1_24_1410" maskUnits="userSpaceOnUse" x="0" y="0" width="69" height="98" fill="black">
<rect fill="white" width="69" height="98"/>
<path d="M61.8936 5H6.21581C5.54436 5 5 5.54436 5 6.21581V58.9481C5 59.6195 5.54436 60.1639 6.21581 60.1639C6.88727 60.1639 7.43163 59.6195 7.43163 58.9481V7.43163H60.6778V17.8049C60.6778 18.4764 61.222 19.0208 61.8936 19.0208C62.5652 19.0208 63.1094 18.4764 63.1094 17.8049V6.21581C63.1094 5.54436 62.5652 5 61.8936 5Z"/>
<path d="M61.8936 22.2791C61.222 22.2791 60.6778 22.8235 60.6778 23.4949V83.4762L57.2514 79.4454C57.0203 79.1735 56.6816 79.0169 56.3248 79.0169C55.9682 79.0169 55.6295 79.1737 55.3985 79.4455L50.758 84.9063L46.1162 79.4455C45.885 79.1737 45.5464 79.0171 45.1896 79.0171C44.833 79.0171 44.4943 79.1737 44.2633 79.4455L39.6226 84.9063L34.9808 79.4455C34.7497 79.1738 34.411 79.0171 34.0544 79.0171C33.6977 79.0171 33.3589 79.1737 33.1281 79.4455L28.4861 84.9063L23.8458 79.4455C23.6147 79.1737 23.2761 79.0169 22.9193 79.0169C22.5627 79.0169 22.2239 79.1735 21.993 79.4454L17.351 84.9062L12.7107 79.4454C12.4797 79.1735 12.141 79.0168 11.7842 79.0168C11.4276 79.0168 11.0888 79.1734 10.858 79.4452L7.43163 83.476V64.6381C7.43163 63.9666 6.88727 63.4223 6.21581 63.4223C5.54436 63.4223 5 63.9666 5 64.6381V86.7837C5 87.2934 5.31789 87.7491 5.79644 87.9249C6.2745 88.1005 6.81205 87.9595 7.14226 87.5712L11.7842 82.1104L16.4246 87.5712C16.6556 87.8431 16.9942 87.9998 17.351 87.9998C17.7077 87.9998 18.0465 87.8432 18.2773 87.5714L22.9193 82.1106L27.5597 87.5714C27.7907 87.8432 28.1293 88 28.4861 88C28.8427 88 29.1816 87.8434 29.4124 87.5715L34.0547 82.11L38.6967 87.5709C38.9278 87.8428 39.2665 87.9994 39.6231 87.9994C39.9799 87.9994 40.3186 87.8428 40.5496 87.5709L45.1902 82.1101L49.8321 87.5709C50.0632 87.8428 50.4019 87.9994 50.7587 87.9994C51.1153 87.9994 51.454 87.8426 51.685 87.5707L56.3255 82.11L60.9674 87.5707C61.2032 87.8479 61.5442 87.9992 61.8942 87.9992C62.0344 87.9992 62.1765 87.9749 62.3134 87.9245C62.7918 87.7486 63.1097 87.2929 63.1097 86.7832V23.4949C63.1094 22.8235 62.5652 22.2791 61.8936 22.2791Z"/>
<path d="M48.7928 10.2402H19.3166C18.6452 10.2402 18.1008 10.7845 18.1008 11.456V16.6961C18.1008 17.3676 18.6452 17.9119 19.3166 17.9119H48.7926C49.4642 17.9119 50.0084 17.3676 50.0084 16.6961V11.456C50.0086 10.7845 49.4642 10.2402 48.7928 10.2402ZM47.577 15.4803H20.5324V12.6718H47.5768V15.4803H47.577Z"/>
<path d="M12.439 36.2526H38.6398C39.3114 36.2526 39.8556 35.7082 39.8556 35.0367C39.8556 34.3653 39.3114 33.8209 38.6398 33.8209H12.439C11.7675 33.8209 11.2232 34.3653 11.2232 35.0367C11.2232 35.7082 11.7674 36.2526 12.439 36.2526Z"/>
<path d="M11.2232 28.4866C11.2232 29.158 11.7675 29.7024 12.439 29.7024H38.6398C39.3114 29.7024 39.8556 29.158 39.8556 28.4866C39.8556 27.8151 39.3114 27.2708 38.6398 27.2708H12.439C11.7674 27.2708 11.2232 27.8151 11.2232 28.4866Z"/>
<path d="M12.439 42.8029H38.6398C39.3114 42.8029 39.8556 42.2585 39.8556 41.5871C39.8556 40.9156 39.3114 40.3712 38.6398 40.3712H12.439C11.7675 40.3712 11.2232 40.9156 11.2232 41.5871C11.2232 42.2585 11.7674 42.8029 12.439 42.8029Z"/>
<path d="M12.439 49.353H38.6398C39.3114 49.353 39.8556 48.8087 39.8556 48.1372C39.8556 47.4658 39.3114 46.9214 38.6398 46.9214H12.439C11.7675 46.9214 11.2232 47.4658 11.2232 48.1372C11.2232 48.8087 11.7674 49.353 12.439 49.353Z"/>
<path d="M55.6704 33.8209H50.1026C49.431 33.8209 48.8868 34.3653 48.8868 35.0367C48.8868 35.7082 49.431 36.2526 50.1026 36.2526H55.6704C56.342 36.2526 56.8862 35.7082 56.8862 35.0367C56.8862 34.3653 56.342 33.8209 55.6704 33.8209Z"/>
<path d="M55.6704 27.2708H50.1026C49.431 27.2708 48.8868 27.8151 48.8868 28.4866C48.8868 29.158 49.431 29.7024 50.1026 29.7024H55.6704C56.342 29.7024 56.8862 29.158 56.8862 28.4866C56.8862 27.8151 56.342 27.2708 55.6704 27.2708Z"/>
<path d="M55.6704 40.3712H50.1026C49.431 40.3712 48.8868 40.9156 48.8868 41.5871C48.8868 42.2585 49.431 42.8029 50.1026 42.8029H55.6704C56.342 42.8029 56.8862 42.2585 56.8862 41.5871C56.8862 40.9156 56.342 40.3712 55.6704 40.3712Z"/>
<path d="M55.6704 46.9214H50.1026C49.431 46.9214 48.8868 47.4658 48.8868 48.1372C48.8868 48.8087 49.431 49.353 50.1026 49.353H55.6704C56.342 49.353 56.8862 48.8087 56.8862 48.1372C56.8862 47.4658 56.342 46.9214 55.6704 46.9214Z"/>
<path d="M55.6704 53.4717H50.1026C49.431 53.4717 48.8868 54.0161 48.8868 54.6875C48.8868 55.359 49.431 55.9033 50.1026 55.9033H55.6704C56.342 55.9033 56.8862 55.359 56.8862 54.6875C56.8862 54.0161 56.342 53.4717 55.6704 53.4717Z"/>
</mask>
<path d="M61.8936 5H6.21581C5.54436 5 5 5.54436 5 6.21581V58.9481C5 59.6195 5.54436 60.1639 6.21581 60.1639C6.88727 60.1639 7.43163 59.6195 7.43163 58.9481V7.43163H60.6778V17.8049C60.6778 18.4764 61.222 19.0208 61.8936 19.0208C62.5652 19.0208 63.1094 18.4764 63.1094 17.8049V6.21581C63.1094 5.54436 62.5652 5 61.8936 5Z" fill="#FF1515"/>
<path d="M61.8936 22.2791C61.222 22.2791 60.6778 22.8235 60.6778 23.4949V83.4762L57.2514 79.4454C57.0203 79.1735 56.6816 79.0169 56.3248 79.0169C55.9682 79.0169 55.6295 79.1737 55.3985 79.4455L50.758 84.9063L46.1162 79.4455C45.885 79.1737 45.5464 79.0171 45.1896 79.0171C44.833 79.0171 44.4943 79.1737 44.2633 79.4455L39.6226 84.9063L34.9808 79.4455C34.7497 79.1738 34.411 79.0171 34.0544 79.0171C33.6977 79.0171 33.3589 79.1737 33.1281 79.4455L28.4861 84.9063L23.8458 79.4455C23.6147 79.1737 23.2761 79.0169 22.9193 79.0169C22.5627 79.0169 22.2239 79.1735 21.993 79.4454L17.351 84.9062L12.7107 79.4454C12.4797 79.1735 12.141 79.0168 11.7842 79.0168C11.4276 79.0168 11.0888 79.1734 10.858 79.4452L7.43163 83.476V64.6381C7.43163 63.9666 6.88727 63.4223 6.21581 63.4223C5.54436 63.4223 5 63.9666 5 64.6381V86.7837C5 87.2934 5.31789 87.7491 5.79644 87.9249C6.2745 88.1005 6.81205 87.9595 7.14226 87.5712L11.7842 82.1104L16.4246 87.5712C16.6556 87.8431 16.9942 87.9998 17.351 87.9998C17.7077 87.9998 18.0465 87.8432 18.2773 87.5714L22.9193 82.1106L27.5597 87.5714C27.7907 87.8432 28.1293 88 28.4861 88C28.8427 88 29.1816 87.8434 29.4124 87.5715L34.0547 82.11L38.6967 87.5709C38.9278 87.8428 39.2665 87.9994 39.6231 87.9994C39.9799 87.9994 40.3186 87.8428 40.5496 87.5709L45.1902 82.1101L49.8321 87.5709C50.0632 87.8428 50.4019 87.9994 50.7587 87.9994C51.1153 87.9994 51.454 87.8426 51.685 87.5707L56.3255 82.11L60.9674 87.5707C61.2032 87.8479 61.5442 87.9992 61.8942 87.9992C62.0344 87.9992 62.1765 87.9749 62.3134 87.9245C62.7918 87.7486 63.1097 87.2929 63.1097 86.7832V23.4949C63.1094 22.8235 62.5652 22.2791 61.8936 22.2791Z" fill="#FF1515"/>
<path d="M48.7928 10.2402H19.3166C18.6452 10.2402 18.1008 10.7845 18.1008 11.456V16.6961C18.1008 17.3676 18.6452 17.9119 19.3166 17.9119H48.7926C49.4642 17.9119 50.0084 17.3676 50.0084 16.6961V11.456C50.0086 10.7845 49.4642 10.2402 48.7928 10.2402ZM47.577 15.4803H20.5324V12.6718H47.5768V15.4803H47.577Z" fill="#FF1515"/>
<path d="M12.439 36.2526H38.6398C39.3114 36.2526 39.8556 35.7082 39.8556 35.0367C39.8556 34.3653 39.3114 33.8209 38.6398 33.8209H12.439C11.7675 33.8209 11.2232 34.3653 11.2232 35.0367C11.2232 35.7082 11.7674 36.2526 12.439 36.2526Z" fill="#FF1515"/>
<path d="M11.2232 28.4866C11.2232 29.158 11.7675 29.7024 12.439 29.7024H38.6398C39.3114 29.7024 39.8556 29.158 39.8556 28.4866C39.8556 27.8151 39.3114 27.2708 38.6398 27.2708H12.439C11.7674 27.2708 11.2232 27.8151 11.2232 28.4866Z" fill="#FF1515"/>
<path d="M12.439 42.8029H38.6398C39.3114 42.8029 39.8556 42.2585 39.8556 41.5871C39.8556 40.9156 39.3114 40.3712 38.6398 40.3712H12.439C11.7675 40.3712 11.2232 40.9156 11.2232 41.5871C11.2232 42.2585 11.7674 42.8029 12.439 42.8029Z" fill="#FF1515"/>
<path d="M12.439 49.353H38.6398C39.3114 49.353 39.8556 48.8087 39.8556 48.1372C39.8556 47.4658 39.3114 46.9214 38.6398 46.9214H12.439C11.7675 46.9214 11.2232 47.4658 11.2232 48.1372C11.2232 48.8087 11.7674 49.353 12.439 49.353Z" fill="#FF1515"/>
<path d="M55.6704 33.8209H50.1026C49.431 33.8209 48.8868 34.3653 48.8868 35.0367C48.8868 35.7082 49.431 36.2526 50.1026 36.2526H55.6704C56.342 36.2526 56.8862 35.7082 56.8862 35.0367C56.8862 34.3653 56.342 33.8209 55.6704 33.8209Z" fill="#FF1515"/>
<path d="M55.6704 27.2708H50.1026C49.431 27.2708 48.8868 27.8151 48.8868 28.4866C48.8868 29.158 49.431 29.7024 50.1026 29.7024H55.6704C56.342 29.7024 56.8862 29.158 56.8862 28.4866C56.8862 27.8151 56.342 27.2708 55.6704 27.2708Z" fill="#FF1515"/>
<path d="M55.6704 40.3712H50.1026C49.431 40.3712 48.8868 40.9156 48.8868 41.5871C48.8868 42.2585 49.431 42.8029 50.1026 42.8029H55.6704C56.342 42.8029 56.8862 42.2585 56.8862 41.5871C56.8862 40.9156 56.342 40.3712 55.6704 40.3712Z" fill="#FF1515"/>
<path d="M55.6704 46.9214H50.1026C49.431 46.9214 48.8868 47.4658 48.8868 48.1372C48.8868 48.8087 49.431 49.353 50.1026 49.353H55.6704C56.342 49.353 56.8862 48.8087 56.8862 48.1372C56.8862 47.4658 56.342 46.9214 55.6704 46.9214Z" fill="#FF1515"/>
<path d="M55.6704 53.4717H50.1026C49.431 53.4717 48.8868 54.0161 48.8868 54.6875C48.8868 55.359 49.431 55.9033 50.1026 55.9033H55.6704C56.342 55.9033 56.8862 55.359 56.8862 54.6875C56.8862 54.0161 56.342 53.4717 55.6704 53.4717Z" fill="#FF1515"/>
<path d="M61.8936 5H6.21581C5.54436 5 5 5.54436 5 6.21581V58.9481C5 59.6195 5.54436 60.1639 6.21581 60.1639C6.88727 60.1639 7.43163 59.6195 7.43163 58.9481V7.43163H60.6778V17.8049C60.6778 18.4764 61.222 19.0208 61.8936 19.0208C62.5652 19.0208 63.1094 18.4764 63.1094 17.8049V6.21581C63.1094 5.54436 62.5652 5 61.8936 5Z" stroke="#F9FBFD" stroke-width="10" mask="url(#path-1-outside-1_24_1410)"/>
<path d="M61.8936 22.2791C61.222 22.2791 60.6778 22.8235 60.6778 23.4949V83.4762L57.2514 79.4454C57.0203 79.1735 56.6816 79.0169 56.3248 79.0169C55.9682 79.0169 55.6295 79.1737 55.3985 79.4455L50.758 84.9063L46.1162 79.4455C45.885 79.1737 45.5464 79.0171 45.1896 79.0171C44.833 79.0171 44.4943 79.1737 44.2633 79.4455L39.6226 84.9063L34.9808 79.4455C34.7497 79.1738 34.411 79.0171 34.0544 79.0171C33.6977 79.0171 33.3589 79.1737 33.1281 79.4455L28.4861 84.9063L23.8458 79.4455C23.6147 79.1737 23.2761 79.0169 22.9193 79.0169C22.5627 79.0169 22.2239 79.1735 21.993 79.4454L17.351 84.9062L12.7107 79.4454C12.4797 79.1735 12.141 79.0168 11.7842 79.0168C11.4276 79.0168 11.0888 79.1734 10.858 79.4452L7.43163 83.476V64.6381C7.43163 63.9666 6.88727 63.4223 6.21581 63.4223C5.54436 63.4223 5 63.9666 5 64.6381V86.7837C5 87.2934 5.31789 87.7491 5.79644 87.9249C6.2745 88.1005 6.81205 87.9595 7.14226 87.5712L11.7842 82.1104L16.4246 87.5712C16.6556 87.8431 16.9942 87.9998 17.351 87.9998C17.7077 87.9998 18.0465 87.8432 18.2773 87.5714L22.9193 82.1106L27.5597 87.5714C27.7907 87.8432 28.1293 88 28.4861 88C28.8427 88 29.1816 87.8434 29.4124 87.5715L34.0547 82.11L38.6967 87.5709C38.9278 87.8428 39.2665 87.9994 39.6231 87.9994C39.9799 87.9994 40.3186 87.8428 40.5496 87.5709L45.1902 82.1101L49.8321 87.5709C50.0632 87.8428 50.4019 87.9994 50.7587 87.9994C51.1153 87.9994 51.454 87.8426 51.685 87.5707L56.3255 82.11L60.9674 87.5707C61.2032 87.8479 61.5442 87.9992 61.8942 87.9992C62.0344 87.9992 62.1765 87.9749 62.3134 87.9245C62.7918 87.7486 63.1097 87.2929 63.1097 86.7832V23.4949C63.1094 22.8235 62.5652 22.2791 61.8936 22.2791Z" stroke="#F9FBFD" stroke-width="10" mask="url(#path-1-outside-1_24_1410)"/>
<path d="M48.7928 10.2402H19.3166C18.6452 10.2402 18.1008 10.7845 18.1008 11.456V16.6961C18.1008 17.3676 18.6452 17.9119 19.3166 17.9119H48.7926C49.4642 17.9119 50.0084 17.3676 50.0084 16.6961V11.456C50.0086 10.7845 49.4642 10.2402 48.7928 10.2402ZM47.577 15.4803H20.5324V12.6718H47.5768V15.4803H47.577Z" stroke="#F9FBFD" stroke-width="10" mask="url(#path-1-outside-1_24_1410)"/>
<path d="M12.439 36.2526H38.6398C39.3114 36.2526 39.8556 35.7082 39.8556 35.0367C39.8556 34.3653 39.3114 33.8209 38.6398 33.8209H12.439C11.7675 33.8209 11.2232 34.3653 11.2232 35.0367C11.2232 35.7082 11.7674 36.2526 12.439 36.2526Z" stroke="#F9FBFD" stroke-width="10" mask="url(#path-1-outside-1_24_1410)"/>
<path d="M11.2232 28.4866C11.2232 29.158 11.7675 29.7024 12.439 29.7024H38.6398C39.3114 29.7024 39.8556 29.158 39.8556 28.4866C39.8556 27.8151 39.3114 27.2708 38.6398 27.2708H12.439C11.7674 27.2708 11.2232 27.8151 11.2232 28.4866Z" stroke="#F9FBFD" stroke-width="10" mask="url(#path-1-outside-1_24_1410)"/>
<path d="M12.439 42.8029H38.6398C39.3114 42.8029 39.8556 42.2585 39.8556 41.5871C39.8556 40.9156 39.3114 40.3712 38.6398 40.3712H12.439C11.7675 40.3712 11.2232 40.9156 11.2232 41.5871C11.2232 42.2585 11.7674 42.8029 12.439 42.8029Z" stroke="#F9FBFD" stroke-width="10" mask="url(#path-1-outside-1_24_1410)"/>
<path d="M12.439 49.353H38.6398C39.3114 49.353 39.8556 48.8087 39.8556 48.1372C39.8556 47.4658 39.3114 46.9214 38.6398 46.9214H12.439C11.7675 46.9214 11.2232 47.4658 11.2232 48.1372C11.2232 48.8087 11.7674 49.353 12.439 49.353Z" stroke="#F9FBFD" stroke-width="10" mask="url(#path-1-outside-1_24_1410)"/>
<path d="M55.6704 33.8209H50.1026C49.431 33.8209 48.8868 34.3653 48.8868 35.0367C48.8868 35.7082 49.431 36.2526 50.1026 36.2526H55.6704C56.342 36.2526 56.8862 35.7082 56.8862 35.0367C56.8862 34.3653 56.342 33.8209 55.6704 33.8209Z" stroke="#F9FBFD" stroke-width="10" mask="url(#path-1-outside-1_24_1410)"/>
<path d="M55.6704 27.2708H50.1026C49.431 27.2708 48.8868 27.8151 48.8868 28.4866C48.8868 29.158 49.431 29.7024 50.1026 29.7024H55.6704C56.342 29.7024 56.8862 29.158 56.8862 28.4866C56.8862 27.8151 56.342 27.2708 55.6704 27.2708Z" stroke="#F9FBFD" stroke-width="10" mask="url(#path-1-outside-1_24_1410)"/>
<path d="M55.6704 40.3712H50.1026C49.431 40.3712 48.8868 40.9156 48.8868 41.5871C48.8868 42.2585 49.431 42.8029 50.1026 42.8029H55.6704C56.342 42.8029 56.8862 42.2585 56.8862 41.5871C56.8862 40.9156 56.342 40.3712 55.6704 40.3712Z" stroke="#F9FBFD" stroke-width="10" mask="url(#path-1-outside-1_24_1410)"/>
<path d="M55.6704 46.9214H50.1026C49.431 46.9214 48.8868 47.4658 48.8868 48.1372C48.8868 48.8087 49.431 49.353 50.1026 49.353H55.6704C56.342 49.353 56.8862 48.8087 56.8862 48.1372C56.8862 47.4658 56.342 46.9214 55.6704 46.9214Z" stroke="#F9FBFD" stroke-width="10" mask="url(#path-1-outside-1_24_1410)"/>
<path d="M55.6704 53.4717H50.1026C49.431 53.4717 48.8868 54.0161 48.8868 54.6875C48.8868 55.359 49.431 55.9033 50.1026 55.9033H55.6704C56.342 55.9033 56.8862 55.359 56.8862 54.6875C56.8862 54.0161 56.342 53.4717 55.6704 53.4717Z" stroke="#F9FBFD" stroke-width="10" mask="url(#path-1-outside-1_24_1410)"/>
</svg>
