<svg width="94" height="93" viewBox="0 0 94 93" fill="none" xmlns="http://www.w3.org/2000/svg">
<mask id="path-1-outside-1_24_1428" maskUnits="userSpaceOnUse" x="0" y="-0.000244141" width="94" height="93" fill="black">
<rect fill="white" y="-0.000244141" width="94" height="93"/>
<path d="M87.8615 24.6711C87.5758 23.6086 86.8787 22.7028 85.925 22.1536C84.9706 21.6018 83.8358 21.4525 82.7713 21.7382C81.7081 22.0246 80.8023 22.721 80.2532 23.6748L79.5615 24.8784C78.9043 24.5008 78.0647 24.7231 77.6804 25.3769L74.1667 31.3662L72.963 30.6745C72.6442 30.4901 72.2646 30.4401 71.9093 30.536C71.5533 30.6326 71.2507 30.8663 71.0677 31.1865C70.6928 31.8478 70.9211 32.688 71.5797 33.0676L72.7833 33.7593L61.025 54.1358L58.1199 61.8968L56.7365 64.4831C55.9267 65.8921 56.0131 67.6435 56.9581 68.9654L53.8456 72.7831L52.9742 70.598C52.5811 69.624 51.6713 68.9566 50.625 68.8749C49.578 68.7925 48.575 69.3099 48.0353 70.2103L47.5375 71.0539L47.0674 65.5206C46.9593 64.2116 45.9454 63.1592 44.6418 63.0011C43.3375 62.8438 42.1028 63.6253 41.686 64.8708L38.2831 75.0796C38.0453 75.8017 38.4344 76.5798 39.1544 76.823C39.2895 76.8858 39.4347 76.9236 39.5833 76.9331C40.1777 76.9351 40.7073 76.5562 40.8978 75.9929L44.2865 65.784L44.7708 71.3998C44.8708 72.598 45.732 73.5943 46.9032 73.8658C48.0745 74.1374 49.2863 73.6213 49.9029 72.5899L50.4149 71.7456L51.2728 73.9179C51.6368 74.8331 52.4602 75.4863 53.4349 75.6315C54.4096 75.7767 55.3876 75.3924 56.0037 74.623L59.2269 70.5426C59.5836 70.6358 59.951 70.6824 60.3198 70.6811C61.8024 70.6926 63.179 69.9117 63.9301 68.6331L65.3135 66.323L70.584 59.9184L82.4667 39.2926L83.6703 39.9843C83.9912 40.168 84.2249 40.4713 84.3201 40.8286C84.416 41.1832 84.366 41.5615 84.1823 41.8796L78.649 51.4664C78.4403 51.7811 78.3693 52.1675 78.4531 52.5363C78.5369 52.9044 78.7672 53.2226 79.0914 53.4164C79.4102 53.6015 79.7898 53.6515 80.1451 53.5556C80.5011 53.459 80.8037 53.2253 80.9867 52.9051L86.5201 43.3184C87.0719 42.3639 87.2212 41.2292 86.9348 40.1647C86.6484 39.1015 85.952 38.1957 84.9983 37.6466L83.7946 36.9549L87.2529 30.965C87.6305 30.3077 87.4083 29.4688 86.7551 29.0838L87.4468 27.8801C88.0135 26.9109 88.1635 25.7531 87.8615 24.6711ZM82.6463 25.0581C82.8294 24.7379 83.1333 24.5035 83.4906 24.4083C83.8459 24.3205 84.2215 24.3698 84.5417 24.5468C84.8625 24.7298 85.0962 25.0338 85.1921 25.3904C85.2799 25.7457 85.2306 26.1213 85.0537 26.4414L84.362 27.6451L81.9547 26.2618L82.6463 25.0581ZM63.7917 63.6813L61.0527 62.09L63.0169 56.8336L67.3743 59.351L63.7917 63.6813ZM59.6417 67.6787C59.0574 67.2714 58.8777 66.4878 59.2269 65.8664L59.9186 64.6634L62.3252 66.0468L61.6336 67.2362C61.4397 67.5726 61.1142 67.8117 60.7352 67.8962C60.3563 67.9799 59.9598 67.9016 59.6417 67.6787ZM68.9515 57.0828L64.1652 54.3161L75.2319 35.1426L80.0181 37.9093L68.9515 57.0828ZM81.4015 35.5162L76.6152 32.7495L79.3819 27.9632L84.1681 30.7299L81.4015 35.5162Z"/>
<path d="M26.8287 66.987L21.9323 71.8705L18.9995 68.9377C18.4598 68.4014 17.5885 68.4014 17.0488 68.9377C16.7867 69.1978 16.6395 69.551 16.6395 69.9198C16.6395 70.2886 16.7867 70.6426 17.0488 70.9019L19.9816 73.8348C20.5004 74.3495 21.2015 74.6379 21.9323 74.6372C22.6672 74.6413 23.3744 74.3528 23.8965 73.8348L28.7794 68.9377C29.2495 68.3886 29.2178 67.5706 28.7071 67.06C28.1958 66.5486 27.3778 66.5169 26.8287 66.987Z"/>
<path d="M10.5333 70.7081C10.5333 77.2026 15.7978 82.4664 22.2917 82.4664C28.7855 82.4664 34.05 77.2026 34.05 70.7081C34.05 69.9441 33.4306 69.3248 32.6667 69.3248C31.9027 69.3248 31.2833 69.9441 31.2833 70.7081C31.2833 75.674 27.2576 79.6998 22.2917 79.6998C17.3257 79.6998 13.3 75.674 13.3 70.7081C13.3 65.7421 17.3257 61.7164 22.2917 61.7164C24.2383 61.711 26.133 62.3426 27.6865 63.5152C28.2978 63.9738 29.1651 63.8495 29.6231 63.2382C30.0817 62.6269 29.9581 61.7603 29.3468 61.3017C25.7838 58.6296 21.0164 58.2 17.0332 60.1912C13.0494 62.1832 10.5333 66.2548 10.5333 70.7081Z"/>
<path d="M54.8 16.0664C55.5639 16.0664 56.1833 15.4477 56.1833 14.6831C56.1833 13.9191 55.5639 13.2998 54.8 13.2998H18.8333C18.0694 13.2998 17.45 13.9191 17.45 14.6831V20.2164C17.45 20.981 18.0694 21.5998 18.8333 21.5998H54.8C55.5639 21.5998 56.1833 20.981 56.1833 20.2164C56.1833 19.4525 55.5639 18.8331 54.8 18.8331H20.2167V16.0664H54.8Z"/>
<path d="M22.9833 24.3664C22.2194 24.3664 21.6 24.9858 21.6 25.7498C21.6 26.5144 22.2194 27.1331 22.9833 27.1331H50.65C51.4139 27.1331 52.0333 26.5144 52.0333 25.7498C52.0333 24.9858 51.4139 24.3664 50.65 24.3664H22.9833Z"/>
<path d="M58.95 34.0498H28.5167C27.7527 34.0498 27.1333 34.6691 27.1333 35.4331C27.1333 36.1977 27.7527 36.8164 28.5167 36.8164H58.95C59.7139 36.8164 60.3333 36.1977 60.3333 35.4331C60.3333 34.6691 59.7139 34.0498 58.95 34.0498Z"/>
<path d="M45.1167 43.7331C45.1167 42.9692 44.4973 42.3498 43.7333 42.3498H16.0667C15.3027 42.3498 14.6833 42.9692 14.6833 43.7331C14.6833 44.4977 15.3027 45.1164 16.0667 45.1164H43.7333C44.4973 45.1164 45.1167 44.4977 45.1167 43.7331Z"/>
<path d="M58.95 42.3498H49.2667C48.5027 42.3498 47.8833 42.9692 47.8833 43.7331C47.8833 44.4977 48.5027 45.1164 49.2667 45.1164H58.95C59.7139 45.1164 60.3333 44.4977 60.3333 43.7331C60.3333 42.9692 59.7139 42.3498 58.95 42.3498Z"/>
<path d="M29.9 52.0331C30.6639 52.0331 31.2833 51.4144 31.2833 50.6498C31.2833 49.8858 30.6639 49.2664 29.9 49.2664H16.0667C15.3027 49.2664 14.6833 49.8858 14.6833 50.6498C14.6833 51.4144 15.3027 52.0331 16.0667 52.0331H29.9Z"/>
<path d="M35.4333 52.0331H45.1167C45.8806 52.0331 46.5 51.4144 46.5 50.6498C46.5 49.8858 45.8806 49.2664 45.1167 49.2664H35.4333C34.6694 49.2664 34.05 49.8858 34.05 50.6498C34.05 51.4144 34.6694 52.0331 35.4333 52.0331Z"/>
<path d="M67.25 68.6331C66.4861 68.6331 65.8667 69.2525 65.8667 70.0164V83.8498C65.8667 84.6144 65.2473 85.2331 64.4833 85.2331H9.15C8.38606 85.2331 7.76667 84.6144 7.76667 83.8498V9.14976C7.76667 8.38582 8.38606 7.76642 9.15 7.76642H64.4833C65.2473 7.76642 65.8667 8.38582 65.8667 9.14976V35.1291C65.8667 35.8931 66.4861 36.5125 67.25 36.5125C68.0139 36.5125 68.6333 35.8931 68.6333 35.1291V9.14976C68.6333 6.85793 66.7752 4.99976 64.4833 4.99976H9.15C6.85818 4.99976 5 6.85793 5 9.14976V83.8498C5 86.1423 6.85818 87.9998 9.15 87.9998H64.4833C66.7752 87.9998 68.6333 86.1423 68.6333 83.8498V70.0164C68.6333 69.2525 68.0139 68.6331 67.25 68.6331Z"/>
</mask>
<path d="M87.8615 24.6711C87.5758 23.6086 86.8787 22.7028 85.925 22.1536C84.9706 21.6018 83.8358 21.4525 82.7713 21.7382C81.7081 22.0246 80.8023 22.721 80.2532 23.6748L79.5615 24.8784C78.9043 24.5008 78.0647 24.7231 77.6804 25.3769L74.1667 31.3662L72.963 30.6745C72.6442 30.4901 72.2646 30.4401 71.9093 30.536C71.5533 30.6326 71.2507 30.8663 71.0677 31.1865C70.6928 31.8478 70.9211 32.688 71.5797 33.0676L72.7833 33.7593L61.025 54.1358L58.1199 61.8968L56.7365 64.4831C55.9267 65.8921 56.0131 67.6435 56.9581 68.9654L53.8456 72.7831L52.9742 70.598C52.5811 69.624 51.6713 68.9566 50.625 68.8749C49.578 68.7925 48.575 69.3099 48.0353 70.2103L47.5375 71.0539L47.0674 65.5206C46.9593 64.2116 45.9454 63.1592 44.6418 63.0011C43.3375 62.8438 42.1028 63.6253 41.686 64.8708L38.2831 75.0796C38.0453 75.8017 38.4344 76.5798 39.1544 76.823C39.2895 76.8858 39.4347 76.9236 39.5833 76.9331C40.1777 76.9351 40.7073 76.5562 40.8978 75.9929L44.2865 65.784L44.7708 71.3998C44.8708 72.598 45.732 73.5943 46.9032 73.8658C48.0745 74.1374 49.2863 73.6213 49.9029 72.5899L50.4149 71.7456L51.2728 73.9179C51.6368 74.8331 52.4602 75.4863 53.4349 75.6315C54.4096 75.7767 55.3876 75.3924 56.0037 74.623L59.2269 70.5426C59.5836 70.6358 59.951 70.6824 60.3198 70.6811C61.8024 70.6926 63.179 69.9117 63.9301 68.6331L65.3135 66.323L70.584 59.9184L82.4667 39.2926L83.6703 39.9843C83.9912 40.168 84.2249 40.4713 84.3201 40.8286C84.416 41.1832 84.366 41.5615 84.1823 41.8796L78.649 51.4664C78.4403 51.7811 78.3693 52.1675 78.4531 52.5363C78.5369 52.9044 78.7672 53.2226 79.0914 53.4164C79.4102 53.6015 79.7898 53.6515 80.1451 53.5556C80.5011 53.459 80.8037 53.2253 80.9867 52.9051L86.5201 43.3184C87.0719 42.3639 87.2212 41.2292 86.9348 40.1647C86.6484 39.1015 85.952 38.1957 84.9983 37.6466L83.7946 36.9549L87.2529 30.965C87.6305 30.3077 87.4083 29.4688 86.7551 29.0838L87.4468 27.8801C88.0135 26.9109 88.1635 25.7531 87.8615 24.6711ZM82.6463 25.0581C82.8294 24.7379 83.1333 24.5035 83.4906 24.4083C83.8459 24.3205 84.2215 24.3698 84.5417 24.5468C84.8625 24.7298 85.0962 25.0338 85.1921 25.3904C85.2799 25.7457 85.2306 26.1213 85.0537 26.4414L84.362 27.6451L81.9547 26.2618L82.6463 25.0581ZM63.7917 63.6813L61.0527 62.09L63.0169 56.8336L67.3743 59.351L63.7917 63.6813ZM59.6417 67.6787C59.0574 67.2714 58.8777 66.4878 59.2269 65.8664L59.9186 64.6634L62.3252 66.0468L61.6336 67.2362C61.4397 67.5726 61.1142 67.8117 60.7352 67.8962C60.3563 67.9799 59.9598 67.9016 59.6417 67.6787ZM68.9515 57.0828L64.1652 54.3161L75.2319 35.1426L80.0181 37.9093L68.9515 57.0828ZM81.4015 35.5162L76.6152 32.7495L79.3819 27.9632L84.1681 30.7299L81.4015 35.5162Z" fill="#FF1515"/>
<path d="M26.8287 66.987L21.9323 71.8705L18.9995 68.9377C18.4598 68.4014 17.5885 68.4014 17.0488 68.9377C16.7867 69.1978 16.6395 69.551 16.6395 69.9198C16.6395 70.2886 16.7867 70.6426 17.0488 70.9019L19.9816 73.8348C20.5004 74.3495 21.2015 74.6379 21.9323 74.6372C22.6672 74.6413 23.3744 74.3528 23.8965 73.8348L28.7794 68.9377C29.2495 68.3886 29.2178 67.5706 28.7071 67.06C28.1958 66.5486 27.3778 66.5169 26.8287 66.987Z" fill="#FF1515"/>
<path d="M10.5333 70.7081C10.5333 77.2026 15.7978 82.4664 22.2917 82.4664C28.7855 82.4664 34.05 77.2026 34.05 70.7081C34.05 69.9441 33.4306 69.3248 32.6667 69.3248C31.9027 69.3248 31.2833 69.9441 31.2833 70.7081C31.2833 75.674 27.2576 79.6998 22.2917 79.6998C17.3257 79.6998 13.3 75.674 13.3 70.7081C13.3 65.7421 17.3257 61.7164 22.2917 61.7164C24.2383 61.711 26.133 62.3426 27.6865 63.5152C28.2978 63.9738 29.1651 63.8495 29.6231 63.2382C30.0817 62.6269 29.9581 61.7603 29.3468 61.3017C25.7838 58.6296 21.0164 58.2 17.0332 60.1912C13.0494 62.1832 10.5333 66.2548 10.5333 70.7081Z" fill="#FF1515"/>
<path d="M54.8 16.0664C55.5639 16.0664 56.1833 15.4477 56.1833 14.6831C56.1833 13.9191 55.5639 13.2998 54.8 13.2998H18.8333C18.0694 13.2998 17.45 13.9191 17.45 14.6831V20.2164C17.45 20.981 18.0694 21.5998 18.8333 21.5998H54.8C55.5639 21.5998 56.1833 20.981 56.1833 20.2164C56.1833 19.4525 55.5639 18.8331 54.8 18.8331H20.2167V16.0664H54.8Z" fill="#FF1515"/>
<path d="M22.9833 24.3664C22.2194 24.3664 21.6 24.9858 21.6 25.7498C21.6 26.5144 22.2194 27.1331 22.9833 27.1331H50.65C51.4139 27.1331 52.0333 26.5144 52.0333 25.7498C52.0333 24.9858 51.4139 24.3664 50.65 24.3664H22.9833Z" fill="#FF1515"/>
<path d="M58.95 34.0498H28.5167C27.7527 34.0498 27.1333 34.6691 27.1333 35.4331C27.1333 36.1977 27.7527 36.8164 28.5167 36.8164H58.95C59.7139 36.8164 60.3333 36.1977 60.3333 35.4331C60.3333 34.6691 59.7139 34.0498 58.95 34.0498Z" fill="#FF1515"/>
<path d="M45.1167 43.7331C45.1167 42.9692 44.4973 42.3498 43.7333 42.3498H16.0667C15.3027 42.3498 14.6833 42.9692 14.6833 43.7331C14.6833 44.4977 15.3027 45.1164 16.0667 45.1164H43.7333C44.4973 45.1164 45.1167 44.4977 45.1167 43.7331Z" fill="#FF1515"/>
<path d="M58.95 42.3498H49.2667C48.5027 42.3498 47.8833 42.9692 47.8833 43.7331C47.8833 44.4977 48.5027 45.1164 49.2667 45.1164H58.95C59.7139 45.1164 60.3333 44.4977 60.3333 43.7331C60.3333 42.9692 59.7139 42.3498 58.95 42.3498Z" fill="#FF1515"/>
<path d="M29.9 52.0331C30.6639 52.0331 31.2833 51.4144 31.2833 50.6498C31.2833 49.8858 30.6639 49.2664 29.9 49.2664H16.0667C15.3027 49.2664 14.6833 49.8858 14.6833 50.6498C14.6833 51.4144 15.3027 52.0331 16.0667 52.0331H29.9Z" fill="#FF1515"/>
<path d="M35.4333 52.0331H45.1167C45.8806 52.0331 46.5 51.4144 46.5 50.6498C46.5 49.8858 45.8806 49.2664 45.1167 49.2664H35.4333C34.6694 49.2664 34.05 49.8858 34.05 50.6498C34.05 51.4144 34.6694 52.0331 35.4333 52.0331Z" fill="#FF1515"/>
<path d="M67.25 68.6331C66.4861 68.6331 65.8667 69.2525 65.8667 70.0164V83.8498C65.8667 84.6144 65.2473 85.2331 64.4833 85.2331H9.15C8.38606 85.2331 7.76667 84.6144 7.76667 83.8498V9.14976C7.76667 8.38582 8.38606 7.76642 9.15 7.76642H64.4833C65.2473 7.76642 65.8667 8.38582 65.8667 9.14976V35.1291C65.8667 35.8931 66.4861 36.5125 67.25 36.5125C68.0139 36.5125 68.6333 35.8931 68.6333 35.1291V9.14976C68.6333 6.85793 66.7752 4.99976 64.4833 4.99976H9.15C6.85818 4.99976 5 6.85793 5 9.14976V83.8498C5 86.1423 6.85818 87.9998 9.15 87.9998H64.4833C66.7752 87.9998 68.6333 86.1423 68.6333 83.8498V70.0164C68.6333 69.2525 68.0139 68.6331 67.25 68.6331Z" fill="#FF1515"/>
<path d="M87.8615 24.6711C87.5758 23.6086 86.8787 22.7028 85.925 22.1536C84.9706 21.6018 83.8358 21.4525 82.7713 21.7382C81.7081 22.0246 80.8023 22.721 80.2532 23.6748L79.5615 24.8784C78.9043 24.5008 78.0647 24.7231 77.6804 25.3769L74.1667 31.3662L72.963 30.6745C72.6442 30.4901 72.2646 30.4401 71.9093 30.536C71.5533 30.6326 71.2507 30.8663 71.0677 31.1865C70.6928 31.8478 70.9211 32.688 71.5797 33.0676L72.7833 33.7593L61.025 54.1358L58.1199 61.8968L56.7365 64.4831C55.9267 65.8921 56.0131 67.6435 56.9581 68.9654L53.8456 72.7831L52.9742 70.598C52.5811 69.624 51.6713 68.9566 50.625 68.8749C49.578 68.7925 48.575 69.3099 48.0353 70.2103L47.5375 71.0539L47.0674 65.5206C46.9593 64.2116 45.9454 63.1592 44.6418 63.0011C43.3375 62.8438 42.1028 63.6253 41.686 64.8708L38.2831 75.0796C38.0453 75.8017 38.4344 76.5798 39.1544 76.823C39.2895 76.8858 39.4347 76.9236 39.5833 76.9331C40.1777 76.9351 40.7073 76.5562 40.8978 75.9929L44.2865 65.784L44.7708 71.3998C44.8708 72.598 45.732 73.5943 46.9032 73.8658C48.0745 74.1374 49.2863 73.6213 49.9029 72.5899L50.4149 71.7456L51.2728 73.9179C51.6368 74.8331 52.4602 75.4863 53.4349 75.6315C54.4096 75.7767 55.3876 75.3924 56.0037 74.623L59.2269 70.5426C59.5836 70.6358 59.951 70.6824 60.3198 70.6811C61.8024 70.6926 63.179 69.9117 63.9301 68.6331L65.3135 66.323L70.584 59.9184L82.4667 39.2926L83.6703 39.9843C83.9912 40.168 84.2249 40.4713 84.3201 40.8286C84.416 41.1832 84.366 41.5615 84.1823 41.8796L78.649 51.4664C78.4403 51.7811 78.3693 52.1675 78.4531 52.5363C78.5369 52.9044 78.7672 53.2226 79.0914 53.4164C79.4102 53.6015 79.7898 53.6515 80.1451 53.5556C80.5011 53.459 80.8037 53.2253 80.9867 52.9051L86.5201 43.3184C87.0719 42.3639 87.2212 41.2292 86.9348 40.1647C86.6484 39.1015 85.952 38.1957 84.9983 37.6466L83.7946 36.9549L87.2529 30.965C87.6305 30.3077 87.4083 29.4688 86.7551 29.0838L87.4468 27.8801C88.0135 26.9109 88.1635 25.7531 87.8615 24.6711ZM82.6463 25.0581C82.8294 24.7379 83.1333 24.5035 83.4906 24.4083C83.8459 24.3205 84.2215 24.3698 84.5417 24.5468C84.8625 24.7298 85.0962 25.0338 85.1921 25.3904C85.2799 25.7457 85.2306 26.1213 85.0537 26.4414L84.362 27.6451L81.9547 26.2618L82.6463 25.0581ZM63.7917 63.6813L61.0527 62.09L63.0169 56.8336L67.3743 59.351L63.7917 63.6813ZM59.6417 67.6787C59.0574 67.2714 58.8777 66.4878 59.2269 65.8664L59.9186 64.6634L62.3252 66.0468L61.6336 67.2362C61.4397 67.5726 61.1142 67.8117 60.7352 67.8962C60.3563 67.9799 59.9598 67.9016 59.6417 67.6787ZM68.9515 57.0828L64.1652 54.3161L75.2319 35.1426L80.0181 37.9093L68.9515 57.0828ZM81.4015 35.5162L76.6152 32.7495L79.3819 27.9632L84.1681 30.7299L81.4015 35.5162Z" stroke="#F9FBFD" stroke-width="10" mask="url(#path-1-outside-1_24_1428)"/>
<path d="M26.8287 66.987L21.9323 71.8705L18.9995 68.9377C18.4598 68.4014 17.5885 68.4014 17.0488 68.9377C16.7867 69.1978 16.6395 69.551 16.6395 69.9198C16.6395 70.2886 16.7867 70.6426 17.0488 70.9019L19.9816 73.8348C20.5004 74.3495 21.2015 74.6379 21.9323 74.6372C22.6672 74.6413 23.3744 74.3528 23.8965 73.8348L28.7794 68.9377C29.2495 68.3886 29.2178 67.5706 28.7071 67.06C28.1958 66.5486 27.3778 66.5169 26.8287 66.987Z" stroke="#F9FBFD" stroke-width="10" mask="url(#path-1-outside-1_24_1428)"/>
<path d="M10.5333 70.7081C10.5333 77.2026 15.7978 82.4664 22.2917 82.4664C28.7855 82.4664 34.05 77.2026 34.05 70.7081C34.05 69.9441 33.4306 69.3248 32.6667 69.3248C31.9027 69.3248 31.2833 69.9441 31.2833 70.7081C31.2833 75.674 27.2576 79.6998 22.2917 79.6998C17.3257 79.6998 13.3 75.674 13.3 70.7081C13.3 65.7421 17.3257 61.7164 22.2917 61.7164C24.2383 61.711 26.133 62.3426 27.6865 63.5152C28.2978 63.9738 29.1651 63.8495 29.6231 63.2382C30.0817 62.6269 29.9581 61.7603 29.3468 61.3017C25.7838 58.6296 21.0164 58.2 17.0332 60.1912C13.0494 62.1832 10.5333 66.2548 10.5333 70.7081Z" stroke="#F9FBFD" stroke-width="10" mask="url(#path-1-outside-1_24_1428)"/>
<path d="M54.8 16.0664C55.5639 16.0664 56.1833 15.4477 56.1833 14.6831C56.1833 13.9191 55.5639 13.2998 54.8 13.2998H18.8333C18.0694 13.2998 17.45 13.9191 17.45 14.6831V20.2164C17.45 20.981 18.0694 21.5998 18.8333 21.5998H54.8C55.5639 21.5998 56.1833 20.981 56.1833 20.2164C56.1833 19.4525 55.5639 18.8331 54.8 18.8331H20.2167V16.0664H54.8Z" stroke="#F9FBFD" stroke-width="10" mask="url(#path-1-outside-1_24_1428)"/>
<path d="M22.9833 24.3664C22.2194 24.3664 21.6 24.9858 21.6 25.7498C21.6 26.5144 22.2194 27.1331 22.9833 27.1331H50.65C51.4139 27.1331 52.0333 26.5144 52.0333 25.7498C52.0333 24.9858 51.4139 24.3664 50.65 24.3664H22.9833Z" stroke="#F9FBFD" stroke-width="10" mask="url(#path-1-outside-1_24_1428)"/>
<path d="M58.95 34.0498H28.5167C27.7527 34.0498 27.1333 34.6691 27.1333 35.4331C27.1333 36.1977 27.7527 36.8164 28.5167 36.8164H58.95C59.7139 36.8164 60.3333 36.1977 60.3333 35.4331C60.3333 34.6691 59.7139 34.0498 58.95 34.0498Z" stroke="#F9FBFD" stroke-width="10" mask="url(#path-1-outside-1_24_1428)"/>
<path d="M45.1167 43.7331C45.1167 42.9692 44.4973 42.3498 43.7333 42.3498H16.0667C15.3027 42.3498 14.6833 42.9692 14.6833 43.7331C14.6833 44.4977 15.3027 45.1164 16.0667 45.1164H43.7333C44.4973 45.1164 45.1167 44.4977 45.1167 43.7331Z" stroke="#F9FBFD" stroke-width="10" mask="url(#path-1-outside-1_24_1428)"/>
<path d="M58.95 42.3498H49.2667C48.5027 42.3498 47.8833 42.9692 47.8833 43.7331C47.8833 44.4977 48.5027 45.1164 49.2667 45.1164H58.95C59.7139 45.1164 60.3333 44.4977 60.3333 43.7331C60.3333 42.9692 59.7139 42.3498 58.95 42.3498Z" stroke="#F9FBFD" stroke-width="10" mask="url(#path-1-outside-1_24_1428)"/>
<path d="M29.9 52.0331C30.6639 52.0331 31.2833 51.4144 31.2833 50.6498C31.2833 49.8858 30.6639 49.2664 29.9 49.2664H16.0667C15.3027 49.2664 14.6833 49.8858 14.6833 50.6498C14.6833 51.4144 15.3027 52.0331 16.0667 52.0331H29.9Z" stroke="#F9FBFD" stroke-width="10" mask="url(#path-1-outside-1_24_1428)"/>
<path d="M35.4333 52.0331H45.1167C45.8806 52.0331 46.5 51.4144 46.5 50.6498C46.5 49.8858 45.8806 49.2664 45.1167 49.2664H35.4333C34.6694 49.2664 34.05 49.8858 34.05 50.6498C34.05 51.4144 34.6694 52.0331 35.4333 52.0331Z" stroke="#F9FBFD" stroke-width="10" mask="url(#path-1-outside-1_24_1428)"/>
<path d="M67.25 68.6331C66.4861 68.6331 65.8667 69.2525 65.8667 70.0164V83.8498C65.8667 84.6144 65.2473 85.2331 64.4833 85.2331H9.15C8.38606 85.2331 7.76667 84.6144 7.76667 83.8498V9.14976C7.76667 8.38582 8.38606 7.76642 9.15 7.76642H64.4833C65.2473 7.76642 65.8667 8.38582 65.8667 9.14976V35.1291C65.8667 35.8931 66.4861 36.5125 67.25 36.5125C68.0139 36.5125 68.6333 35.8931 68.6333 35.1291V9.14976C68.6333 6.85793 66.7752 4.99976 64.4833 4.99976H9.15C6.85818 4.99976 5 6.85793 5 9.14976V83.8498C5 86.1423 6.85818 87.9998 9.15 87.9998H64.4833C66.7752 87.9998 68.6333 86.1423 68.6333 83.8498V70.0164C68.6333 69.2525 68.0139 68.6331 67.25 68.6331Z" stroke="#F9FBFD" stroke-width="10" mask="url(#path-1-outside-1_24_1428)"/>
</svg>
