<svg width="85" height="96" viewBox="0 0 85 96" fill="none" xmlns="http://www.w3.org/2000/svg">
<mask id="path-1-outside-1_24_1370" maskUnits="userSpaceOnUse" x="0" y="-0.000244141" width="85" height="97" fill="black">
<rect fill="white" y="-0.000244141" width="85" height="97"/>
<path d="M54.8869 30.3391H14.9432C14.2655 30.3391 13.7162 30.8857 13.7162 31.5601C13.7162 32.2345 14.2655 32.7811 14.9432 32.7811H54.887C55.5647 32.7811 56.1141 32.2345 56.1141 31.5601C56.1141 30.8857 55.5646 30.3391 54.8869 30.3391Z"/>
<path d="M14.9432 24.3114H34.9149C35.5927 24.3114 36.142 23.7647 36.142 23.0904C36.142 22.416 35.5927 21.8694 34.9149 21.8694H14.9432C14.2655 21.8694 13.7162 22.416 13.7162 23.0904C13.7162 23.7649 14.2655 24.3114 14.9432 24.3114Z"/>
<path d="M54.8869 37.8435H14.9432C14.2655 37.8435 13.7162 38.3901 13.7162 39.0645C13.7162 39.7388 14.2655 40.2855 14.9432 40.2855H54.887C55.5647 40.2855 56.1141 39.7388 56.1141 39.0645C56.1139 38.3901 55.5646 37.8435 54.8869 37.8435Z"/>
<path d="M24.0422 82.5163H11.2592C9.16104 82.5163 7.45391 80.8177 7.45391 78.7299V14.2282C7.45391 12.1404 9.16104 10.4416 11.2592 10.4416H48.0859C48.2048 10.4416 48.3219 10.4525 48.4378 10.468V18.083C48.4378 21.5174 51.2457 24.3114 54.6969 24.3114H62.3493C62.3651 24.4268 62.3758 24.5433 62.3758 24.6617V45.454C62.3758 46.1284 62.9252 46.675 63.6029 46.675C64.2806 46.675 64.8299 46.1284 64.8299 45.454V24.6618C64.8299 23.3225 64.3057 22.0632 63.3539 21.116L51.6489 9.46847C50.6972 8.52142 49.4318 7.99976 48.0859 7.99976H11.2592C7.80775 7.99976 5 10.7939 5 14.2282V78.7299C5 82.1642 7.80791 84.9581 11.2592 84.9581H24.0422C24.7199 84.9581 25.2692 84.4115 25.2692 83.7371C25.2692 83.0627 24.7199 82.5163 24.0422 82.5163ZM60.6407 21.8695H54.6971C52.599 21.8695 50.8918 20.1708 50.8918 18.083V12.1686L60.6407 21.8695Z"/>
<path d="M78.6723 67.7742L68.2758 50.3118C67.5181 49.0386 65.8691 48.6177 64.589 49.3723L62.0601 50.8633C60.0972 52.0204 59.2675 54.3621 59.9415 56.4372C59.0894 56.7444 58.1553 56.7396 57.2952 56.4087C55.2985 55.7836 53.7805 54.5261 51.2735 55.1571C47.0167 56.2356 47.146 56.1816 46.7609 56.3129C44.2684 54.9008 42.7701 54.4806 40.1241 55.4991L37.7655 56.4064C36.6736 56.8263 35.4703 56.7268 34.4612 56.1318L33.8176 55.7543C34.1317 53.8816 33.2971 51.9053 31.5298 50.8636C31.5298 50.8636 31.5298 50.8636 31.5297 50.8634L29.001 49.3727C27.7244 48.6203 26.0706 49.0415 25.3144 50.3118L14.9175 67.7744C14.1598 69.0472 14.5814 70.6886 15.8612 71.4429L18.3899 72.9337C19.1551 73.3848 19.996 73.5993 20.8268 73.5993C21.7533 73.5993 22.6667 73.3321 23.4477 72.8289L23.9747 73.1384L22.8621 74.6805C21.5361 76.5185 21.9574 79.0744 23.8048 80.3939C24.6591 81.0041 25.7324 81.2828 26.8423 81.1093C27.0184 82.1337 27.5824 83.0924 28.4957 83.7451C29.3534 84.3578 30.4217 84.6368 31.5336 84.4626C31.7102 85.4861 32.2739 86.444 33.1866 87.0962C34.4133 87.9724 35.9385 88.0737 37.2094 87.5336C37.4875 88.2523 37.9708 88.9014 38.6451 89.3832C40.4058 90.6407 42.8312 90.3128 44.1993 88.6836L47.1562 90.4266C49.1116 91.5796 51.6345 90.9388 52.794 88.9908C53.0905 88.4928 53.2744 87.95 53.3417 87.3922L53.3484 87.3962C55.3008 88.5469 57.8295 87.9027 58.9862 85.9603C59.3211 85.3976 59.5047 84.7873 59.5493 84.1756C61.2703 84.6062 63.1459 83.8869 64.0957 82.2917C64.4073 81.7685 64.588 81.2032 64.6474 80.6343C66.4919 81.3546 68.6477 80.6585 69.6893 78.909C70.2496 77.968 70.4081 76.8663 70.1355 75.8066C69.9796 75.2003 69.6929 74.6499 69.2993 74.1851L70.9291 73.2376C72.3078 73.8008 73.8812 73.7106 75.1998 72.9335L77.7281 71.4427C79.0079 70.6889 79.4307 69.0479 78.6723 67.7742ZM19.6407 70.8329L17.112 69.342C16.9996 69.2757 16.9623 69.1307 17.0288 69.0189L27.4257 51.556C27.4926 51.4436 27.6387 51.4072 27.7505 51.4733L30.279 52.9639C31.4026 53.6264 31.7542 55.0604 31.1006 56.1581L22.8507 70.0152C22.1922 71.1214 20.7524 71.488 19.6407 70.8329ZM25.2358 78.4102C24.4907 77.8778 24.3203 76.8465 24.8556 76.1047L26.491 73.8377C27.012 73.1155 28.0503 72.9179 28.808 73.4592C29.5516 73.9904 29.7222 75.0245 29.1885 75.7646L27.5529 78.0315C27.019 78.7719 25.9792 78.9411 25.2358 78.4102ZM29.9268 81.7615C29.1831 81.2301 29.0126 80.1957 29.5464 79.4558L31.1819 77.189C31.1819 77.189 31.1819 77.189 31.1819 77.1889C31.1819 77.1889 31.1819 77.1887 31.182 77.1887L32.9869 74.687C33.2456 74.3286 33.6289 74.0916 34.0665 74.0203C34.1574 74.0054 34.2485 73.9981 34.3389 73.9981C34.6833 73.9981 35.0184 74.1047 35.3038 74.3085C35.6638 74.5659 35.902 74.9472 35.9737 75.3826C36.0455 75.8182 35.9427 76.2554 35.684 76.6139L32.2436 81.3828C31.7089 82.1245 30.6723 82.2942 29.9268 81.7615ZM34.6178 85.1124C33.8744 84.5814 33.7037 83.5478 34.2366 82.8079C34.2368 82.8076 34.2371 82.8073 34.2372 82.8069L37.6777 78.0382C38.2113 77.2983 39.2513 77.1284 39.9946 77.6595C40.7383 78.1907 40.9089 79.225 40.375 79.965L38.8465 82.0839C38.8465 82.0839 38.8464 82.0839 38.8463 82.0841L36.9345 84.7339C36.4007 85.474 35.3616 85.644 34.6178 85.1124ZM40.0763 87.3995C39.3331 86.8684 39.1622 85.8353 39.6947 85.0953L40.8398 83.5082C41.3735 82.768 42.4134 82.5988 43.1567 83.1297C43.9002 83.6608 44.071 84.6952 43.5371 85.4352L42.393 87.0208C41.8593 87.761 40.8196 87.9309 40.0763 87.3995ZM67.5785 77.6645C67.1116 78.4486 66.0911 78.7086 65.303 78.2442C63.9684 77.4575 55.3596 72.3823 54.4418 71.8412C53.8586 71.4975 53.1061 71.689 52.7607 72.2692C52.4154 72.8494 52.6078 73.5983 53.1908 73.942L61.402 78.7827L61.4021 78.7829C62.1904 79.2475 62.4534 80.2599 61.9847 81.0474C61.5176 81.8318 60.4967 82.0914 59.7088 81.6273C56.6719 79.8369 54.2059 78.3831 51.4933 76.7839C50.9099 76.4402 50.1576 76.6317 49.8122 77.2119C49.4669 77.7921 49.6593 78.541 50.2423 78.8847L56.2925 82.4514L56.2938 82.4522C57.0826 82.9183 57.3429 83.9302 56.8752 84.7161C56.4081 85.5005 55.3875 85.7604 54.5992 85.2958L51.3522 83.3818C51.3519 83.3816 51.3514 83.3814 51.3511 83.3811C51.3507 83.381 51.3504 83.3808 51.3501 83.3806L48.9806 81.9836C48.3974 81.6397 47.6449 81.8312 47.2995 82.4115C46.9541 82.9917 47.1465 83.7407 47.7296 84.0844L50.0996 85.4816C50.0999 85.4817 50.1003 85.4821 50.1006 85.4822C50.8889 85.9468 51.1518 86.959 50.6831 87.7466C50.2161 88.531 49.1955 88.7909 48.4071 88.3263L45.6424 86.6966C46.8276 84.8767 46.3768 82.4244 44.5879 81.1466C44.0625 80.7715 43.4775 80.5379 42.8791 80.4375C43.5138 78.7488 42.9666 76.7773 41.4256 75.6766C40.5133 75.0245 39.421 74.7994 38.3901 74.9602C38.2067 73.8927 37.6201 72.9576 36.735 72.3256C35.0704 71.1368 32.8082 71.3652 31.4109 72.7719C31.127 72.2757 30.735 71.8305 30.2391 71.4763C28.8558 70.4884 27.0599 70.4792 25.6905 71.3113L25.1283 70.981L32.8453 58.0189L33.2127 58.2345C34.8353 59.191 36.8153 59.3904 38.6503 58.6842L41.0089 57.7769C42.3586 57.2578 43.103 57.224 44.438 57.8508C43.5645 58.8274 43.0459 60.1095 43.0459 61.4913V66.905C43.0459 68.3429 44.2207 69.5135 45.6645 69.5144H45.6681C47.1164 69.5144 48.4783 68.9534 49.5029 67.9345C50.1001 67.3406 50.5409 66.6325 50.8052 65.8595C52.3895 66.7931 65.4788 74.5061 66.9963 75.4008C67.378 75.6258 67.6487 75.9852 67.7587 76.4128C67.8687 76.84 67.8046 77.2847 67.5785 77.6645ZM76.4779 69.342L73.9491 70.8329C72.8374 71.4878 71.3976 71.1209 70.7394 70.0154L66.8726 63.5205C66.5271 62.9403 65.7741 62.7488 65.1916 63.0922C64.6085 63.4358 64.4159 64.1848 64.7612 64.765L68.628 71.26C68.7008 71.3823 68.7798 71.4985 68.8616 71.6118L67.7865 72.2367C67.5692 72.3648 67.3602 72.5059 67.1603 72.659L50.4909 62.836C49.6742 62.355 48.6388 62.9414 48.6388 63.8865C48.6259 63.9594 48.7655 65.2145 47.768 66.2068C47.207 66.7646 46.4612 67.0719 45.668 67.0719C45.6673 67.0719 45.6667 67.0719 45.666 67.0719C45.5743 67.0719 45.4997 66.9967 45.4997 66.9043V61.4907C45.4997 60.0764 46.4775 58.8833 47.7998 58.5502L51.8752 57.5239C53.3539 57.152 54.1898 57.9377 56.4039 58.6834C57.9409 59.2751 59.6122 59.2387 61.0957 58.6082L61.8363 59.8522C62.1818 60.4328 62.9344 60.624 63.5173 60.2805C64.1004 59.9369 64.2929 59.1879 63.9477 58.6077L62.489 56.1578C61.8291 55.0493 62.1968 53.6208 63.3106 52.9637L65.8393 51.4731C65.9497 51.4078 66.0959 51.4412 66.1643 51.556L76.5609 69.0186C76.628 69.1312 76.591 69.2753 76.4779 69.342Z"/>
</mask>
<path d="M54.8869 30.3391H14.9432C14.2655 30.3391 13.7162 30.8857 13.7162 31.5601C13.7162 32.2345 14.2655 32.7811 14.9432 32.7811H54.887C55.5647 32.7811 56.1141 32.2345 56.1141 31.5601C56.1141 30.8857 55.5646 30.3391 54.8869 30.3391Z" fill="#FF1515"/>
<path d="M14.9432 24.3114H34.9149C35.5927 24.3114 36.142 23.7647 36.142 23.0904C36.142 22.416 35.5927 21.8694 34.9149 21.8694H14.9432C14.2655 21.8694 13.7162 22.416 13.7162 23.0904C13.7162 23.7649 14.2655 24.3114 14.9432 24.3114Z" fill="#FF1515"/>
<path d="M54.8869 37.8435H14.9432C14.2655 37.8435 13.7162 38.3901 13.7162 39.0645C13.7162 39.7388 14.2655 40.2855 14.9432 40.2855H54.887C55.5647 40.2855 56.1141 39.7388 56.1141 39.0645C56.1139 38.3901 55.5646 37.8435 54.8869 37.8435Z" fill="#FF1515"/>
<path d="M24.0422 82.5163H11.2592C9.16104 82.5163 7.45391 80.8177 7.45391 78.7299V14.2282C7.45391 12.1404 9.16104 10.4416 11.2592 10.4416H48.0859C48.2048 10.4416 48.3219 10.4525 48.4378 10.468V18.083C48.4378 21.5174 51.2457 24.3114 54.6969 24.3114H62.3493C62.3651 24.4268 62.3758 24.5433 62.3758 24.6617V45.454C62.3758 46.1284 62.9252 46.675 63.6029 46.675C64.2806 46.675 64.8299 46.1284 64.8299 45.454V24.6618C64.8299 23.3225 64.3057 22.0632 63.3539 21.116L51.6489 9.46847C50.6972 8.52142 49.4318 7.99976 48.0859 7.99976H11.2592C7.80775 7.99976 5 10.7939 5 14.2282V78.7299C5 82.1642 7.80791 84.9581 11.2592 84.9581H24.0422C24.7199 84.9581 25.2692 84.4115 25.2692 83.7371C25.2692 83.0627 24.7199 82.5163 24.0422 82.5163ZM60.6407 21.8695H54.6971C52.599 21.8695 50.8918 20.1708 50.8918 18.083V12.1686L60.6407 21.8695Z" fill="#FF1515"/>
<path d="M78.6723 67.7742L68.2758 50.3118C67.5181 49.0386 65.8691 48.6177 64.589 49.3723L62.0601 50.8633C60.0972 52.0204 59.2675 54.3621 59.9415 56.4372C59.0894 56.7444 58.1553 56.7396 57.2952 56.4087C55.2985 55.7836 53.7805 54.5261 51.2735 55.1571C47.0167 56.2356 47.146 56.1816 46.7609 56.3129C44.2684 54.9008 42.7701 54.4806 40.1241 55.4991L37.7655 56.4064C36.6736 56.8263 35.4703 56.7268 34.4612 56.1318L33.8176 55.7543C34.1317 53.8816 33.2971 51.9053 31.5298 50.8636C31.5298 50.8636 31.5298 50.8636 31.5297 50.8634L29.001 49.3727C27.7244 48.6203 26.0706 49.0415 25.3144 50.3118L14.9175 67.7744C14.1598 69.0472 14.5814 70.6886 15.8612 71.4429L18.3899 72.9337C19.1551 73.3848 19.996 73.5993 20.8268 73.5993C21.7533 73.5993 22.6667 73.3321 23.4477 72.8289L23.9747 73.1384L22.8621 74.6805C21.5361 76.5185 21.9574 79.0744 23.8048 80.3939C24.6591 81.0041 25.7324 81.2828 26.8423 81.1093C27.0184 82.1337 27.5824 83.0924 28.4957 83.7451C29.3534 84.3578 30.4217 84.6368 31.5336 84.4626C31.7102 85.4861 32.2739 86.444 33.1866 87.0962C34.4133 87.9724 35.9385 88.0737 37.2094 87.5336C37.4875 88.2523 37.9708 88.9014 38.6451 89.3832C40.4058 90.6407 42.8312 90.3128 44.1993 88.6836L47.1562 90.4266C49.1116 91.5796 51.6345 90.9388 52.794 88.9908C53.0905 88.4928 53.2744 87.95 53.3417 87.3922L53.3484 87.3962C55.3008 88.5469 57.8295 87.9027 58.9862 85.9603C59.3211 85.3976 59.5047 84.7873 59.5493 84.1756C61.2703 84.6062 63.1459 83.8869 64.0957 82.2917C64.4073 81.7685 64.588 81.2032 64.6474 80.6343C66.4919 81.3546 68.6477 80.6585 69.6893 78.909C70.2496 77.968 70.4081 76.8663 70.1355 75.8066C69.9796 75.2003 69.6929 74.6499 69.2993 74.1851L70.9291 73.2376C72.3078 73.8008 73.8812 73.7106 75.1998 72.9335L77.7281 71.4427C79.0079 70.6889 79.4307 69.0479 78.6723 67.7742ZM19.6407 70.8329L17.112 69.342C16.9996 69.2757 16.9623 69.1307 17.0288 69.0189L27.4257 51.556C27.4926 51.4436 27.6387 51.4072 27.7505 51.4733L30.279 52.9639C31.4026 53.6264 31.7542 55.0604 31.1006 56.1581L22.8507 70.0152C22.1922 71.1214 20.7524 71.488 19.6407 70.8329ZM25.2358 78.4102C24.4907 77.8778 24.3203 76.8465 24.8556 76.1047L26.491 73.8377C27.012 73.1155 28.0503 72.9179 28.808 73.4592C29.5516 73.9904 29.7222 75.0245 29.1885 75.7646L27.5529 78.0315C27.019 78.7719 25.9792 78.9411 25.2358 78.4102ZM29.9268 81.7615C29.1831 81.2301 29.0126 80.1957 29.5464 79.4558L31.1819 77.189C31.1819 77.189 31.1819 77.189 31.1819 77.1889C31.1819 77.1889 31.1819 77.1887 31.182 77.1887L32.9869 74.687C33.2456 74.3286 33.6289 74.0916 34.0665 74.0203C34.1574 74.0054 34.2485 73.9981 34.3389 73.9981C34.6833 73.9981 35.0184 74.1047 35.3038 74.3085C35.6638 74.5659 35.902 74.9472 35.9737 75.3826C36.0455 75.8182 35.9427 76.2554 35.684 76.6139L32.2436 81.3828C31.7089 82.1245 30.6723 82.2942 29.9268 81.7615ZM34.6178 85.1124C33.8744 84.5814 33.7037 83.5478 34.2366 82.8079C34.2368 82.8076 34.2371 82.8073 34.2372 82.8069L37.6777 78.0382C38.2113 77.2983 39.2513 77.1284 39.9946 77.6595C40.7383 78.1907 40.9089 79.225 40.375 79.965L38.8465 82.0839C38.8465 82.0839 38.8464 82.0839 38.8463 82.0841L36.9345 84.7339C36.4007 85.474 35.3616 85.644 34.6178 85.1124ZM40.0763 87.3995C39.3331 86.8684 39.1622 85.8353 39.6947 85.0953L40.8398 83.5082C41.3735 82.768 42.4134 82.5988 43.1567 83.1297C43.9002 83.6608 44.071 84.6952 43.5371 85.4352L42.393 87.0208C41.8593 87.761 40.8196 87.9309 40.0763 87.3995ZM67.5785 77.6645C67.1116 78.4486 66.0911 78.7086 65.303 78.2442C63.9684 77.4575 55.3596 72.3823 54.4418 71.8412C53.8586 71.4975 53.1061 71.689 52.7607 72.2692C52.4154 72.8494 52.6078 73.5983 53.1908 73.942L61.402 78.7827L61.4021 78.7829C62.1904 79.2475 62.4534 80.2599 61.9847 81.0474C61.5176 81.8318 60.4967 82.0914 59.7088 81.6273C56.6719 79.8369 54.2059 78.3831 51.4933 76.7839C50.9099 76.4402 50.1576 76.6317 49.8122 77.2119C49.4669 77.7921 49.6593 78.541 50.2423 78.8847L56.2925 82.4514L56.2938 82.4522C57.0826 82.9183 57.3429 83.9302 56.8752 84.7161C56.4081 85.5005 55.3875 85.7604 54.5992 85.2958L51.3522 83.3818C51.3519 83.3816 51.3514 83.3814 51.3511 83.3811C51.3507 83.381 51.3504 83.3808 51.3501 83.3806L48.9806 81.9836C48.3974 81.6397 47.6449 81.8312 47.2995 82.4115C46.9541 82.9917 47.1465 83.7407 47.7296 84.0844L50.0996 85.4816C50.0999 85.4817 50.1003 85.4821 50.1006 85.4822C50.8889 85.9468 51.1518 86.959 50.6831 87.7466C50.2161 88.531 49.1955 88.7909 48.4071 88.3263L45.6424 86.6966C46.8276 84.8767 46.3768 82.4244 44.5879 81.1466C44.0625 80.7715 43.4775 80.5379 42.8791 80.4375C43.5138 78.7488 42.9666 76.7773 41.4256 75.6766C40.5133 75.0245 39.421 74.7994 38.3901 74.9602C38.2067 73.8927 37.6201 72.9576 36.735 72.3256C35.0704 71.1368 32.8082 71.3652 31.4109 72.7719C31.127 72.2757 30.735 71.8305 30.2391 71.4763C28.8558 70.4884 27.0599 70.4792 25.6905 71.3113L25.1283 70.981L32.8453 58.0189L33.2127 58.2345C34.8353 59.191 36.8153 59.3904 38.6503 58.6842L41.0089 57.7769C42.3586 57.2578 43.103 57.224 44.438 57.8508C43.5645 58.8274 43.0459 60.1095 43.0459 61.4913V66.905C43.0459 68.3429 44.2207 69.5135 45.6645 69.5144H45.6681C47.1164 69.5144 48.4783 68.9534 49.5029 67.9345C50.1001 67.3406 50.5409 66.6325 50.8052 65.8595C52.3895 66.7931 65.4788 74.5061 66.9963 75.4008C67.378 75.6258 67.6487 75.9852 67.7587 76.4128C67.8687 76.84 67.8046 77.2847 67.5785 77.6645ZM76.4779 69.342L73.9491 70.8329C72.8374 71.4878 71.3976 71.1209 70.7394 70.0154L66.8726 63.5205C66.5271 62.9403 65.7741 62.7488 65.1916 63.0922C64.6085 63.4358 64.4159 64.1848 64.7612 64.765L68.628 71.26C68.7008 71.3823 68.7798 71.4985 68.8616 71.6118L67.7865 72.2367C67.5692 72.3648 67.3602 72.5059 67.1603 72.659L50.4909 62.836C49.6742 62.355 48.6388 62.9414 48.6388 63.8865C48.6259 63.9594 48.7655 65.2145 47.768 66.2068C47.207 66.7646 46.4612 67.0719 45.668 67.0719C45.6673 67.0719 45.6667 67.0719 45.666 67.0719C45.5743 67.0719 45.4997 66.9967 45.4997 66.9043V61.4907C45.4997 60.0764 46.4775 58.8833 47.7998 58.5502L51.8752 57.5239C53.3539 57.152 54.1898 57.9377 56.4039 58.6834C57.9409 59.2751 59.6122 59.2387 61.0957 58.6082L61.8363 59.8522C62.1818 60.4328 62.9344 60.624 63.5173 60.2805C64.1004 59.9369 64.2929 59.1879 63.9477 58.6077L62.489 56.1578C61.8291 55.0493 62.1968 53.6208 63.3106 52.9637L65.8393 51.4731C65.9497 51.4078 66.0959 51.4412 66.1643 51.556L76.5609 69.0186C76.628 69.1312 76.591 69.2753 76.4779 69.342Z" fill="#FF1515"/>
<path d="M54.8869 30.3391H14.9432C14.2655 30.3391 13.7162 30.8857 13.7162 31.5601C13.7162 32.2345 14.2655 32.7811 14.9432 32.7811H54.887C55.5647 32.7811 56.1141 32.2345 56.1141 31.5601C56.1141 30.8857 55.5646 30.3391 54.8869 30.3391Z" stroke="#F9FBFD" stroke-width="10" mask="url(#path-1-outside-1_24_1370)"/>
<path d="M14.9432 24.3114H34.9149C35.5927 24.3114 36.142 23.7647 36.142 23.0904C36.142 22.416 35.5927 21.8694 34.9149 21.8694H14.9432C14.2655 21.8694 13.7162 22.416 13.7162 23.0904C13.7162 23.7649 14.2655 24.3114 14.9432 24.3114Z" stroke="#F9FBFD" stroke-width="10" mask="url(#path-1-outside-1_24_1370)"/>
<path d="M54.8869 37.8435H14.9432C14.2655 37.8435 13.7162 38.3901 13.7162 39.0645C13.7162 39.7388 14.2655 40.2855 14.9432 40.2855H54.887C55.5647 40.2855 56.1141 39.7388 56.1141 39.0645C56.1139 38.3901 55.5646 37.8435 54.8869 37.8435Z" stroke="#F9FBFD" stroke-width="10" mask="url(#path-1-outside-1_24_1370)"/>
<path d="M24.0422 82.5163H11.2592C9.16104 82.5163 7.45391 80.8177 7.45391 78.7299V14.2282C7.45391 12.1404 9.16104 10.4416 11.2592 10.4416H48.0859C48.2048 10.4416 48.3219 10.4525 48.4378 10.468V18.083C48.4378 21.5174 51.2457 24.3114 54.6969 24.3114H62.3493C62.3651 24.4268 62.3758 24.5433 62.3758 24.6617V45.454C62.3758 46.1284 62.9252 46.675 63.6029 46.675C64.2806 46.675 64.8299 46.1284 64.8299 45.454V24.6618C64.8299 23.3225 64.3057 22.0632 63.3539 21.116L51.6489 9.46847C50.6972 8.52142 49.4318 7.99976 48.0859 7.99976H11.2592C7.80775 7.99976 5 10.7939 5 14.2282V78.7299C5 82.1642 7.80791 84.9581 11.2592 84.9581H24.0422C24.7199 84.9581 25.2692 84.4115 25.2692 83.7371C25.2692 83.0627 24.7199 82.5163 24.0422 82.5163ZM60.6407 21.8695H54.6971C52.599 21.8695 50.8918 20.1708 50.8918 18.083V12.1686L60.6407 21.8695Z" stroke="#F9FBFD" stroke-width="10" mask="url(#path-1-outside-1_24_1370)"/>
<path d="M78.6723 67.7742L68.2758 50.3118C67.5181 49.0386 65.8691 48.6177 64.589 49.3723L62.0601 50.8633C60.0972 52.0204 59.2675 54.3621 59.9415 56.4372C59.0894 56.7444 58.1553 56.7396 57.2952 56.4087C55.2985 55.7836 53.7805 54.5261 51.2735 55.1571C47.0167 56.2356 47.146 56.1816 46.7609 56.3129C44.2684 54.9008 42.7701 54.4806 40.1241 55.4991L37.7655 56.4064C36.6736 56.8263 35.4703 56.7268 34.4612 56.1318L33.8176 55.7543C34.1317 53.8816 33.2971 51.9053 31.5298 50.8636C31.5298 50.8636 31.5298 50.8636 31.5297 50.8634L29.001 49.3727C27.7244 48.6203 26.0706 49.0415 25.3144 50.3118L14.9175 67.7744C14.1598 69.0472 14.5814 70.6886 15.8612 71.4429L18.3899 72.9337C19.1551 73.3848 19.996 73.5993 20.8268 73.5993C21.7533 73.5993 22.6667 73.3321 23.4477 72.8289L23.9747 73.1384L22.8621 74.6805C21.5361 76.5185 21.9574 79.0744 23.8048 80.3939C24.6591 81.0041 25.7324 81.2828 26.8423 81.1093C27.0184 82.1337 27.5824 83.0924 28.4957 83.7451C29.3534 84.3578 30.4217 84.6368 31.5336 84.4626C31.7102 85.4861 32.2739 86.444 33.1866 87.0962C34.4133 87.9724 35.9385 88.0737 37.2094 87.5336C37.4875 88.2523 37.9708 88.9014 38.6451 89.3832C40.4058 90.6407 42.8312 90.3128 44.1993 88.6836L47.1562 90.4266C49.1116 91.5796 51.6345 90.9388 52.794 88.9908C53.0905 88.4928 53.2744 87.95 53.3417 87.3922L53.3484 87.3962C55.3008 88.5469 57.8295 87.9027 58.9862 85.9603C59.3211 85.3976 59.5047 84.7873 59.5493 84.1756C61.2703 84.6062 63.1459 83.8869 64.0957 82.2917C64.4073 81.7685 64.588 81.2032 64.6474 80.6343C66.4919 81.3546 68.6477 80.6585 69.6893 78.909C70.2496 77.968 70.4081 76.8663 70.1355 75.8066C69.9796 75.2003 69.6929 74.6499 69.2993 74.1851L70.9291 73.2376C72.3078 73.8008 73.8812 73.7106 75.1998 72.9335L77.7281 71.4427C79.0079 70.6889 79.4307 69.0479 78.6723 67.7742ZM19.6407 70.8329L17.112 69.342C16.9996 69.2757 16.9623 69.1307 17.0288 69.0189L27.4257 51.556C27.4926 51.4436 27.6387 51.4072 27.7505 51.4733L30.279 52.9639C31.4026 53.6264 31.7542 55.0604 31.1006 56.1581L22.8507 70.0152C22.1922 71.1214 20.7524 71.488 19.6407 70.8329ZM25.2358 78.4102C24.4907 77.8778 24.3203 76.8465 24.8556 76.1047L26.491 73.8377C27.012 73.1155 28.0503 72.9179 28.808 73.4592C29.5516 73.9904 29.7222 75.0245 29.1885 75.7646L27.5529 78.0315C27.019 78.7719 25.9792 78.9411 25.2358 78.4102ZM29.9268 81.7615C29.1831 81.2301 29.0126 80.1957 29.5464 79.4558L31.1819 77.189C31.1819 77.189 31.1819 77.189 31.1819 77.1889C31.1819 77.1889 31.1819 77.1887 31.182 77.1887L32.9869 74.687C33.2456 74.3286 33.6289 74.0916 34.0665 74.0203C34.1574 74.0054 34.2485 73.9981 34.3389 73.9981C34.6833 73.9981 35.0184 74.1047 35.3038 74.3085C35.6638 74.5659 35.902 74.9472 35.9737 75.3826C36.0455 75.8182 35.9427 76.2554 35.684 76.6139L32.2436 81.3828C31.7089 82.1245 30.6723 82.2942 29.9268 81.7615ZM34.6178 85.1124C33.8744 84.5814 33.7037 83.5478 34.2366 82.8079C34.2368 82.8076 34.2371 82.8073 34.2372 82.8069L37.6777 78.0382C38.2113 77.2983 39.2513 77.1284 39.9946 77.6595C40.7383 78.1907 40.9089 79.225 40.375 79.965L38.8465 82.0839C38.8465 82.0839 38.8464 82.0839 38.8463 82.0841L36.9345 84.7339C36.4007 85.474 35.3616 85.644 34.6178 85.1124ZM40.0763 87.3995C39.3331 86.8684 39.1622 85.8353 39.6947 85.0953L40.8398 83.5082C41.3735 82.768 42.4134 82.5988 43.1567 83.1297C43.9002 83.6608 44.071 84.6952 43.5371 85.4352L42.393 87.0208C41.8593 87.761 40.8196 87.9309 40.0763 87.3995ZM67.5785 77.6645C67.1116 78.4486 66.0911 78.7086 65.303 78.2442C63.9684 77.4575 55.3596 72.3823 54.4418 71.8412C53.8586 71.4975 53.1061 71.689 52.7607 72.2692C52.4154 72.8494 52.6078 73.5983 53.1908 73.942L61.402 78.7827L61.4021 78.7829C62.1904 79.2475 62.4534 80.2599 61.9847 81.0474C61.5176 81.8318 60.4967 82.0914 59.7088 81.6273C56.6719 79.8369 54.2059 78.3831 51.4933 76.7839C50.9099 76.4402 50.1576 76.6317 49.8122 77.2119C49.4669 77.7921 49.6593 78.541 50.2423 78.8847L56.2925 82.4514L56.2938 82.4522C57.0826 82.9183 57.3429 83.9302 56.8752 84.7161C56.4081 85.5005 55.3875 85.7604 54.5992 85.2958L51.3522 83.3818C51.3519 83.3816 51.3514 83.3814 51.3511 83.3811C51.3507 83.381 51.3504 83.3808 51.3501 83.3806L48.9806 81.9836C48.3974 81.6397 47.6449 81.8312 47.2995 82.4115C46.9541 82.9917 47.1465 83.7407 47.7296 84.0844L50.0996 85.4816C50.0999 85.4817 50.1003 85.4821 50.1006 85.4822C50.8889 85.9468 51.1518 86.959 50.6831 87.7466C50.2161 88.531 49.1955 88.7909 48.4071 88.3263L45.6424 86.6966C46.8276 84.8767 46.3768 82.4244 44.5879 81.1466C44.0625 80.7715 43.4775 80.5379 42.8791 80.4375C43.5138 78.7488 42.9666 76.7773 41.4256 75.6766C40.5133 75.0245 39.421 74.7994 38.3901 74.9602C38.2067 73.8927 37.6201 72.9576 36.735 72.3256C35.0704 71.1368 32.8082 71.3652 31.4109 72.7719C31.127 72.2757 30.735 71.8305 30.2391 71.4763C28.8558 70.4884 27.0599 70.4792 25.6905 71.3113L25.1283 70.981L32.8453 58.0189L33.2127 58.2345C34.8353 59.191 36.8153 59.3904 38.6503 58.6842L41.0089 57.7769C42.3586 57.2578 43.103 57.224 44.438 57.8508C43.5645 58.8274 43.0459 60.1095 43.0459 61.4913V66.905C43.0459 68.3429 44.2207 69.5135 45.6645 69.5144H45.6681C47.1164 69.5144 48.4783 68.9534 49.5029 67.9345C50.1001 67.3406 50.5409 66.6325 50.8052 65.8595C52.3895 66.7931 65.4788 74.5061 66.9963 75.4008C67.378 75.6258 67.6487 75.9852 67.7587 76.4128C67.8687 76.84 67.8046 77.2847 67.5785 77.6645ZM76.4779 69.342L73.9491 70.8329C72.8374 71.4878 71.3976 71.1209 70.7394 70.0154L66.8726 63.5205C66.5271 62.9403 65.7741 62.7488 65.1916 63.0922C64.6085 63.4358 64.4159 64.1848 64.7612 64.765L68.628 71.26C68.7008 71.3823 68.7798 71.4985 68.8616 71.6118L67.7865 72.2367C67.5692 72.3648 67.3602 72.5059 67.1603 72.659L50.4909 62.836C49.6742 62.355 48.6388 62.9414 48.6388 63.8865C48.6259 63.9594 48.7655 65.2145 47.768 66.2068C47.207 66.7646 46.4612 67.0719 45.668 67.0719C45.6673 67.0719 45.6667 67.0719 45.666 67.0719C45.5743 67.0719 45.4997 66.9967 45.4997 66.9043V61.4907C45.4997 60.0764 46.4775 58.8833 47.7998 58.5502L51.8752 57.5239C53.3539 57.152 54.1898 57.9377 56.4039 58.6834C57.9409 59.2751 59.6122 59.2387 61.0957 58.6082L61.8363 59.8522C62.1818 60.4328 62.9344 60.624 63.5173 60.2805C64.1004 59.9369 64.2929 59.1879 63.9477 58.6077L62.489 56.1578C61.8291 55.0493 62.1968 53.6208 63.3106 52.9637L65.8393 51.4731C65.9497 51.4078 66.0959 51.4412 66.1643 51.556L76.5609 69.0186C76.628 69.1312 76.591 69.2753 76.4779 69.342Z" stroke="#F9FBFD" stroke-width="10" mask="url(#path-1-outside-1_24_1370)"/>
</svg>
