<svg width="75" height="97" viewBox="0 0 75 97" fill="none" xmlns="http://www.w3.org/2000/svg">
<mask id="path-1-outside-1_24_1427" maskUnits="userSpaceOnUse" x="0" y="-0.000244141" width="75" height="97" fill="black">
<rect fill="white" y="-0.000244141" width="75" height="97"/>
<path fill-rule="evenodd" clip-rule="evenodd" d="M33.6887 70.2277C33.9476 70.488 34.2997 70.634 34.6667 70.633H34.7289C35.1172 70.6149 35.4803 70.4353 35.7304 70.1378L42.6471 61.8379C42.9639 61.4579 43.0539 60.9377 42.8832 60.4732C42.7125 60.0088 42.307 59.6709 41.8195 59.5865C41.3319 59.5022 40.8365 59.6844 40.5196 60.0644L34.5713 67.2024L34.2587 66.8898C33.7158 66.3657 32.8531 66.3732 32.3195 66.9067C31.7859 67.4403 31.7784 68.3031 32.3026 68.8459L33.6887 70.2277Z"/>
<path d="M18.0668 89.9998H56.8002C59.8562 89.9998 62.3336 87.5224 62.3336 84.4665V58.1831C65.3896 58.1831 67.867 55.7057 67.867 52.6497V23.5998C67.867 20.5438 65.3896 18.0664 62.3336 18.0664V12.5332C62.3334 9.47714 59.856 6.99976 56.8002 6.99976H18.0668C15.0108 6.99976 12.5334 9.47714 12.5334 12.5332V18.0666C9.47738 18.0666 7 20.5439 7 23.5999V52.6499C7 55.706 9.47738 58.1833 12.5334 58.1833V84.4666C12.5335 87.5224 15.0108 89.9998 18.0668 89.9998ZM59.5667 84.4664C59.5667 85.9944 58.328 87.2331 56.8 87.2331H18.0668C16.5388 87.2331 15.3001 85.9944 15.3001 84.4664V82.3138C16.1376 82.8117 17.0925 83.0772 18.0668 83.0829H56.8002C57.7743 83.0772 58.7294 82.8117 59.5669 82.3138L59.5667 84.4664ZM59.5667 77.5497C59.5667 79.0777 58.328 80.3164 56.8 80.3164H18.0668C16.5388 80.3164 15.3001 79.0777 15.3001 77.5497V58.1831H27.0889C23.6105 63.377 24.523 70.345 29.2214 74.4682C33.9198 78.5914 40.9473 78.5915 45.6457 74.4682C50.3441 70.3449 51.2566 63.3769 47.7782 58.1831H59.567V77.5497H59.5667ZM27.7502 65.0997C27.7502 59.7518 32.0856 55.4164 37.4335 55.4164C42.7815 55.4164 47.1169 59.7518 47.1169 65.0997C47.1169 70.4477 42.7815 74.7831 37.4335 74.7831C32.0883 74.7762 27.757 70.4448 27.7502 65.0997ZM48.0727 9.76645L46.2978 11.6588C45.7752 12.2162 45.0451 12.5327 44.2809 12.533H30.5859C29.8214 12.5321 29.0912 12.2158 28.5676 11.6588L26.7941 9.76645H48.0727ZM15.3001 12.5332C15.3001 11.0051 16.5388 9.76645 18.0668 9.76645H23.0011L26.5493 13.5499C27.5962 14.6646 29.0567 15.2977 30.5859 15.2999H44.2809C45.8103 15.2985 47.271 14.6653 48.3175 13.5499L51.8657 9.76645H56.8C58.328 9.76645 59.5667 11.0051 59.5667 12.5332V18.0666H15.3001V12.5332ZM9.76683 52.6497V23.5998C9.76683 22.0718 11.0055 20.8331 12.5335 20.8331H62.3336C63.8616 20.8331 65.1003 22.0718 65.1003 23.5998V52.6498C65.1003 54.1778 63.8616 55.4165 62.3336 55.4165H45.2424C40.6898 51.7279 34.1771 51.7279 29.6245 55.4165H12.5335C11.0055 55.4164 9.76683 54.1777 9.76683 52.6497Z"/>
<path fill-rule="evenodd" clip-rule="evenodd" d="M16.6835 35.0554H22.2169C22.9808 35.0554 23.6002 34.436 23.6002 33.6721C23.6002 32.9082 22.9808 32.2888 22.2169 32.2888H16.6835C15.9196 32.2888 15.3002 32.9082 15.3002 33.6721C15.3002 34.436 15.9194 35.0554 16.6835 35.0554Z"/>
<path fill-rule="evenodd" clip-rule="evenodd" d="M16.6835 41.9721H41.5835C42.3475 41.9721 42.9668 41.3527 42.9668 40.5888C42.9668 39.8248 42.3475 39.2055 41.5835 39.2055H16.6835C15.9196 39.2055 15.3002 39.8248 15.3002 40.5888C15.3001 41.3527 15.9194 41.9721 16.6835 41.9721Z"/>
<path fill-rule="evenodd" clip-rule="evenodd" d="M27.7502 35.0554H33.2836C34.0475 35.0554 34.6668 34.436 34.6668 33.6721C34.6668 32.9082 34.0475 32.2888 33.2836 32.2888H27.7502C26.9862 32.2888 26.3669 32.9082 26.3669 33.6721C26.3669 34.436 26.9861 35.0554 27.7502 35.0554Z"/>
<path fill-rule="evenodd" clip-rule="evenodd" d="M38.8168 35.0554H44.3502C45.1142 35.0554 45.7335 34.436 45.7335 33.6721C45.7335 32.9082 45.1142 32.2888 44.3502 32.2888H38.8168C38.0529 32.2888 37.4335 32.9082 37.4335 33.6721C37.4335 34.436 38.0527 35.0554 38.8168 35.0554Z"/>
<path fill-rule="evenodd" clip-rule="evenodd" d="M49.8835 35.0554H55.4169C56.1808 35.0554 56.8002 34.436 56.8002 33.6721C56.8002 32.9082 56.1808 32.2888 55.4169 32.2888H49.8835C49.1195 32.2888 48.5002 32.9082 48.5002 33.6721C48.5002 34.436 49.1194 35.0554 49.8835 35.0554Z"/>
</mask>
<path fill-rule="evenodd" clip-rule="evenodd" d="M33.6887 70.2277C33.9476 70.488 34.2997 70.634 34.6667 70.633H34.7289C35.1172 70.6149 35.4803 70.4353 35.7304 70.1378L42.6471 61.8379C42.9639 61.4579 43.0539 60.9377 42.8832 60.4732C42.7125 60.0088 42.307 59.6709 41.8195 59.5865C41.3319 59.5022 40.8365 59.6844 40.5196 60.0644L34.5713 67.2024L34.2587 66.8898C33.7158 66.3657 32.8531 66.3732 32.3195 66.9067C31.7859 67.4403 31.7784 68.3031 32.3026 68.8459L33.6887 70.2277Z" fill="#FF1515"/>
<path d="M18.0668 89.9998H56.8002C59.8562 89.9998 62.3336 87.5224 62.3336 84.4665V58.1831C65.3896 58.1831 67.867 55.7057 67.867 52.6497V23.5998C67.867 20.5438 65.3896 18.0664 62.3336 18.0664V12.5332C62.3334 9.47714 59.856 6.99976 56.8002 6.99976H18.0668C15.0108 6.99976 12.5334 9.47714 12.5334 12.5332V18.0666C9.47738 18.0666 7 20.5439 7 23.5999V52.6499C7 55.706 9.47738 58.1833 12.5334 58.1833V84.4666C12.5335 87.5224 15.0108 89.9998 18.0668 89.9998ZM59.5667 84.4664C59.5667 85.9944 58.328 87.2331 56.8 87.2331H18.0668C16.5388 87.2331 15.3001 85.9944 15.3001 84.4664V82.3138C16.1376 82.8117 17.0925 83.0772 18.0668 83.0829H56.8002C57.7743 83.0772 58.7294 82.8117 59.5669 82.3138L59.5667 84.4664ZM59.5667 77.5497C59.5667 79.0777 58.328 80.3164 56.8 80.3164H18.0668C16.5388 80.3164 15.3001 79.0777 15.3001 77.5497V58.1831H27.0889C23.6105 63.377 24.523 70.345 29.2214 74.4682C33.9198 78.5914 40.9473 78.5915 45.6457 74.4682C50.3441 70.3449 51.2566 63.3769 47.7782 58.1831H59.567V77.5497H59.5667ZM27.7502 65.0997C27.7502 59.7518 32.0856 55.4164 37.4335 55.4164C42.7815 55.4164 47.1169 59.7518 47.1169 65.0997C47.1169 70.4477 42.7815 74.7831 37.4335 74.7831C32.0883 74.7762 27.757 70.4448 27.7502 65.0997ZM48.0727 9.76645L46.2978 11.6588C45.7752 12.2162 45.0451 12.5327 44.2809 12.533H30.5859C29.8214 12.5321 29.0912 12.2158 28.5676 11.6588L26.7941 9.76645H48.0727ZM15.3001 12.5332C15.3001 11.0051 16.5388 9.76645 18.0668 9.76645H23.0011L26.5493 13.5499C27.5962 14.6646 29.0567 15.2977 30.5859 15.2999H44.2809C45.8103 15.2985 47.271 14.6653 48.3175 13.5499L51.8657 9.76645H56.8C58.328 9.76645 59.5667 11.0051 59.5667 12.5332V18.0666H15.3001V12.5332ZM9.76683 52.6497V23.5998C9.76683 22.0718 11.0055 20.8331 12.5335 20.8331H62.3336C63.8616 20.8331 65.1003 22.0718 65.1003 23.5998V52.6498C65.1003 54.1778 63.8616 55.4165 62.3336 55.4165H45.2424C40.6898 51.7279 34.1771 51.7279 29.6245 55.4165H12.5335C11.0055 55.4164 9.76683 54.1777 9.76683 52.6497Z" fill="#FF1515"/>
<path fill-rule="evenodd" clip-rule="evenodd" d="M16.6835 35.0554H22.2169C22.9808 35.0554 23.6002 34.436 23.6002 33.6721C23.6002 32.9082 22.9808 32.2888 22.2169 32.2888H16.6835C15.9196 32.2888 15.3002 32.9082 15.3002 33.6721C15.3002 34.436 15.9194 35.0554 16.6835 35.0554Z" fill="#FF1515"/>
<path fill-rule="evenodd" clip-rule="evenodd" d="M16.6835 41.9721H41.5835C42.3475 41.9721 42.9668 41.3527 42.9668 40.5888C42.9668 39.8248 42.3475 39.2055 41.5835 39.2055H16.6835C15.9196 39.2055 15.3002 39.8248 15.3002 40.5888C15.3001 41.3527 15.9194 41.9721 16.6835 41.9721Z" fill="#FF1515"/>
<path fill-rule="evenodd" clip-rule="evenodd" d="M27.7502 35.0554H33.2836C34.0475 35.0554 34.6668 34.436 34.6668 33.6721C34.6668 32.9082 34.0475 32.2888 33.2836 32.2888H27.7502C26.9862 32.2888 26.3669 32.9082 26.3669 33.6721C26.3669 34.436 26.9861 35.0554 27.7502 35.0554Z" fill="#FF1515"/>
<path fill-rule="evenodd" clip-rule="evenodd" d="M38.8168 35.0554H44.3502C45.1142 35.0554 45.7335 34.436 45.7335 33.6721C45.7335 32.9082 45.1142 32.2888 44.3502 32.2888H38.8168C38.0529 32.2888 37.4335 32.9082 37.4335 33.6721C37.4335 34.436 38.0527 35.0554 38.8168 35.0554Z" fill="#FF1515"/>
<path fill-rule="evenodd" clip-rule="evenodd" d="M49.8835 35.0554H55.4169C56.1808 35.0554 56.8002 34.436 56.8002 33.6721C56.8002 32.9082 56.1808 32.2888 55.4169 32.2888H49.8835C49.1195 32.2888 48.5002 32.9082 48.5002 33.6721C48.5002 34.436 49.1194 35.0554 49.8835 35.0554Z" fill="#FF1515"/>
<path fill-rule="evenodd" clip-rule="evenodd" d="M33.6887 70.2277C33.9476 70.488 34.2997 70.634 34.6667 70.633H34.7289C35.1172 70.6149 35.4803 70.4353 35.7304 70.1378L42.6471 61.8379C42.9639 61.4579 43.0539 60.9377 42.8832 60.4732C42.7125 60.0088 42.307 59.6709 41.8195 59.5865C41.3319 59.5022 40.8365 59.6844 40.5196 60.0644L34.5713 67.2024L34.2587 66.8898C33.7158 66.3657 32.8531 66.3732 32.3195 66.9067C31.7859 67.4403 31.7784 68.3031 32.3026 68.8459L33.6887 70.2277Z" stroke="#F9FBFD" stroke-width="14" mask="url(#path-1-outside-1_24_1427)"/>
<path d="M18.0668 89.9998H56.8002C59.8562 89.9998 62.3336 87.5224 62.3336 84.4665V58.1831C65.3896 58.1831 67.867 55.7057 67.867 52.6497V23.5998C67.867 20.5438 65.3896 18.0664 62.3336 18.0664V12.5332C62.3334 9.47714 59.856 6.99976 56.8002 6.99976H18.0668C15.0108 6.99976 12.5334 9.47714 12.5334 12.5332V18.0666C9.47738 18.0666 7 20.5439 7 23.5999V52.6499C7 55.706 9.47738 58.1833 12.5334 58.1833V84.4666C12.5335 87.5224 15.0108 89.9998 18.0668 89.9998ZM59.5667 84.4664C59.5667 85.9944 58.328 87.2331 56.8 87.2331H18.0668C16.5388 87.2331 15.3001 85.9944 15.3001 84.4664V82.3138C16.1376 82.8117 17.0925 83.0772 18.0668 83.0829H56.8002C57.7743 83.0772 58.7294 82.8117 59.5669 82.3138L59.5667 84.4664ZM59.5667 77.5497C59.5667 79.0777 58.328 80.3164 56.8 80.3164H18.0668C16.5388 80.3164 15.3001 79.0777 15.3001 77.5497V58.1831H27.0889C23.6105 63.377 24.523 70.345 29.2214 74.4682C33.9198 78.5914 40.9473 78.5915 45.6457 74.4682C50.3441 70.3449 51.2566 63.3769 47.7782 58.1831H59.567V77.5497H59.5667ZM27.7502 65.0997C27.7502 59.7518 32.0856 55.4164 37.4335 55.4164C42.7815 55.4164 47.1169 59.7518 47.1169 65.0997C47.1169 70.4477 42.7815 74.7831 37.4335 74.7831C32.0883 74.7762 27.757 70.4448 27.7502 65.0997ZM48.0727 9.76645L46.2978 11.6588C45.7752 12.2162 45.0451 12.5327 44.2809 12.533H30.5859C29.8214 12.5321 29.0912 12.2158 28.5676 11.6588L26.7941 9.76645H48.0727ZM15.3001 12.5332C15.3001 11.0051 16.5388 9.76645 18.0668 9.76645H23.0011L26.5493 13.5499C27.5962 14.6646 29.0567 15.2977 30.5859 15.2999H44.2809C45.8103 15.2985 47.271 14.6653 48.3175 13.5499L51.8657 9.76645H56.8C58.328 9.76645 59.5667 11.0051 59.5667 12.5332V18.0666H15.3001V12.5332ZM9.76683 52.6497V23.5998C9.76683 22.0718 11.0055 20.8331 12.5335 20.8331H62.3336C63.8616 20.8331 65.1003 22.0718 65.1003 23.5998V52.6498C65.1003 54.1778 63.8616 55.4165 62.3336 55.4165H45.2424C40.6898 51.7279 34.1771 51.7279 29.6245 55.4165H12.5335C11.0055 55.4164 9.76683 54.1777 9.76683 52.6497Z" stroke="#F9FBFD" stroke-width="14" mask="url(#path-1-outside-1_24_1427)"/>
<path fill-rule="evenodd" clip-rule="evenodd" d="M16.6835 35.0554H22.2169C22.9808 35.0554 23.6002 34.436 23.6002 33.6721C23.6002 32.9082 22.9808 32.2888 22.2169 32.2888H16.6835C15.9196 32.2888 15.3002 32.9082 15.3002 33.6721C15.3002 34.436 15.9194 35.0554 16.6835 35.0554Z" stroke="#F9FBFD" stroke-width="14" mask="url(#path-1-outside-1_24_1427)"/>
<path fill-rule="evenodd" clip-rule="evenodd" d="M16.6835 41.9721H41.5835C42.3475 41.9721 42.9668 41.3527 42.9668 40.5888C42.9668 39.8248 42.3475 39.2055 41.5835 39.2055H16.6835C15.9196 39.2055 15.3002 39.8248 15.3002 40.5888C15.3001 41.3527 15.9194 41.9721 16.6835 41.9721Z" stroke="#F9FBFD" stroke-width="14" mask="url(#path-1-outside-1_24_1427)"/>
<path fill-rule="evenodd" clip-rule="evenodd" d="M27.7502 35.0554H33.2836C34.0475 35.0554 34.6668 34.436 34.6668 33.6721C34.6668 32.9082 34.0475 32.2888 33.2836 32.2888H27.7502C26.9862 32.2888 26.3669 32.9082 26.3669 33.6721C26.3669 34.436 26.9861 35.0554 27.7502 35.0554Z" stroke="#F9FBFD" stroke-width="14" mask="url(#path-1-outside-1_24_1427)"/>
<path fill-rule="evenodd" clip-rule="evenodd" d="M38.8168 35.0554H44.3502C45.1142 35.0554 45.7335 34.436 45.7335 33.6721C45.7335 32.9082 45.1142 32.2888 44.3502 32.2888H38.8168C38.0529 32.2888 37.4335 32.9082 37.4335 33.6721C37.4335 34.436 38.0527 35.0554 38.8168 35.0554Z" stroke="#F9FBFD" stroke-width="14" mask="url(#path-1-outside-1_24_1427)"/>
<path fill-rule="evenodd" clip-rule="evenodd" d="M49.8835 35.0554H55.4169C56.1808 35.0554 56.8002 34.436 56.8002 33.6721C56.8002 32.9082 56.1808 32.2888 55.4169 32.2888H49.8835C49.1195 32.2888 48.5002 32.9082 48.5002 33.6721C48.5002 34.436 49.1194 35.0554 49.8835 35.0554Z" stroke="#F9FBFD" stroke-width="14" mask="url(#path-1-outside-1_24_1427)"/>
</svg>
