<svg width="7" height="5" viewBox="0 0 7 5" fill="none" xmlns="http://www.w3.org/2000/svg">
<path d="M3.8131 4.2674L6.6697 1.61179C6.78087 1.51399 6.83643 1.39187 6.83643 1.24518C6.83643 1.09849 6.7808 0.976367 6.6697 0.878569L6.34055 0.569011C6.2323 0.468517 6.10073 0.41827 5.94568 0.41827C5.79357 0.41827 5.66043 0.468503 5.54637 0.569011L3.41814 2.54855L1.28552 0.568926C1.17728 0.46846 1.0457 0.418213 0.890637 0.418213C0.738543 0.418213 0.605352 0.468446 0.491343 0.568926L0.16224 0.878512C0.0539932 0.978992 -0.0001221 1.10124 -0.000122106 1.24512C-0.000122113 1.38906 0.0539932 1.51128 0.162239 1.61173L3.01884 4.2674C3.13293 4.36792 3.26604 4.41821 3.41815 4.41821C3.5732 4.41823 3.70485 4.36792 3.8131 4.2674Z" fill="#DF0C12"/>
</svg>
